SplineFontDB: 3.0
FontName: ArundinaSansMono-Bold
FullName: Arundina Sans Mono Bold
FamilyName: Arundina Sans Mono
Weight: Bold
Copyright: Copyright (c) 2003 by Bitstream, Inc. All Rights Reserved.\nCopyright (c) 2007 by Software Industry Promotion Agency (Public Organization). All Rights Reserved.
Version: 1.21
ItalicAngle: 0
UnderlinePosition: -436
UnderlineWidth: 288
Ascent: 1638
Descent: 410
LayerCount: 2
Layer: 0 1 "Back" 
Layer: 1 1 "Fore" 
XUID: [1021 375 425136265 6984372]
FSType: 4
OS2Version: 2
OS2_WeightWidthSlopeOnly: 0
OS2_UseTypoMetrics: 1
CreationTime: 1050374940
ModificationTime: 1211947936
PfmFamily: 49
TTFWeight: 700
TTFWidth: 5
LineGap: 25
VLineGap: 0
Panose: 2 11 3 0 2 2 2 2 2 4
OS2TypoAscent: 0
OS2TypoAOffset: 1
OS2TypoDescent: 0
OS2TypoDOffset: 1
OS2TypoLinegap: 0
OS2WinAscent: -610
OS2WinAOffset: 1
OS2WinDescent: -103
OS2WinDOffset: 1
HheadAscent: -610
HheadAOffset: 1
HheadDescent: 103
HheadDOffset: 1
OS2SubXSize: 1434
OS2SubYSize: 1331
OS2SubXOff: 0
OS2SubYOff: 287
OS2SupXSize: 1434
OS2SupYSize: 1331
OS2SupXOff: 0
OS2SupYOff: 977
OS2StrikeYSize: 102
OS2StrikeYPos: 512
OS2FamilyClass: 1285
OS2Vendor: 'Bits'
Lookup: 4 0 0 "'frac' Diagonal Fractions in Latin lookup 0"  {"'frac' Diagonal Fractions in Latin lookup 0 subtable"  } ['frac' ('latn' <'dflt' > ) ]
Lookup: 6 0 0 "'liga' Standard Ligatures in Latin lookup 1"  {"'liga' Standard Ligatures in Latin lookup 1 subtable"  } ['liga' ('latn' <'dflt' > ) ]
Lookup: 6 0 0 "'liga' Standard Ligatures in Latin lookup 2"  {"'liga' Standard Ligatures in Latin lookup 2 subtable"  } ['liga' ('latn' <'dflt' > ) ]
Lookup: 6 0 0 "'liga' Standard Ligatures in Latin lookup 3"  {"'liga' Standard Ligatures in Latin lookup 3 subtable"  } ['liga' ('latn' <'dflt' > ) ]
Lookup: 6 0 0 "'liga' Standard Ligatures in Latin lookup 4"  {"'liga' Standard Ligatures in Latin lookup 4 subtable"  } ['liga' ('latn' <'dflt' > ) ]

StartChar: .notdef
Encoding: 65536 -1 0
Width: 1234
VWidth: 3393
Flags: W
HStem: -363 114<220 1014> 1331 114<220 1014>
VStem: 104 116<-249 1331> 1014 116<-249 1331>
LayerCount: 2
Fore
SplineSet
104 1445 m 1,0,-1
 1130 1445 l 1,1,-1
 1130 -363 l 1,2,-1
 104 -363 l 1,3,-1
 104 1445 l 1,0,-1
1014 -249 m 1,4,-1
 1014 1331 l 1,5,-1
 220 1331 l 1,6,-1
 220 -249 l 1,7,-1
 1014 -249 l 1,4,-1
EndSplineSet
EndChar

StartChar: exclam
Encoding: 33 33 4
Width: 1234
VWidth: 3393
Flags: W
HStem: 0 282<482 751> 1473 20G<482 751>
VStem: 482 269<0 282 769.032 1493>
LayerCount: 2
Fore
SplineSet
751 282 m 1,0,-1
 751 0 l 1,1,-1
 482 0 l 1,2,-1
 482 282 l 1,3,-1
 751 282 l 1,0,-1
751 1493 m 1,4,-1
 751 838 l 1,5,-1
 719 482 l 1,6,-1
 519 482 l 1,7,-1
 482 838 l 1,8,-1
 482 1493 l 1,9,-1
 751 1493 l 1,4,-1
EndSplineSet
EndChar

StartChar: quotedbl
Encoding: 34 34 5
Width: 1234
VWidth: 3393
Flags: W
HStem: 1473 20G<230 489 744 1001>
VStem: 230 259<940 1493> 744 257<940 1493 940 1493 940 940>
LayerCount: 2
Fore
SplineSet
1001 940 m 1,0,-1
 744 940 l 1,1,-1
 744 1493 l 1,2,-1
 1001 1493 l 1,3,-1
 1001 940 l 1,0,-1
489 940 m 1,4,-1
 230 940 l 1,5,-1
 230 1493 l 1,6,-1
 489 1493 l 1,7,-1
 489 940 l 1,4,-1
EndSplineSet
EndChar

StartChar: numbersign
Encoding: 35 35 6
Width: 1234
VWidth: 3393
Flags: W
HStem: 0 21G<116 341.094 543 769.04> 373 214<3 210 482 635 910 1117> 882 215<119 336 615 764 1039 1231>
LayerCount: 2
Fore
SplineSet
615 1097 m 1,0,-1
 815 1097 l 1,1,-1
 910 1473 l 1,2,-1
 1133 1473 l 1,3,-1
 1039 1097 l 1,4,-1
 1231 1097 l 1,5,-1
 1231 882 l 1,6,-1
 984 882 l 1,7,-1
 910 587 l 1,8,-1
 1117 587 l 1,9,-1
 1117 373 l 1,10,-1
 858 373 l 1,11,-1
 764 0 l 1,12,-1
 543 0 l 1,13,-1
 635 373 l 1,14,-1
 431 373 l 1,15,-1
 336 0 l 1,16,-1
 116 0 l 1,17,-1
 210 373 l 1,18,-1
 3 373 l 1,19,-1
 3 587 l 1,20,-1
 262 587 l 1,21,-1
 336 882 l 1,22,-1
 119 882 l 1,23,-1
 119 1097 l 1,24,-1
 391 1097 l 1,25,-1
 486 1473 l 1,26,-1
 709 1473 l 1,27,-1
 615 1097 l 1,0,-1
557 882 m 1,28,-1
 482 587 l 1,29,-1
 689 587 l 1,30,-1
 764 882 l 1,31,-1
 557 882 l 1,28,-1
EndSplineSet
EndChar

StartChar: dollar
Encoding: 36 36 7
Width: 1234
VWidth: 3393
Flags: W
HStem: 0 227<375.028 553> 1104 217<462.455 553 696 891.143> 1538 20G<553 696>
VStem: 162 266<864.838 1070.09> 553 143<-302 0 227 529 819 1104 1321 1558> 828 264<271.003 486.827>
LayerCount: 2
Fore
SplineSet
696 227 m 1,0,1
 761 234 761 234 794.5 274.5 c 128,-1,2
 828 315 828 315 828 376 c 0,3,4
 828 502 828 502 696 529 c 1,5,-1
 696 227 l 1,0,1
553 1104 m 1,6,7
 428 1082 428 1082 428 968 c 0,8,9
 428 855 428 855 553 819 c 1,10,-1
 553 1104 l 1,6,7
553 -302 m 1,11,-1
 553 0 l 1,12,13
 376 7 376 7 172 91 c 1,14,-1
 172 353 l 1,15,16
 275 295 275 295 372 261 c 128,-1,17
 469 227 469 227 553 227 c 1,18,-1
 553 557 l 1,19,20
 162 631 162 631 162 943 c 0,21,22
 162 1114 162 1114 265 1208 c 0,23,24
 373 1311 373 1311 553 1321 c 1,25,-1
 553 1558 l 1,26,-1
 696 1558 l 1,27,-1
 696 1321 l 1,28,29
 832 1317 832 1317 1001 1263 c 1,30,-1
 1001 1007 l 1,31,32
 868 1089 868 1089 696 1104 c 1,33,-1
 696 794 l 1,34,35
 1092 732 1092 732 1092 383 c 0,36,37
 1092 214 1092 214 984 116 c 0,38,39
 878 10 878 10 696 0 c 1,40,-1
 696 -302 l 1,41,-1
 553 -302 l 1,11,-1
EndSplineSet
EndChar

StartChar: percent
Encoding: 37 37 8
Width: 1234
VWidth: 3393
Flags: W
HStem: 0 184<799.041 1000.69> 457 184<799.727 998.817> 794 184<253.044 450.294> 1249 183<253.044 448.412>
VStem: 33 181<1013.04 1211.33> 489 184<1014.49 1210.61> 580 184<219.003 421.179> 1039 182<219.641 418.693>
LayerCount: 2
Fore
SplineSet
33 1114 m 256,0,1
 33 1249 33 1249 126 1341 c 256,2,3
 217 1432 217 1432 353 1432 c 0,4,5
 486 1432 486 1432 580 1341 c 0,6,7
 673 1246 673 1246 673 1114 c 0,8,9
 673 984 673 984 580 886 c 0,10,11
 486 794 486 794 353 794 c 0,12,13
 217 794 217 794 126 886 c 256,14,15
 33 978 33 978 33 1114 c 256,0,1
353 1249 m 0,16,17
 292 1249 292 1249 255 1211 c 0,18,19
 214 1171 214 1171 214 1114 c 256,20,21
 214 1056 214 1056 255 1014 c 0,22,23
 292 978 292 978 353 978 c 256,24,25
 414 978 414 978 447 1014 c 0,26,27
 489 1056 489 1056 489 1114 c 256,28,29
 489 1171 489 1171 447 1211 c 0,30,31
 411 1249 411 1249 353 1249 c 0,16,17
1130 981 m 1,32,-1
 1171 882 l 1,33,-1
 123 466 l 1,34,-1
 85 560 l 1,35,-1
 1130 981 l 1,32,-1
580 320 m 256,36,37
 580 454 580 454 673 547 c 0,38,39
 774 641 774 641 900 641 c 256,40,41
 1024 641 1024 641 1127 547 c 0,42,43
 1221 444 1221 444 1221 320 c 256,44,45
 1221 194 1221 194 1127 91 c 0,46,47
 1032 0 1032 0 900 0 c 0,48,49
 771 0 771 0 673 91 c 0,50,51
 580 184 580 184 580 320 c 256,36,37
900 457 m 256,52,53
 842 457 842 457 800 418 c 0,54,55
 764 373 764 373 764 320 c 256,56,57
 764 265 764 265 800 220 c 1,58,59
 845 184 845 184 900 184 c 256,60,61
 953 184 953 184 998 220 c 1,62,63
 1039 268 1039 268 1039 320 c 256,64,65
 1039 370 1039 370 998 418 c 0,66,67
 958 457 958 457 900 457 c 256,52,53
EndSplineSet
EndChar

StartChar: ampersand
Encoding: 38 38 9
Width: 1234
VWidth: 3393
Flags: W
HStem: -30 237<432.474 684.529> 1221 21G<860 926> 1296 225<524.749 865.152>
VStem: 38 270<334.315 647.953> 220 282<1101.96 1270.07> 988 227<443.324 690.64 692.359 747>
LayerCount: 2
Fore
SplineSet
872 71 m 1,0,1
 719 -30 719 -30 540 -30 c 0,2,3
 315 -30 315 -30 176 101 c 0,4,5
 38 230 38 230 38 441 c 0,6,7
 38 739 38 739 320 913 c 1,8,9
 220 1065 220 1065 220 1185 c 0,10,11
 220 1347 220 1347 328.5 1434 c 128,-1,12
 437 1521 437 1521 645 1521 c 0,13,14
 790 1521 790 1521 926 1480 c 1,15,-1
 926 1221 l 1,16,17
 794 1296 794 1296 664 1296 c 0,18,19
 502 1296 502 1296 502 1185 c 0,20,21
 502 1147 502 1147 532.5 1085.5 c 128,-1,22
 563 1024 563 1024 631 920 c 2,23,-1
 943 441 l 1,24,25
 988 515 988 515 988 635 c 0,26,27
 988 664 988 664 986 691.5 c 128,-1,28
 984 719 984 719 981 747 c 1,29,-1
 1215 747 l 1,30,-1
 1215 696 l 2,31,32
 1215 411 1215 411 1075 249 c 1,33,-1
 1234 0 l 1,34,-1
 920 0 l 1,35,-1
 872 71 l 1,0,1
441 732 m 1,36,37
 308 648 308 648 308 495 c 0,38,39
 308 370 308 370 386 292 c 0,40,41
 462 207 462 207 580 207 c 0,42,43
 635 207 635 207 693 230 c 1,44,45
 696 234 696 234 697.5 234 c 128,-1,46
 699 234 699 234 703 237 c 1,47,48
 716 244 716 244 727.5 249.5 c 128,-1,49
 739 255 739 255 751 262 c 1,50,-1
 441 732 l 1,36,37
EndSplineSet
EndChar

StartChar: quotesingle
Encoding: 39 39 10
Width: 1234
VWidth: 3393
Flags: W
HStem: 1473 20G<489 744>
VStem: 489 255<940 1493 940 1493 940 940>
LayerCount: 2
Fore
SplineSet
744 940 m 1,0,-1
 489 940 l 1,1,-1
 489 1493 l 1,2,-1
 744 1493 l 1,3,-1
 744 940 l 1,0,-1
EndSplineSet
EndChar

StartChar: parenleft
Encoding: 40 40 11
Width: 1234
VWidth: 3393
Flags: W
VStem: 383 281<297.172 987.93>
LayerCount: 2
Fore
SplineSet
926 1554 m 1,0,1
 794 1314 794 1314 729 1091 c 128,-1,2
 664 868 664 868 664 645 c 256,3,4
 664 421 664 421 729 197 c 128,-1,5
 794 -27 794 -27 926 -272 c 1,6,-1
 696 -272 l 1,7,8
 537 -38 537 -38 460 186.5 c 128,-1,9
 383 411 383 411 383 645 c 0,10,11
 383 1107 383 1107 696 1554 c 1,12,-1
 926 1554 l 1,0,1
EndSplineSet
EndChar

StartChar: parenright
Encoding: 41 41 12
Width: 1234
VWidth: 3393
Flags: W
VStem: 570 282<293.628 995.118>
LayerCount: 2
Fore
SplineSet
537 1554 m 1,0,1
 699 1327 699 1327 775.5 1102.5 c 128,-1,2
 852 878 852 878 852 645 c 256,3,4
 852 411 852 411 775.5 186.5 c 128,-1,5
 699 -38 699 -38 537 -272 c 1,6,-1
 308 -272 l 1,7,8
 441 -27 441 -27 505.5 197 c 128,-1,9
 570 421 570 421 570 645 c 256,10,11
 570 868 570 868 505.5 1091 c 128,-1,12
 441 1314 441 1314 308 1554 c 1,13,-1
 537 1554 l 1,0,1
EndSplineSet
EndChar

StartChar: asterisk
Encoding: 42 42 13
Width: 1234
VWidth: 3393
Flags: W
HStem: 1501 20G<529 703>
VStem: 529 174<570 913 1178 1521 570 1521 570 570>
LayerCount: 2
Fore
SplineSet
780 1046 m 1,0,-1
 1110 872 l 1,1,-1
 1032 729 l 1,2,-1
 703 913 l 1,3,-1
 703 570 l 1,4,-1
 529 570 l 1,5,-1
 529 913 l 1,6,-1
 197 729 l 1,7,-1
 123 872 l 1,8,-1
 454 1046 l 1,9,-1
 123 1218 l 1,10,-1
 197 1360 l 1,11,-1
 529 1178 l 1,12,-1
 529 1521 l 1,13,-1
 703 1521 l 1,14,-1
 703 1178 l 1,15,-1
 1032 1360 l 1,16,-1
 1110 1218 l 1,17,-1
 780 1046 l 1,0,-1
EndSplineSet
EndChar

StartChar: plus
Encoding: 43 43 14
Width: 1234
VWidth: 3393
Flags: W
HStem: 525 239<65 499 736 1168>
VStem: 499 237<91 525 764 1195>
LayerCount: 2
Fore
SplineSet
736 764 m 1,0,-1
 1168 764 l 1,1,-1
 1168 525 l 1,2,-1
 736 525 l 1,3,-1
 736 91 l 1,4,-1
 499 91 l 1,5,-1
 499 525 l 1,6,-1
 65 525 l 1,7,-1
 65 764 l 1,8,-1
 499 764 l 1,9,-1
 499 1195 l 1,10,-1
 736 1195 l 1,11,-1
 736 764 l 1,0,-1
EndSplineSet
EndChar

StartChar: comma
Encoding: 44 44 15
Width: 1234
VWidth: 3393
Flags: W
HStem: -288 654<462 580>
VStem: 462 312<94 366>
LayerCount: 2
Fore
SplineSet
774 366 m 1,0,-1
 774 94 l 1,1,-1
 580 -288 l 1,2,-1
 363 -288 l 1,3,-1
 462 94 l 1,4,-1
 462 366 l 1,5,-1
 774 366 l 1,0,-1
EndSplineSet
EndChar

StartChar: hyphen
Encoding: 45 45 16
Width: 1234
VWidth: 3393
Flags: W
HStem: 444 292<302 933 302 933 302 302>
LayerCount: 2
Fore
SplineSet
933 736 m 1,0,-1
 933 444 l 1,1,-1
 302 444 l 1,2,-1
 302 736 l 1,3,-1
 933 736 l 1,0,-1
EndSplineSet
EndChar

StartChar: period
Encoding: 46 46 17
Width: 1234
VWidth: 3393
Flags: W
HStem: 0 366<447 784>
VStem: 447 337<0 366>
LayerCount: 2
Fore
SplineSet
784 366 m 1,0,-1
 784 0 l 1,1,-1
 447 0 l 1,2,-1
 447 366 l 1,3,-1
 784 366 l 1,0,-1
EndSplineSet
EndChar

StartChar: slash
Encoding: 47 47 18
Width: 1234
VWidth: 3393
Flags: W
HStem: 1473 20G<890.653 1120>
VStem: 113 1007<-191 1493 -191 -191>
LayerCount: 2
Fore
SplineSet
1120 1493 m 1,0,-1
 336 -191 l 1,1,-1
 113 -191 l 1,2,-1
 900 1493 l 1,3,-1
 1120 1493 l 1,0,-1
EndSplineSet
EndChar

StartChar: zero
Encoding: 48 48 19
Width: 1234
VWidth: 3393
Flags: W
HStem: -30 250<515.535 719.496> 621 251<530.191 704.81> 1273 248<515.535 719.496>
VStem: 123 298<354.079 1138.66> 492 252<659.191 833.81> 815 295<354.079 1138.45>
LayerCount: 2
Fore
SplineSet
492 747 m 256,0,1
 492 797 492 797 529 835 c 256,2,3
 567 872 567 872 618 872 c 256,4,5
 668 872 668 872 706 835 c 256,6,7
 744 797 744 797 744 747 c 256,8,9
 744 696 744 696 706 658 c 256,10,11
 668 621 668 621 618 621 c 256,12,13
 567 621 567 621 529 658 c 256,14,15
 492 696 492 696 492 747 c 256,0,1
618 1273 m 256,16,17
 515 1273 515 1273 468 1147 c 128,-1,18
 421 1021 421 1021 421 747 c 256,19,20
 421 472 421 472 468 346 c 128,-1,21
 515 220 515 220 618 220 c 256,22,23
 719 220 719 220 767 346 c 128,-1,24
 815 472 815 472 815 747 c 0,25,26
 815 1014 815 1014 767 1147 c 0,27,28
 719 1273 719 1273 618 1273 c 256,16,17
123 747 m 0,29,30
 123 1521 123 1521 618 1521 c 0,31,32
 1110 1521 1110 1521 1110 747 c 0,33,34
 1110 -30 1110 -30 618 -30 c 0,35,36
 123 -30 123 -30 123 747 c 0,29,30
EndSplineSet
EndChar

StartChar: one
Encoding: 49 49 20
Width: 1234
VWidth: 3393
Flags: W
HStem: 0 262<187 519 804 1137> 1473 20G<431.958 804>
VStem: 519 285<262 1231>
LayerCount: 2
Fore
SplineSet
519 262 m 1,0,-1
 519 1231 l 1,1,-1
 210 1153 l 1,2,-1
 210 1422 l 1,3,-1
 519 1493 l 1,4,-1
 804 1493 l 1,5,-1
 804 262 l 1,6,-1
 1137 262 l 1,7,-1
 1137 0 l 1,8,-1
 187 0 l 1,9,-1
 187 262 l 1,10,-1
 519 262 l 1,0,-1
EndSplineSet
EndChar

StartChar: two
Encoding: 50 50 21
Width: 1234
VWidth: 3393
Flags: W
HStem: 0 262<434 1065> 1289 232<338.646 690.249>
VStem: 764 298<947.751 1216.24>
LayerCount: 2
Fore
SplineSet
1065 262 m 1,0,-1
 1065 0 l 1,1,-1
 116 0 l 1,2,-1
 116 252 l 1,3,-1
 275 421 l 2,4,5
 560 726 560 726 621 797 c 0,6,7
 699 882 699 882 731.5 948 c 128,-1,8
 764 1014 764 1014 764 1079 c 0,9,10
 764 1181 764 1181 702.5 1235 c 128,-1,11
 641 1289 641 1289 529 1289 c 0,12,13
 451 1289 451 1289 353 1257 c 128,-1,14
 255 1225 255 1225 146 1168 c 1,15,-1
 146 1442 l 1,16,17
 370 1521 370 1521 553 1521 c 0,18,19
 787 1521 787 1521 926 1412 c 0,20,21
 1062 1299 1062 1299 1062 1110 c 0,22,23
 1062 1021 1062 1021 1032 943 c 0,24,25
 1004 865 1004 865 930 774 c 0,26,27
 903 736 903 736 832 659.5 c 128,-1,28
 761 583 761 583 641 466 c 0,29,30
 573 401 573 401 522.5 349.5 c 128,-1,31
 472 298 472 298 434 262 c 1,32,-1
 1065 262 l 1,0,-1
EndSplineSet
EndChar

StartChar: three
Encoding: 51 51 22
Width: 1234
VWidth: 3393
Flags: W
HStem: -30 254<258.15 733.436> 668 262<391 717.082> 1273 248<286.127 715.256>
VStem: 126 978<203.389 320> 780 285<986.505 1210.5> 819 285<302.251 577.07>
LayerCount: 2
Fore
SplineSet
391 668 m 1,0,-1
 391 930 l 1,1,-1
 550 930 l 2,2,3
 658 930 658 930 719 973.5 c 128,-1,4
 780 1017 780 1017 780 1097 c 0,5,6
 780 1178 780 1178 719 1225.5 c 128,-1,7
 658 1273 658 1273 550 1273 c 0,8,9
 386 1273 386 1273 169 1188 c 1,10,-1
 169 1460 l 1,11,12
 379 1521 379 1521 567 1521 c 0,13,14
 800 1521 800 1521 933 1418 c 256,15,16
 1065 1317 1065 1317 1065 1133 c 0,17,18
 1065 1001 1065 1001 990.5 916.5 c 128,-1,19
 916 832 916 832 774 804 c 1,20,21
 936 777 936 777 1020 678.5 c 128,-1,22
 1104 580 1104 580 1104 418 c 0,23,24
 1104 197 1104 197 963 83.5 c 128,-1,25
 822 -30 822 -30 557 -30 c 0,26,27
 333 -30 333 -30 126 45 c 1,28,-1
 126 320 l 1,29,30
 323 224 323 224 557 224 c 0,31,32
 679 224 679 224 749 278.5 c 128,-1,33
 819 333 819 333 819 428 c 0,34,35
 819 543 819 543 749 605.5 c 128,-1,36
 679 668 679 668 550 668 c 2,37,-1
 391 668 l 1,0,-1
EndSplineSet
EndChar

StartChar: four
Encoding: 52 52 23
Width: 1234
VWidth: 3393
Flags: W
HStem: 0 21G<696 978> 323 254<320 696 978 1143> 1473 20G<655.186 978>
VStem: 696 282<0 323 577 1168>
LayerCount: 2
Fore
SplineSet
320 577 m 1,0,-1
 696 577 l 1,1,-1
 696 1168 l 1,2,-1
 320 577 l 1,0,-1
978 1493 m 1,3,-1
 978 577 l 1,4,-1
 1143 577 l 1,5,-1
 1143 323 l 1,6,-1
 978 323 l 1,7,-1
 978 0 l 1,8,-1
 696 0 l 1,9,-1
 696 323 l 1,10,-1
 101 323 l 1,11,-1
 101 608 l 1,12,-1
 668 1493 l 1,13,-1
 978 1493 l 1,3,-1
EndSplineSet
EndChar

StartChar: five
Encoding: 53 53 24
Width: 1234
VWidth: 3393
Flags: W
HStem: -30 250<321.635 694.46> 736 248<432.254 690.139> 1234 259<431 1004>
VStem: 143 954<240 302> 194 237<958 1234> 807 290<321.169 626.773>
LayerCount: 2
Fore
SplineSet
1004 1493 m 1,0,-1
 1004 1234 l 1,1,-1
 431 1234 l 1,2,-1
 431 958 l 1,3,4
 499 984 499 984 597 984 c 0,5,6
 819 984 819 984 958 845 c 0,7,8
 1097 699 1097 699 1097 479 c 0,9,10
 1097 240 1097 240 943 109 c 0,11,12
 794 -30 794 -30 537 -30 c 0,13,14
 441 -30 441 -30 342.5 -13.5 c 128,-1,15
 244 3 244 3 143 33 c 1,16,-1
 143 302 l 1,17,18
 312 220 312 220 489 220 c 0,19,20
 807 220 807 220 807 479 c 0,21,22
 807 600 807 600 726 664 c 0,23,24
 651 736 651 736 512 736 c 0,25,26
 350 736 350 736 194 658 c 1,27,-1
 194 1493 l 1,28,-1
 1004 1493 l 1,0,-1
EndSplineSet
EndChar

StartChar: six
Encoding: 54 54 25
Width: 1234
VWidth: 3393
Flags: W
HStem: -30 237<519.964 771.387> 751 237<516.723 764.631> 1283 238<573.538 936.424>
VStem: 133 275<855 1098.68> 133 314<337.016 888.097> 842 281<284.471 667.887>
LayerCount: 2
Fore
SplineSet
645 751 m 0,0,1
 447 751 447 751 447 479 c 256,2,3
 447 207 447 207 645 207 c 256,4,5
 842 207 842 207 842 479 c 0,6,7
 842 608 842 608 790.5 679.5 c 128,-1,8
 739 751 739 751 645 751 c 0,0,1
1032 1191 m 1,9,10
 875 1283 875 1283 739 1283 c 0,11,12
 418 1283 418 1283 408 855 c 1,13,14
 505 988 505 988 703 988 c 0,15,16
 903 988 903 988 1014 858 c 0,17,18
 1123 729 1123 729 1123 495 c 0,19,20
 1123 244 1123 244 998 109 c 0,21,22
 878 -30 878 -30 651 -30 c 0,23,24
 376 -30 376 -30 255 152 c 256,25,26
 133 336 133 336 133 744 c 0,27,28
 133 1521 133 1521 736 1521 c 0,29,30
 878 1521 878 1521 1032 1460 c 1,31,-1
 1032 1191 l 1,9,10
EndSplineSet
EndChar

StartChar: seven
Encoding: 55 55 26
Width: 1234
VWidth: 3393
Flags: W
HStem: 0 21G<272 580.869> 1234 259<136 761>
VStem: 136 943<1286 1493>
LayerCount: 2
Fore
SplineSet
1079 1493 m 1,0,-1
 1079 1286 l 1,1,-1
 573 0 l 1,2,-1
 272 0 l 1,3,-1
 761 1234 l 1,4,-1
 136 1234 l 1,5,-1
 136 1493 l 1,6,-1
 1079 1493 l 1,0,-1
EndSplineSet
EndChar

StartChar: eight
Encoding: 56 56 27
Width: 1234
VWidth: 3393
Flags: W
HStem: -30 240<477.113 753.461> 664 239<486.626 746.374> 1283 238<483.789 748.114>
VStem: 129 269<289.737 588.24> 166 262<963.109 1227.37> 804 265<962.264 1228.17> 838 269<294.737 585.59>
LayerCount: 2
Fore
SplineSet
618 664 m 256,0,1
 519 664 519 664 457 605 c 0,2,3
 398 547 398 547 398 437 c 0,4,5
 398 333 398 333 457 272 c 256,6,7
 519 210 519 210 618 210 c 256,8,9
 716 210 716 210 777 275 c 0,10,11
 838 336 838 336 838 437 c 0,12,13
 838 543 838 543 777 605 c 256,14,15
 716 664 716 664 618 664 c 256,0,1
398 790 m 1,16,17
 166 875 166 875 166 1120 c 0,18,19
 166 1302 166 1302 288 1415 c 0,20,21
 408 1521 408 1521 618 1521 c 256,22,23
 828 1521 828 1521 946 1415 c 0,24,25
 1069 1302 1069 1302 1069 1120 c 0,26,27
 1069 875 1069 875 842 790 c 1,28,29
 961 757 961 757 1036 655 c 0,30,31
 1107 560 1107 560 1107 421 c 0,32,33
 1107 207 1107 207 978 88 c 256,34,35
 848 -30 848 -30 618 -30 c 256,36,37
 386 -30 386 -30 258 88 c 0,38,39
 129 204 129 204 129 421 c 0,40,41
 129 560 129 560 200.5 657 c 128,-1,42
 272 754 272 754 398 790 c 1,16,17
428 1097 m 256,43,44
 428 1007 428 1007 478.5 955 c 128,-1,45
 529 903 529 903 618 903 c 256,46,47
 706 903 706 903 755 955 c 128,-1,48
 804 1007 804 1007 804 1097 c 256,49,50
 804 1185 804 1185 755 1234 c 128,-1,51
 706 1283 706 1283 618 1283 c 256,52,53
 529 1283 529 1283 478.5 1234 c 128,-1,54
 428 1185 428 1185 428 1097 c 256,43,44
EndSplineSet
EndChar

StartChar: nine
Encoding: 57 57 28
Width: 1234
VWidth: 3393
Flags: W
HStem: -41 241<293.281 660.959> 495 249<461.437 717.142> 1283 227<462.387 717.374>
VStem: 113 278<821.968 1206.29> 825 279<396.062 625>
LayerCount: 2
Fore
SplineSet
204 288 m 1,0,1
 356 200 356 200 495 200 c 0,2,3
 815 200 815 200 825 625 c 1,4,5
 736 495 736 495 534 495 c 0,6,7
 333 495 333 495 220 621 c 0,8,9
 113 751 113 751 113 984 c 0,10,11
 113 1234 113 1234 234 1370 c 0,12,13
 356 1510 356 1510 583 1510 c 0,14,15
 855 1510 855 1510 981 1327 c 0,16,17
 1104 1143 1104 1143 1104 736 c 0,18,19
 1104 -41 1104 -41 499 -41 c 0,20,21
 356 -41 356 -41 204 20 c 1,22,-1
 204 288 l 1,0,1
590 744 m 0,23,24
 787 744 787 744 787 1014 c 0,25,26
 787 1283 787 1283 590 1283 c 0,27,28
 391 1283 391 1283 391 1014 c 0,29,30
 391 744 391 744 590 744 c 0,23,24
EndSplineSet
EndChar

StartChar: colon
Encoding: 58 58 29
Width: 1234
VWidth: 3393
Flags: W
HStem: 0 366<447 784> 699 366<447 784>
VStem: 447 337<0 366 699 1065>
LayerCount: 2
Fore
SplineSet
784 1065 m 1,0,-1
 784 699 l 1,1,-1
 447 699 l 1,2,-1
 447 1065 l 1,3,-1
 784 1065 l 1,0,-1
784 366 m 1,4,-1
 784 0 l 1,5,-1
 447 0 l 1,6,-1
 447 366 l 1,7,-1
 784 366 l 1,4,-1
EndSplineSet
EndChar

StartChar: semicolon
Encoding: 59 59 30
Width: 1234
VWidth: 3393
Flags: W
HStem: 699 366<447 784>
VStem: 447 337<94 366 699 1065>
LayerCount: 2
Fore
SplineSet
784 366 m 1,0,-1
 784 94 l 1,1,-1
 587 -288 l 1,2,-1
 370 -288 l 1,3,-1
 447 94 l 1,4,-1
 447 366 l 1,5,-1
 784 366 l 1,0,-1
784 1065 m 1,6,-1
 784 699 l 1,7,-1
 447 699 l 1,8,-1
 447 1065 l 1,9,-1
 784 1065 l 1,6,-1
EndSplineSet
EndChar

StartChar: less
Encoding: 60 60 31
Width: 1234
VWidth: 3393
Flags: W
LayerCount: 2
Fore
SplineSet
350 641 m 1,0,-1
 1147 360 l 1,1,-1
 1147 109 l 1,2,-1
 88 525 l 1,3,-1
 88 761 l 1,4,-1
 1147 1178 l 1,5,-1
 1147 926 l 1,6,-1
 350 641 l 1,0,-1
EndSplineSet
EndChar

StartChar: equal
Encoding: 61 61 32
Width: 1234
VWidth: 3393
Flags: W
HStem: 295 239<88 1147> 754 234<88 1147>
LayerCount: 2
Fore
SplineSet
1147 534 m 1,0,-1
 1147 295 l 1,1,-1
 88 295 l 1,2,-1
 88 534 l 1,3,-1
 1147 534 l 1,0,-1
1147 988 m 1,4,-1
 1147 754 l 1,5,-1
 88 754 l 1,6,-1
 88 988 l 1,7,-1
 1147 988 l 1,4,-1
EndSplineSet
EndChar

StartChar: greater
Encoding: 62 62 33
Width: 1234
VWidth: 3393
Flags: W
LayerCount: 2
Fore
SplineSet
88 1178 m 1,0,-1
 1147 761 l 1,1,-1
 1147 525 l 1,2,-1
 88 109 l 1,3,-1
 88 360 l 1,4,-1
 882 641 l 1,5,-1
 88 926 l 1,6,-1
 88 1178 l 1,0,-1
EndSplineSet
EndChar

StartChar: question
Encoding: 63 63 34
Width: 1234
VWidth: 3393
Flags: W
HStem: 0 282<441 709> 1140 21G<234 282> 1283 238<415.04 743.441>
VStem: 441 268<0 282 401 638.727> 780 285<1064.2 1246.67>
LayerCount: 2
Fore
SplineSet
709 282 m 1,0,-1
 709 0 l 1,1,-1
 441 0 l 1,2,-1
 441 282 l 1,3,-1
 709 282 l 1,0,-1
441 401 m 1,4,-1
 441 557 l 2,5,6
 441 655 441 655 472 726 c 0,7,8
 505 797 505 797 583 872 c 2,9,-1
 673 961 l 2,10,11
 739 1029 739 1029 757 1062 c 0,12,13
 780 1100 780 1100 780 1147 c 0,14,15
 780 1283 780 1283 597 1283 c 0,16,17
 512 1283 512 1283 421 1245.5 c 128,-1,18
 330 1208 330 1208 234 1140 c 1,19,-1
 234 1408 l 1,20,21
 428 1521 428 1521 635 1521 c 0,22,23
 838 1521 838 1521 949 1428 c 0,24,25
 1065 1334 1065 1334 1065 1168 c 0,26,27
 1065 1089 1065 1089 1032 1024 c 0,28,29
 1014 994 1014 994 981.5 955 c 128,-1,30
 949 916 949 916 903 868 c 2,31,-1
 815 784 l 2,32,33
 754 722 754 722 729 676 c 0,34,35
 709 635 709 635 709 570 c 2,36,-1
 709 525 l 1,37,-1
 709 401 l 1,38,-1
 441 401 l 1,4,-1
EndSplineSet
EndChar

StartChar: at
Encoding: 64 64 35
Width: 1234
VWidth: 3393
Flags: W
HStem: -320 194<539.71 975.105> 116 186<665.02 904.087> 787 187<665.02 904.778> 1205 194<492.64 852.933>
VStem: 7 197<256.551 845.123> 386 207<377.505 712.465> 964 196<136 217 374.764 714.256 878 1076.85>
LayerCount: 2
Fore
SplineSet
974 547 m 0,0,1
 974 658 974 658 923 722.5 c 128,-1,2
 872 787 872 787 784 787 c 256,3,4
 696 787 696 787 644.5 722.5 c 128,-1,5
 593 658 593 658 593 547 c 0,6,7
 593 431 593 431 644.5 366.5 c 128,-1,8
 696 302 696 302 784 302 c 256,9,10
 872 302 872 302 923 366.5 c 128,-1,11
 974 431 974 431 974 547 c 0,0,1
964 136 m 1,12,-1
 964 217 l 1,13,14
 893 116 893 116 751 116 c 0,15,16
 583 116 583 116 486 234 c 0,17,18
 386 346 386 346 386 547 c 0,19,20
 386 744 386 744 486 855 c 0,21,22
 583 974 583 974 751 974 c 0,23,24
 896 974 896 974 964 878 c 1,25,-1
 964 920 l 2,26,27
 964 1056 964 1056 891.5 1130.5 c 128,-1,28
 819 1205 819 1205 676 1205 c 0,29,30
 469 1205 469 1205 336 1021 c 256,31,32
 204 838 204 838 204 543 c 0,33,34
 204 244 204 244 356 55 c 0,35,36
 505 -126 505 -126 764 -126 c 0,37,38
 926 -126 926 -126 1062 -33 c 1,39,-1
 1153 -210 l 1,40,41
 988 -320 988 -320 774 -320 c 0,42,43
 424 -320 424 -320 214 -85 c 0,44,45
 7 143 7 143 7 543 c 0,46,47
 7 933 7 933 194 1163 c 0,48,49
 383 1399 383 1399 689 1399 c 0,50,51
 910 1399 910 1399 1032 1266 c 0,52,53
 1160 1137 1160 1137 1160 906 c 2,54,-1
 1160 136 l 1,55,-1
 964 136 l 1,12,-1
EndSplineSet
EndChar

StartChar: A
Encoding: 65 65 36
Width: 1234
VWidth: 3393
Flags: W
HStem: 0 21G<33 334.757 901.081 1201> 370 245<479 757> 1473 20G<431.588 802.412>
LayerCount: 2
Fore
SplineSet
479 615 m 1,0,-1
 757 615 l 1,1,-1
 618 1225 l 1,2,-1
 479 615 l 1,0,-1
797 1493 m 1,3,-1
 1201 0 l 1,4,-1
 906 0 l 1,5,-1
 815 370 l 1,6,-1
 418 370 l 1,7,-1
 330 0 l 1,8,-1
 33 0 l 1,9,-1
 437 1493 l 1,10,-1
 797 1493 l 1,3,-1
EndSplineSet
EndChar

StartChar: B
Encoding: 66 66 37
Width: 1234
VWidth: 3393
Flags: W
HStem: 0 237<411 798.592> 679 234<411 765.485> 1263 233<411 763.939>
VStem: 126 285<237 679 913 1263> 815 292<956.44 1212.26> 862 298<298.908 609.789>
LayerCount: 2
Fore
SplineSet
411 237 m 1,0,-1
 608 237 l 2,1,2
 754 237 754 237 804 285 c 0,3,4
 862 333 862 333 862 451 c 0,5,6
 862 573 862 573 803 626 c 128,-1,7
 744 679 744 679 608 679 c 2,8,-1
 411 679 l 1,9,-1
 411 237 l 1,0,-1
411 913 m 1,10,-1
 608 913 l 2,11,12
 719 913 719 913 767 953.5 c 128,-1,13
 815 994 815 994 815 1085 c 256,14,15
 815 1178 815 1178 765.5 1220.5 c 128,-1,16
 716 1263 716 1263 608 1263 c 2,17,-1
 411 1263 l 1,18,-1
 411 913 l 1,10,-1
608 1496 m 2,19,20
 1107 1496 1107 1496 1107 1120 c 0,21,22
 1107 828 1107 828 815 800 c 1,23,24
 1160 767 1160 767 1160 411 c 0,25,26
 1160 197 1160 197 1032 98 c 256,27,28
 903 0 903 0 608 0 c 2,29,-1
 126 0 l 1,30,-1
 126 1496 l 1,31,-1
 608 1496 l 2,19,20
EndSplineSet
EndChar

StartChar: C
Encoding: 67 67 38
Width: 1234
VWidth: 3393
Flags: W
HStem: -30 267<621.864 958.783> 1120 21G<1043 1082> 1256 265<621.226 944.218>
VStem: 152 305<446.836 1045.79> 152 930<363 370 1120 1127>
LayerCount: 2
Fore
SplineSet
1082 45 m 1,0,1
 933 -30 933 -30 774 -30 c 0,2,3
 472 -30 472 -30 312 169 c 0,4,5
 152 363 152 363 152 747 c 0,6,7
 152 1127 152 1127 310.5 1324 c 128,-1,8
 469 1521 469 1521 774 1521 c 0,9,10
 946 1521 946 1521 1082 1448 c 1,11,-1
 1082 1120 l 1,12,13
 1004 1191 1004 1191 934.5 1223.5 c 128,-1,14
 865 1256 865 1256 787 1256 c 0,15,16
 457 1256 457 1256 457 747 c 256,17,18
 457 237 457 237 787 237 c 0,19,20
 936 237 936 237 1082 370 c 1,21,-1
 1082 45 l 1,0,1
EndSplineSet
EndChar

StartChar: D
Encoding: 68 68 39
Width: 1234
VWidth: 3393
Flags: W
HStem: 0 265<431 692.234> 1228 265<431 692.889>
VStem: 136 295<265 1228> 835 308<434.422 1062.45>
LayerCount: 2
Fore
SplineSet
431 265 m 1,0,-1
 512 265 l 2,1,2
 689 265 689 265 761 376 c 0,3,4
 835 482 835 482 835 751 c 0,5,6
 835 1011 835 1011 761 1120 c 0,7,8
 689 1228 689 1228 512 1228 c 2,9,-1
 431 1228 l 1,10,-1
 431 265 l 1,0,-1
454 1493 m 2,11,12
 825 1493 825 1493 981 1321 c 0,13,14
 1143 1147 1143 1147 1143 751 c 0,15,16
 1143 350 1143 350 981 176 c 0,17,18
 825 0 825 0 454 0 c 2,19,-1
 136 0 l 1,20,-1
 136 1493 l 1,21,-1
 454 1493 l 2,11,12
EndSplineSet
EndChar

StartChar: E
Encoding: 69 69 40
Width: 1234
VWidth: 3393
Flags: MW
HStem: 0 262<466 1100> 651 262<466 1039> 1234 259<466 1100>
VStem: 169 297<262 651 913 1234>
LayerCount: 2
Fore
SplineSet
169 0 m 1,0,-1
 169 1493 l 1,1,-1
 1100 1493 l 1,2,-1
 1100 1234 l 1,3,-1
 466 1234 l 1,4,-1
 466 913 l 1,5,-1
 1039 913 l 1,6,-1
 1039 651 l 1,7,-1
 466 651 l 1,8,-1
 466 262 l 1,9,-1
 1100 262 l 1,10,-1
 1100 0 l 1,11,-1
 169 0 l 1,0,-1
EndSplineSet
EndChar

StartChar: F
Encoding: 70 70 41
Width: 1234
VWidth: 3393
Flags: W
HStem: 0 21G<184 479> 651 262<479 1056> 1234 259<479 1114>
VStem: 184 295<0 651 913 1234>
LayerCount: 2
Fore
SplineSet
479 1234 m 1,0,-1
 479 913 l 1,1,-1
 1056 913 l 1,2,-1
 1056 651 l 1,3,-1
 479 651 l 1,4,-1
 479 0 l 1,5,-1
 184 0 l 1,6,-1
 184 1493 l 1,7,-1
 1114 1493 l 1,8,-1
 1114 1234 l 1,9,-1
 479 1234 l 1,0,-1
EndSplineSet
EndChar

StartChar: G
Encoding: 71 71 42
Width: 1234
VWidth: 3393
Flags: W
HStem: -30 267<584.861 871.068> 557 247<673 872> 1256 265<592.835 943.119>
VStem: 119 305<440.885 1044.81> 872 258<272 557>
LayerCount: 2
Fore
SplineSet
872 557 m 1,0,-1
 673 557 l 1,1,-1
 673 804 l 1,2,-1
 1130 804 l 1,3,-1
 1130 119 l 1,4,5
 961 -30 961 -30 722 -30 c 0,6,7
 434 -30 434 -30 275 172 c 0,8,9
 119 373 119 373 119 747 c 0,10,11
 119 1123 119 1123 275 1324 c 0,12,13
 437 1521 437 1521 736 1521 c 0,14,15
 923 1521 923 1521 1079 1422 c 1,16,-1
 1079 1097 l 1,17,18
 949 1256 949 1256 761 1256 c 0,19,20
 424 1256 424 1256 424 747 c 0,21,22
 424 495 424 495 503.5 366 c 128,-1,23
 583 237 583 237 736 237 c 0,24,25
 835 237 835 237 872 272 c 1,26,-1
 872 557 l 1,0,-1
EndSplineSet
EndChar

StartChar: H
Encoding: 72 72 43
Width: 1234
VWidth: 3393
Flags: MW
HStem: 664 262<431 800>
VStem: 136 295<0 664 926 1493> 800 297<0 664 926 1493>
LayerCount: 2
Fore
SplineSet
431 1493 m 1,0,-1
 431 926 l 1,1,-1
 800 926 l 1,2,-1
 800 1493 l 1,3,-1
 1097 1493 l 1,4,-1
 1097 0 l 1,5,-1
 800 0 l 1,6,-1
 800 664 l 1,7,-1
 431 664 l 1,8,-1
 431 0 l 1,9,-1
 136 0 l 1,10,-1
 136 1493 l 1,11,-1
 431 1493 l 1,0,-1
EndSplineSet
EndChar

StartChar: I
Encoding: 73 73 44
Width: 1234
VWidth: 3393
Flags: W
HStem: 0 262<172 469 764 1062> 1234 259<172 469 764 1062>
VStem: 172 890<0 262 1234 1493> 469 295<262 1234>
LayerCount: 2
Fore
SplineSet
172 1493 m 1,0,-1
 1062 1493 l 1,1,-1
 1062 1234 l 1,2,-1
 764 1234 l 1,3,-1
 764 262 l 1,4,-1
 1062 262 l 1,5,-1
 1062 0 l 1,6,-1
 172 0 l 1,7,-1
 172 262 l 1,8,-1
 469 262 l 1,9,-1
 469 1234 l 1,10,-1
 172 1234 l 1,11,-1
 172 1493 l 1,0,-1
EndSplineSet
EndChar

StartChar: J
Encoding: 74 74 45
Width: 1234
VWidth: 3393
Flags: W
HStem: -30 267<294.981 646.638> 1234 259<353 713>
VStem: 713 294<308.726 1234>
LayerCount: 2
Fore
SplineSet
109 418 m 1,0,1
 282 237 282 237 489 237 c 0,2,3
 608 237 608 237 660.5 293.5 c 128,-1,4
 713 350 713 350 713 479 c 2,5,-1
 713 1234 l 1,6,-1
 353 1234 l 1,7,-1
 353 1493 l 1,8,-1
 1007 1493 l 1,9,-1
 1007 479 l 2,10,11
 1007 204 1007 204 893 88 c 0,12,13
 780 -30 780 -30 515 -30 c 0,14,15
 326 -30 326 -30 109 75 c 1,16,-1
 109 418 l 1,0,1
EndSplineSet
EndChar

StartChar: K
Encoding: 75 75 46
Width: 1234
VWidth: 3393
Flags: W
HStem: 0 21G<119 414 889.391 1225> 1473 20G<119 414 859.373 1208>
VStem: 119 295<0 505 903 1493>
LayerCount: 2
Fore
SplineSet
414 1493 m 1,0,-1
 414 903 l 1,1,-1
 875 1493 l 1,2,-1
 1208 1493 l 1,3,-1
 736 906 l 1,4,-1
 1225 0 l 1,5,-1
 900 0 l 1,6,-1
 543 673 l 1,7,-1
 414 505 l 1,8,-1
 414 0 l 1,9,-1
 119 0 l 1,10,-1
 119 1493 l 1,11,-1
 414 1493 l 1,0,-1
EndSplineSet
EndChar

StartChar: L
Encoding: 76 76 47
Width: 1234
VWidth: 3393
Flags: W
HStem: 0 262<519 1153> 1473 20G<224 519>
VStem: 224 295<262 1493>
LayerCount: 2
Fore
SplineSet
224 1493 m 1,0,-1
 519 1493 l 1,1,-1
 519 262 l 1,2,-1
 1153 262 l 1,3,-1
 1153 0 l 1,4,-1
 224 0 l 1,5,-1
 224 1493 l 1,0,-1
EndSplineSet
EndChar

StartChar: M
Encoding: 77 77 48
Width: 1234
VWidth: 3393
Flags: W
HStem: 0 21G<85 340 893 1147> 1473 20G<85 442.527 788.626 1147>
VStem: 85 255<0 1198> 893 254<0 1198>
LayerCount: 2
Fore
SplineSet
437 1493 m 1,0,-1
 618 838 l 1,1,-1
 794 1493 l 1,2,-1
 1147 1493 l 1,3,-1
 1147 0 l 1,4,-1
 893 0 l 1,5,-1
 893 1198 l 1,6,-1
 736 543 l 1,7,-1
 502 543 l 1,8,-1
 340 1198 l 1,9,-1
 340 0 l 1,10,-1
 85 0 l 1,11,-1
 85 1493 l 1,12,-1
 437 1493 l 1,0,-1
EndSplineSet
EndChar

StartChar: N
Encoding: 78 78 49
Width: 1234
VWidth: 3393
Flags: W
HStem: 0 21G<119 379 789.295 1114> 1473 20G<119 444.65 852 1114>
VStem: 119 260<0 1085> 852 262<408 1493>
LayerCount: 2
Fore
SplineSet
437 1493 m 1,0,-1
 852 408 l 1,1,-1
 852 1493 l 1,2,-1
 1114 1493 l 1,3,-1
 1114 0 l 1,4,-1
 797 0 l 1,5,-1
 379 1085 l 1,6,-1
 379 0 l 1,7,-1
 119 0 l 1,8,-1
 119 1493 l 1,9,-1
 437 1493 l 1,0,-1
EndSplineSet
EndChar

StartChar: O
Encoding: 79 79 50
Width: 1234
VWidth: 3393
Flags: W
HStem: -30 267<501.532 732.679> 1256 265<504.893 728.811>
VStem: 91 310<373.134 1121.11> 835 308<373.134 1121.11>
LayerCount: 2
Fore
SplineSet
618 1256 m 0,0,1
 502 1256 502 1256 451 1137 c 0,2,3
 401 1014 401 1014 401 747 c 256,4,5
 401 479 401 479 451 356 c 0,6,7
 502 237 502 237 618 237 c 0,8,9
 729 237 729 237 784 356 c 0,10,11
 835 479 835 479 835 747 c 256,12,13
 835 1014 835 1014 784 1137 c 0,14,15
 726 1256 726 1256 618 1256 c 0,0,1
91 747 m 0,16,17
 91 1521 91 1521 618 1521 c 256,18,19
 1143 1521 1143 1521 1143 747 c 0,20,21
 1143 363 1143 363 1010.5 166.5 c 128,-1,22
 878 -30 878 -30 618 -30 c 256,23,24
 356 -30 356 -30 223.5 166.5 c 128,-1,25
 91 363 91 363 91 747 c 0,16,17
EndSplineSet
EndChar

StartChar: P
Encoding: 80 80 51
Width: 1234
VWidth: 3393
Flags: W
HStem: 0 21G<162 457> 560 247<457 766.161> 1246 247<457 769.384>
VStem: 162 295<0 560 807 1246> 842 305<874.416 1180.79>
LayerCount: 2
Fore
SplineSet
457 807 m 1,0,-1
 580 807 l 2,1,2
 726 807 726 807 780 858 c 0,3,4
 842 906 842 906 842 1029 c 0,5,6
 842 1147 842 1147 780 1198 c 0,7,8
 729 1246 729 1246 580 1246 c 2,9,-1
 457 1246 l 1,10,-1
 457 807 l 1,0,-1
567 1493 m 2,11,12
 882 1493 882 1493 1011 1385 c 0,13,14
 1147 1273 1147 1273 1147 1029 c 0,15,16
 1147 780 1147 780 1011 668 c 0,17,18
 875 560 875 560 567 560 c 2,19,-1
 457 560 l 1,20,-1
 457 0 l 1,21,-1
 162 0 l 1,22,-1
 162 1493 l 1,23,-1
 567 1493 l 2,11,12
EndSplineSet
EndChar

StartChar: Q
Encoding: 81 81 52
Width: 1234
VWidth: 3393
Flags: W
HStem: -30 267<500.652 667.219> 1256 265<504.893 728.811>
VStem: 91 310<373.134 1121.11> 835 308<373.37 1121.11>
LayerCount: 2
Fore
SplineSet
658 -23 m 1,0,1
 641 -27 641 -27 633 -28.5 c 128,-1,2
 625 -30 625 -30 615 -30 c 0,3,4
 356 -30 356 -30 223.5 166.5 c 128,-1,5
 91 363 91 363 91 747 c 0,6,7
 91 1521 91 1521 618 1521 c 256,8,9
 1143 1521 1143 1521 1143 747 c 0,10,11
 1143 482 1143 482 1078.5 305.5 c 128,-1,12
 1014 129 1014 129 896 51 c 1,13,-1
 1082 -133 l 1,14,-1
 878 -282 l 1,15,-1
 658 -23 l 1,0,1
618 1256 m 0,16,17
 502 1256 502 1256 451 1137 c 0,18,19
 401 1014 401 1014 401 747 c 256,20,21
 401 479 401 479 451 356 c 0,22,23
 502 237 502 237 618 237 c 0,24,25
 729 237 729 237 784 356 c 0,26,27
 835 479 835 479 835 747 c 256,28,29
 835 1014 835 1014 784 1137 c 0,30,31
 726 1256 726 1256 618 1256 c 0,16,17
EndSplineSet
EndChar

StartChar: R
Encoding: 82 82 53
Width: 1234
VWidth: 3393
Flags: W
HStem: 0 21G<133 428 900.372 1234> 590 248<428 623.656> 1246 247<428 731.558>
VStem: 133 295<0 590 838 1246> 794 306<894.24 1190.24>
LayerCount: 2
Fore
SplineSet
807 706 m 1,0,1
 852 696 852 696 882 664 c 0,2,3
 920 628 920 628 964 537 c 2,4,-1
 1234 0 l 1,5,-1
 910 0 l 1,6,-1
 729 376 l 1,7,8
 722 401 722 401 709 421 c 0,9,10
 628 590 628 590 522 590 c 2,11,-1
 428 590 l 1,12,-1
 428 0 l 1,13,-1
 133 0 l 1,14,-1
 133 1493 l 1,15,-1
 560 1493 l 2,16,17
 848 1493 848 1493 974 1392 c 256,18,19
 1100 1289 1100 1289 1100 1059 c 0,20,21
 1100 906 1100 906 1024.5 814 c 128,-1,22
 949 722 949 722 807 706 c 1,0,1
428 838 m 1,23,-1
 567 838 l 2,24,25
 689 838 689 838 741.5 885.5 c 128,-1,26
 794 933 794 933 794 1042 c 256,27,28
 794 1150 794 1150 741.5 1198 c 128,-1,29
 689 1246 689 1246 567 1246 c 2,30,-1
 428 1246 l 1,31,-1
 428 838 l 1,23,-1
EndSplineSet
EndChar

StartChar: S
Encoding: 83 83 54
Width: 1234
VWidth: 3393
Flags: W
HStem: -30 244<354.756 742.858> 1140 21G<930.5 1029> 1276 245<470.555 860.264>
VStem: 129 289<1005.44 1223.85> 810 300<278.509 527.691>
LayerCount: 2
Fore
SplineSet
509 655 m 1,0,1
 285 739 285 739 207 835 c 256,2,3
 129 930 129 930 129 1085 c 0,4,5
 129 1286 129 1286 258 1405 c 0,6,7
 386 1521 386 1521 618 1521 c 0,8,9
 825 1521 825 1521 1029 1428 c 1,10,-1
 1029 1140 l 1,11,12
 832 1276 832 1276 641 1276 c 0,13,14
 418 1276 418 1276 418 1110 c 0,15,16
 418 1049 418 1049 457 1007 c 0,17,18
 499 971 499 971 635 920 c 2,19,-1
 761 872 l 2,20,21
 943 804 943 804 1026.5 695.5 c 128,-1,22
 1110 587 1110 587 1110 421 c 0,23,24
 1110 -30 1110 -30 573 -30 c 0,25,26
 353 -30 353 -30 136 75 c 1,27,-1
 136 379 l 1,28,29
 366 214 366 214 583 214 c 0,30,31
 693 214 693 214 751.5 264.5 c 128,-1,32
 810 315 810 315 810 404 c 0,33,34
 810 540 810 540 655 600 c 2,35,-1
 509 655 l 1,0,1
EndSplineSet
EndChar

StartChar: T
Encoding: 84 84 55
Width: 1234
VWidth: 3393
Flags: W
HStem: 0 21G<469 764> 1234 259<91 469 764 1143>
VStem: 469 295<0 1234>
LayerCount: 2
Fore
SplineSet
469 0 m 1,0,-1
 469 1234 l 1,1,-1
 91 1234 l 1,2,-1
 91 1493 l 1,3,-1
 1143 1493 l 1,4,-1
 1143 1234 l 1,5,-1
 764 1234 l 1,6,-1
 764 0 l 1,7,-1
 469 0 l 1,0,-1
EndSplineSet
EndChar

StartChar: U
Encoding: 85 85 56
Width: 1234
VWidth: 3393
Flags: W
HStem: -30 267<478.836 752.278> 1473 20G<104 401 832 1127>
VStem: 104 297<318.391 1493> 832 295<318.391 1493>
LayerCount: 2
Fore
SplineSet
104 1493 m 1,0,-1
 401 1493 l 1,1,-1
 401 479 l 2,2,3
 401 366 401 366 458 301.5 c 128,-1,4
 515 237 515 237 618 237 c 256,5,6
 719 237 719 237 775.5 301.5 c 128,-1,7
 832 366 832 366 832 479 c 2,8,-1
 832 1493 l 1,9,-1
 1127 1493 l 1,10,-1
 1127 553 l 2,11,12
 1127 249 1127 249 1004 109 c 0,13,14
 886 -30 886 -30 618 -30 c 256,15,16
 350 -30 350 -30 227 109 c 256,17,18
 104 249 104 249 104 553 c 2,19,-1
 104 1493 l 1,0,-1
EndSplineSet
EndChar

StartChar: V
Encoding: 86 86 57
Width: 1234
VWidth: 3393
Flags: W
HStem: 0 21G<409.231 826.769> 1473 20G<58 357.26 873.82 1178>
LayerCount: 2
Fore
SplineSet
878 1493 m 1,0,-1
 1178 1493 l 1,1,-1
 822 0 l 1,2,-1
 414 0 l 1,3,-1
 58 1493 l 1,4,-1
 353 1493 l 1,5,-1
 618 249 l 1,6,-1
 878 1493 l 1,0,-1
EndSplineSet
EndChar

StartChar: W
Encoding: 87 87 58
Width: 1234
VWidth: 3393
Flags: W
HStem: 0 21G<181.535 461.107 782.689 1064.3> 1473 20G<0 259.973 972.466 1234>
LayerCount: 2
Fore
SplineSet
258 1493 m 1,0,-1
 366 398 l 1,1,-1
 495 1107 l 1,2,-1
 739 1107 l 1,3,-1
 890 398 l 1,4,-1
 974 1493 l 1,5,-1
 1234 1493 l 1,6,-1
 1062 0 l 1,7,-1
 787 0 l 1,8,-1
 618 784 l 1,9,-1
 457 0 l 1,10,-1
 184 0 l 1,11,-1
 0 1493 l 1,12,-1
 258 1493 l 1,0,-1
EndSplineSet
EndChar

StartChar: X
Encoding: 88 88 59
Width: 1234
VWidth: 3393
Flags: W
HStem: 0 21G<27 344.515 891.485 1208> 1473 20G<41 354.555 878.571 1195>
LayerCount: 2
Fore
SplineSet
903 0 m 1,0,-1
 618 495 l 1,1,-1
 333 0 l 1,2,-1
 27 0 l 1,3,-1
 466 761 l 1,4,-1
 41 1493 l 1,5,-1
 343 1493 l 1,6,-1
 618 1017 l 1,7,-1
 890 1493 l 1,8,-1
 1195 1493 l 1,9,-1
 771 761 l 1,10,-1
 1208 0 l 1,11,-1
 903 0 l 1,0,-1
EndSplineSet
EndChar

StartChar: Y
Encoding: 89 89 60
Width: 1234
VWidth: 3393
Flags: W
HStem: 0 21G<469 764> 1473 20G<7 335.733 900.267 1225>
VStem: 469 295<0 587>
LayerCount: 2
Fore
SplineSet
326 1493 m 1,0,-1
 618 893 l 1,1,-1
 910 1493 l 1,2,-1
 1225 1493 l 1,3,-1
 764 587 l 1,4,-1
 764 0 l 1,5,-1
 469 0 l 1,6,-1
 469 587 l 1,7,-1
 7 1493 l 1,8,-1
 326 1493 l 1,0,-1
EndSplineSet
EndChar

StartChar: Z
Encoding: 90 90 61
Width: 1234
VWidth: 3393
Flags: W
HStem: 0 262<454 1160> 1234 259<136 787>
LayerCount: 2
Fore
SplineSet
1147 1493 m 1,0,-1
 1147 1249 l 1,1,-1
 454 262 l 1,2,-1
 1160 262 l 1,3,-1
 1160 0 l 1,4,-1
 116 0 l 1,5,-1
 116 244 l 1,6,-1
 787 1234 l 1,7,-1
 136 1234 l 1,8,-1
 136 1493 l 1,9,-1
 1147 1493 l 1,0,-1
EndSplineSet
EndChar

StartChar: bracketleft
Encoding: 91 91 62
Width: 1234
VWidth: 3393
Flags: W
HStem: -272 191<689 930> 1367 191<689 930>
VStem: 421 268<-81 1367>
LayerCount: 2
Fore
SplineSet
930 1558 m 1,0,-1
 930 1367 l 1,1,-1
 689 1367 l 1,2,-1
 689 -81 l 1,3,-1
 930 -81 l 1,4,-1
 930 -272 l 1,5,-1
 421 -272 l 1,6,-1
 421 1558 l 1,7,-1
 930 1558 l 1,0,-1
EndSplineSet
EndChar

StartChar: backslash
Encoding: 92 92 63
Width: 1234
VWidth: 3393
Flags: W
HStem: 1473 20G<113 345.311>
VStem: 113 1007<-191 1493 1493 1493>
LayerCount: 2
Fore
SplineSet
1120 -191 m 1,0,-1
 900 -191 l 1,1,-1
 113 1493 l 1,2,-1
 336 1493 l 1,3,-1
 1120 -191 l 1,0,-1
EndSplineSet
EndChar

StartChar: bracketright
Encoding: 93 93 64
Width: 1234
VWidth: 3393
Flags: W
HStem: -272 191<302 547> 1367 191<302 547>
VStem: 547 263<-81 1367>
LayerCount: 2
Fore
SplineSet
810 -272 m 1,0,-1
 302 -272 l 1,1,-1
 302 -81 l 1,2,-1
 547 -81 l 1,3,-1
 547 1367 l 1,4,-1
 302 1367 l 1,5,-1
 302 1558 l 1,6,-1
 810 1558 l 1,7,-1
 810 -272 l 1,0,-1
EndSplineSet
EndChar

StartChar: asciicircum
Encoding: 94 94 65
Width: 1234
VWidth: 3393
Flags: W
HStem: 936 557<495 1178 495 495>
LayerCount: 2
Fore
SplineSet
1178 936 m 1,0,-1
 936 936 l 1,1,-1
 618 1239 l 1,2,-1
 298 936 l 1,3,-1
 58 936 l 1,4,-1
 495 1493 l 1,5,-1
 739 1493 l 1,6,-1
 1178 936 l 1,0,-1
EndSplineSet
EndChar

StartChar: underscore
Encoding: 95 95 66
Width: 1234
VWidth: 3393
Flags: W
HStem: -482 190<0 1234>
VStem: 0 1234<-482 -292 -482 -292 -482 -482>
LayerCount: 2
Fore
SplineSet
1234 -482 m 1,0,-1
 0 -482 l 1,1,-1
 0 -292 l 1,2,-1
 1234 -292 l 1,3,-1
 1234 -482 l 1,0,-1
EndSplineSet
EndChar

StartChar: grave
Encoding: 96 96 67
Width: 1234
VWidth: 3393
Flags: W
HStem: 1263 376<200 764 200 200>
LayerCount: 2
Fore
SplineSet
764 1263 m 1,0,-1
 567 1263 l 1,1,-1
 200 1639 l 1,2,-1
 482 1639 l 1,3,-1
 764 1263 l 1,0,-1
EndSplineSet
EndChar

StartChar: a
Encoding: 97 97 68
Width: 1234
VWidth: 3393
Flags: W
HStem: -30 202<456.232 682.545> 525 211<474.148 819> 930 217<429.27 777.301>
VStem: 94 314<219.55 467.85> 819 291<0 126 290.424 505 505 525 736 889.177>
LayerCount: 2
Fore
SplineSet
703 525 m 1,0,1
 540 525 540 525 472 486 c 0,2,3
 408 444 408 444 408 340 c 0,4,5
 408 265 408 265 451.5 218.5 c 128,-1,6
 495 172 495 172 573 172 c 0,7,8
 693 172 693 172 756 261 c 128,-1,9
 819 350 819 350 819 505 c 2,10,-1
 819 525 l 1,11,-1
 703 525 l 1,0,1
1110 0 m 1,12,-1
 819 0 l 1,13,-1
 819 126 l 1,14,15
 764 51 764 51 680.5 10.5 c 128,-1,16
 597 -30 597 -30 499 -30 c 0,17,18
 308 -30 308 -30 200 71 c 0,19,20
 94 172 94 172 94 353 c 0,21,22
 94 550 94 550 220 643 c 128,-1,23
 346 736 346 736 615 736 c 2,24,-1
 819 736 l 1,25,-1
 819 787 l 2,26,27
 819 930 819 930 615 930 c 0,28,29
 509 930 509 930 410.5 904 c 128,-1,30
 312 878 312 878 204 822 c 1,31,-1
 204 1069 l 1,32,33
 394 1147 394 1147 615 1147 c 0,34,35
 890 1147 890 1147 998 1039 c 0,36,37
 1110 926 1110 926 1110 641 c 2,38,-1
 1110 0 l 1,12,-1
EndSplineSet
Substitution2: "Single Substitution lookup 22 subtable" uni0E38
Substitution2: "Single Substitution lookup 22 subtable" uni0E38
EndChar

StartChar: b
Encoding: 98 98 69
Width: 1234
VWidth: 3393
Flags: W
HStem: -30 240<570.68 758.571> 903 244<572.911 759.699> 1538 20G<149 441>
VStem: 149 292<0 166 326.984 785.484 961 1558> 852 291<321.285 792.9>
LayerCount: 2
Fore
SplineSet
852 557 m 256,0,1
 852 719 852 719 798 811 c 128,-1,2
 744 903 744 903 648 903 c 0,3,4
 557 903 557 903 499 810 c 0,5,6
 441 716 441 716 441 557 c 256,7,8
 441 398 441 398 499 302 c 0,9,10
 557 210 557 210 648 210 c 0,11,12
 744 210 744 210 798 302 c 128,-1,13
 852 394 852 394 852 557 c 256,0,1
441 961 m 1,14,15
 553 1147 553 1147 729 1147 c 0,16,17
 926 1147 926 1147 1036 998 c 256,18,19
 1143 848 1143 848 1143 560 c 0,20,21
 1143 275 1143 275 1039 126 c 0,22,23
 933 -30 933 -30 739 -30 c 0,24,25
 534 -30 534 -30 441 166 c 1,26,-1
 441 0 l 1,27,-1
 149 0 l 1,28,-1
 149 1558 l 1,29,-1
 441 1558 l 1,30,-1
 441 961 l 1,14,15
EndSplineSet
Substitution2: "Single Substitution lookup 22 subtable" uni0E39
Substitution2: "Single Substitution lookup 22 subtable" uni0E39
EndChar

StartChar: c
Encoding: 99 99 70
Width: 1234
VWidth: 3393
Flags: W
HStem: -30 240<595.335 954.68> 910 240<596.178 957.844>
VStem: 169 297<347.192 772.808> 169 893<282 326 797 838>
LayerCount: 2
Fore
SplineSet
1062 58 m 1,0,1
 913 -30 913 -30 719 -30 c 0,2,3
 462 -30 462 -30 315 126 c 256,4,5
 169 282 169 282 169 560 c 256,6,7
 169 838 169 838 315 994 c 256,8,9
 462 1150 462 1150 722 1150 c 0,10,11
 896 1150 896 1150 1062 1065 c 1,12,-1
 1062 797 l 1,13,14
 930 910 930 910 764 910 c 0,15,16
 618 910 618 910 542 819.5 c 128,-1,17
 466 729 466 729 466 560 c 256,18,19
 466 391 466 391 542 300.5 c 128,-1,20
 618 210 618 210 764 210 c 0,21,22
 933 210 933 210 1062 326 c 1,23,-1
 1062 58 l 1,0,1
EndSplineSet
Substitution2: "Single Substitution lookup 22 subtable" uni0E3A
Substitution2: "Single Substitution lookup 22 subtable" uni0E3A
EndChar

StartChar: d
Encoding: 100 100 71
Width: 1234
VWidth: 3393
Flags: W
HStem: -30 240<475.31 662.095> 903 244<473.916 662.524> 1538 20G<790 1082>
VStem: 91 292<319.752 794.432> 790 292<0 166 319.364 792.823 961 1558>
LayerCount: 2
Fore
SplineSet
790 1558 m 1,0,-1
 1082 1558 l 1,1,-1
 1082 0 l 1,2,-1
 790 0 l 1,3,-1
 790 166 l 1,4,5
 699 -30 699 -30 495 -30 c 0,6,7
 302 -30 302 -30 197 126 c 0,8,9
 91 275 91 275 91 560 c 0,10,11
 91 848 91 848 197 998 c 0,12,13
 305 1147 305 1147 505 1147 c 0,14,15
 686 1147 686 1147 790 961 c 1,16,-1
 790 1558 l 1,0,-1
383 557 m 256,17,18
 383 394 383 394 436 302 c 128,-1,19
 489 210 489 210 587 210 c 0,20,21
 683 210 683 210 736 302 c 0,22,23
 790 391 790 391 790 557 c 256,24,25
 790 722 790 722 736 810 c 0,26,27
 683 903 683 903 587 903 c 0,28,29
 489 903 489 903 436 811 c 128,-1,30
 383 719 383 719 383 557 c 256,17,18
EndSplineSet
EndChar

StartChar: e
Encoding: 101 101 72
Width: 1234
VWidth: 3393
Flags: W
HStem: -30 234<499.629 847.477> 466 220<394 855> 920 227<484.852 778.769>
VStem: 91 300<306.344 466 686 822.192>
LayerCount: 2
Fore
SplineSet
1104 55 m 1,0,1
 1001 13 1001 13 895.5 -8.5 c 128,-1,2
 790 -30 790 -30 673 -30 c 0,3,4
 386 -30 386 -30 238.5 121 c 128,-1,5
 91 272 91 272 91 557 c 0,6,7
 91 832 91 832 234 988 c 0,8,9
 373 1147 373 1147 625 1147 c 256,10,11
 875 1147 875 1147 1011 1001 c 0,12,13
 1150 852 1150 852 1150 583 c 2,14,-1
 1150 466 l 1,15,-1
 391 466 l 1,16,17
 391 204 391 204 699 204 c 0,18,19
 800 204 800 204 897 233 c 128,-1,20
 994 262 994 262 1104 326 c 1,21,-1
 1104 55 l 1,0,1
855 686 m 1,22,23
 852 920 852 920 625 920 c 0,24,25
 525 920 525 920 464.5 858.5 c 128,-1,26
 404 797 404 797 394 686 c 1,27,-1
 855 686 l 1,22,23
EndSplineSet
EndChar

StartChar: f
Encoding: 102 102 73
Width: 1234
VWidth: 3393
Flags: W
HStem: 0 21G<447 739> 896 224<172 447 739 1082> 1334 224<764.945 1082>
VStem: 447 292<0 896 1120 1309.99>
LayerCount: 2
Fore
SplineSet
739 1120 m 1,0,-1
 1082 1120 l 1,1,-1
 1082 896 l 1,2,-1
 739 896 l 1,3,-1
 739 0 l 1,4,-1
 447 0 l 1,5,-1
 447 896 l 1,6,-1
 172 896 l 1,7,-1
 172 1120 l 1,8,-1
 447 1120 l 1,9,-1
 447 1198 l 2,10,11
 447 1405 447 1405 529 1480 c 0,12,13
 618 1558 618 1558 842 1558 c 2,14,-1
 1082 1558 l 1,15,-1
 1082 1334 l 1,16,-1
 855 1334 l 2,17,18
 794 1334 794 1334 764 1311 c 1,19,20
 739 1279 739 1279 739 1218 c 2,21,-1
 739 1120 l 1,0,-1
EndSplineSet
EndChar

StartChar: g
Encoding: 103 103 74
Width: 1234
VWidth: 3393
Flags: W
HStem: -424 233<316.195 720.983> 13 236<483.292 698.284> 910 240<484.958 684.242>
VStem: 98 293<358.638 798.521> 804 293<-109.137 172 360.594 795.578 978 1120>
LayerCount: 2
Fore
SplineSet
804 580 m 256,0,1
 804 729 804 729 747 819 c 0,2,3
 693 910 693 910 597 910 c 0,4,5
 505 910 505 910 447 822 c 0,6,7
 391 726 391 726 391 580 c 0,8,9
 391 431 391 431 447 336 c 0,10,11
 502 249 502 249 597 249 c 256,12,13
 693 249 693 249 747 336 c 0,14,15
 804 431 804 431 804 580 c 256,0,1
1097 85 m 1,16,17
 1097 -184 1097 -184 974 -305 c 0,18,19
 848 -424 848 -424 580 -424 c 0,20,21
 398 -424 398 -424 214 -370 c 1,22,-1
 214 -101 l 1,23,24
 383 -191 383 -191 560 -191 c 0,25,26
 804 -191 804 -191 804 51 c 2,27,-1
 804 172 l 1,28,29
 719 13 719 13 515 13 c 0,30,31
 323 13 323 13 210 162 c 0,32,33
 98 315 98 315 98 570 c 0,34,35
 98 838 98 838 210 994 c 256,36,37
 323 1150 323 1150 515 1150 c 0,38,39
 611 1150 611 1150 686 1104.5 c 128,-1,40
 761 1059 761 1059 804 978 c 1,41,-1
 804 1120 l 1,42,-1
 1097 1120 l 1,43,-1
 1097 85 l 1,16,17
EndSplineSet
EndChar

StartChar: h
Encoding: 104 104 75
Width: 1234
VWidth: 3393
Flags: W
HStem: 0 21G<172 466 780 1072> 910 237<579.205 906.497> 1538 20G<172 466>
VStem: 172 294<0 836.252 953 1558> 780 292<0 855.327>
LayerCount: 2
Fore
SplineSet
1072 0 m 1,0,-1
 780 0 l 1,1,-1
 780 683 l 2,2,3
 780 804 780 804 746.5 857 c 128,-1,4
 713 910 713 910 635 910 c 0,5,6
 553 910 553 910 509.5 838.5 c 128,-1,7
 466 767 466 767 466 641 c 2,8,-1
 466 0 l 1,9,-1
 172 0 l 1,10,-1
 172 1558 l 1,11,-1
 466 1558 l 1,12,-1
 466 953 l 1,13,14
 495 1046 495 1046 570 1096.5 c 128,-1,15
 645 1147 645 1147 751 1147 c 0,16,17
 1072 1147 1072 1147 1072 726 c 2,18,-1
 1072 0 l 1,0,-1
EndSplineSet
EndChar

StartChar: i
Encoding: 105 105 76
Width: 1234
VWidth: 3393
Flags: W
HStem: 0 224<143 509 800 1168> 896 224<220 509> 1324 343<509 800>
VStem: 509 291<224 896 1324 1667>
LayerCount: 2
Fore
SplineSet
800 1120 m 1,0,-1
 800 224 l 1,1,-1
 1168 224 l 1,2,-1
 1168 0 l 1,3,-1
 143 0 l 1,4,-1
 143 224 l 1,5,-1
 509 224 l 1,6,-1
 509 896 l 1,7,-1
 220 896 l 1,8,-1
 220 1120 l 1,9,-1
 800 1120 l 1,0,-1
800 1667 m 1,10,-1
 800 1324 l 1,11,-1
 509 1324 l 1,12,-1
 509 1667 l 1,13,-1
 800 1667 l 1,10,-1
EndSplineSet
EndChar

StartChar: j
Encoding: 106 106 77
Width: 1234
VWidth: 3393
Flags: W
HStem: -424 224<143 501.745> 896 224<262 557> 1324 343<557 852>
VStem: 557 295<-141.354 896 1324 1667>
LayerCount: 2
Fore
SplineSet
852 45 m 1,0,1
 852 -210 852 -210 761 -315 c 0,2,3
 668 -424 668 -424 457 -424 c 2,4,-1
 143 -424 l 1,5,-1
 143 -200 l 1,6,-1
 376 -200 l 2,7,8
 476 -200 476 -200 515 -143 c 0,9,10
 557 -91 557 -91 557 45 c 2,11,-1
 557 896 l 1,12,-1
 262 896 l 1,13,-1
 262 1120 l 1,14,-1
 852 1120 l 1,15,-1
 852 45 l 1,0,1
557 1324 m 1,16,-1
 557 1667 l 1,17,-1
 852 1667 l 1,18,-1
 852 1324 l 1,19,-1
 557 1324 l 1,16,-1
EndSplineSet
EndChar

StartChar: k
Encoding: 107 107 78
Width: 1234
VWidth: 3393
Flags: W
HStem: 0 21G<172 469 863.267 1198> 1100 20G<803.47 1175> 1538 20G<172 469>
VStem: 172 297<0 428 739 1558>
LayerCount: 2
Fore
SplineSet
469 1558 m 1,0,-1
 469 739 l 1,1,-1
 822 1120 l 1,2,-1
 1175 1120 l 1,3,-1
 751 703 l 1,4,-1
 1198 0 l 1,5,-1
 875 0 l 1,6,-1
 567 525 l 1,7,-1
 469 428 l 1,8,-1
 469 0 l 1,9,-1
 172 0 l 1,10,-1
 172 1558 l 1,11,-1
 469 1558 l 1,0,-1
EndSplineSet
EndChar

StartChar: l
Encoding: 108 108 79
Width: 1234
VWidth: 3393
Flags: W
HStem: 0 224<735.486 780 780 1097> 1334 224<91 386>
VStem: 386 297<283.83 1334>
LayerCount: 2
Fore
SplineSet
386 1334 m 1,0,-1
 91 1334 l 1,1,-1
 91 1558 l 1,2,-1
 683 1558 l 1,3,-1
 683 469 l 2,4,5
 683 340 683 340 722 282 c 256,6,7
 764 224 764 224 862 224 c 2,8,-1
 1097 224 l 1,9,-1
 1097 0 l 1,10,-1
 780 0 l 2,11,12
 570 0 570 0 479 109 c 256,13,14
 386 217 386 217 386 469 c 2,15,-1
 386 1334 l 1,0,-1
EndSplineSet
EndChar

StartChar: m
Encoding: 109 109 80
Width: 1234
VWidth: 3393
Flags: W
HStem: 0 21G<81 323 502 736 916 1157> 930 217<373.132 525.684 763.68 970.669>
VStem: 81 214<1004 1120> 81 242<0 884.698> 502 234<0 719 719 821.167> 916 241<0 884.698>
LayerCount: 2
Fore
SplineSet
693 1007 m 1,0,1
 757 1147 757 1147 900 1147 c 0,2,3
 1046 1147 1046 1147 1100 1049 c 0,4,5
 1157 943 1157 943 1157 631 c 2,6,-1
 1157 0 l 1,7,-1
 916 0 l 1,8,-1
 916 719 l 2,9,10
 916 845 916 845 896 886 c 0,11,12
 875 930 875 930 828 930 c 0,13,14
 777 930 777 930 757 886 c 0,15,16
 736 845 736 845 736 719 c 2,17,-1
 736 0 l 1,18,-1
 502 0 l 1,19,-1
 502 719 l 2,20,21
 502 780 502 780 495.5 822.5 c 128,-1,22
 489 865 489 865 482 886 c 0,23,24
 462 930 462 930 411 930 c 0,25,26
 356 930 356 930 343 886 c 1,27,28
 323 845 323 845 323 719 c 2,29,-1
 323 0 l 1,30,-1
 81 0 l 1,31,-1
 81 1120 l 1,32,-1
 295 1120 l 1,33,-1
 295 1004 l 1,34,35
 323 1072 323 1072 377 1109.5 c 128,-1,36
 431 1147 431 1147 499 1147 c 0,37,38
 570 1147 570 1147 621 1107 c 0,39,40
 679 1065 679 1065 693 1007 c 1,0,1
EndSplineSet
EndChar

StartChar: n
Encoding: 110 110 81
Width: 1234
VWidth: 3393
Flags: W
HStem: 0 21G<172 466 780 1072> 910 237<579.259 906.497>
VStem: 172 294<0 838.313 953 1120> 780 292<0 855.327>
LayerCount: 2
Fore
SplineSet
1072 0 m 1,0,-1
 780 0 l 1,1,-1
 780 683 l 2,2,3
 780 804 780 804 746.5 857 c 128,-1,4
 713 910 713 910 635 910 c 256,5,6
 557 910 557 910 511.5 840.5 c 128,-1,7
 466 771 466 771 466 641 c 2,8,-1
 466 0 l 1,9,-1
 172 0 l 1,10,-1
 172 1120 l 1,11,-1
 466 1120 l 1,12,-1
 466 953 l 1,13,14
 495 1046 495 1046 570 1096.5 c 128,-1,15
 645 1147 645 1147 751 1147 c 0,16,17
 1072 1147 1072 1147 1072 726 c 2,18,-1
 1072 0 l 1,0,-1
EndSplineSet
EndChar

StartChar: o
Encoding: 111 111 82
Width: 1234
VWidth: 3393
Flags: W
HStem: -30 240<491.497 738.597> 910 237<490.89 739.183>
VStem: 98 293<329.584 789.091> 842 295<329.584 790.087>
LayerCount: 2
Fore
SplineSet
618 910 m 0,0,1
 509 910 509 910 450 818 c 128,-1,2
 391 726 391 726 391 560 c 256,3,4
 391 394 391 394 450 302 c 128,-1,5
 509 210 509 210 618 210 c 0,6,7
 722 210 722 210 782 302 c 128,-1,8
 842 394 842 394 842 560 c 256,9,10
 842 726 842 726 782 818 c 128,-1,11
 722 910 722 910 618 910 c 0,0,1
98 560 m 0,12,13
 98 828 98 828 237 988 c 256,14,15
 376 1147 376 1147 618 1147 c 256,16,17
 858 1147 858 1147 994 988 c 0,18,19
 1137 832 1137 832 1137 560 c 256,20,21
 1137 288 1137 288 994 129 c 0,22,23
 855 -30 855 -30 618 -30 c 256,24,25
 379 -30 379 -30 237 129 c 0,26,27
 98 288 98 288 98 560 c 0,12,13
EndSplineSet
EndChar

StartChar: p
Encoding: 112 112 83
Width: 1234
VWidth: 3393
Flags: W
HStem: -428 21G<149 441> -30 244<574.104 759.987> 910 237<569.504 758.571>
VStem: 149 292<-428 159 332.938 790.016 953 1120> 852 291<325.703 797.541>
LayerCount: 2
Fore
SplineSet
441 -428 m 1,0,-1
 149 -428 l 1,1,-1
 149 1120 l 1,2,-1
 441 1120 l 1,3,-1
 441 953 l 1,4,5
 534 1147 534 1147 739 1147 c 0,6,7
 933 1147 933 1147 1039 994 c 0,8,9
 1143 845 1143 845 1143 560 c 0,10,11
 1143 272 1143 272 1036 123 c 0,12,13
 930 -30 930 -30 729 -30 c 0,14,15
 553 -30 553 -30 441 159 c 1,16,-1
 441 -428 l 1,0,-1
852 560 m 256,17,18
 852 722 852 722 798 816 c 128,-1,19
 744 910 744 910 648 910 c 0,20,21
 557 910 557 910 499 815 c 256,22,23
 441 719 441 719 441 560 c 0,24,25
 441 404 441 404 499 308 c 256,26,27
 557 214 557 214 648 214 c 0,28,29
 744 214 744 214 798 306 c 128,-1,30
 852 398 852 398 852 560 c 256,17,18
EndSplineSet
EndChar

StartChar: q
Encoding: 113 113 84
Width: 1234
VWidth: 3393
Flags: W
HStem: -428 21G<790 1082> -30 244<473.916 660.79> 910 237<475.444 662.305>
VStem: 91 292<324.171 799.101> 790 292<-428 159 325.508 797.636 953 1120>
LayerCount: 2
Fore
SplineSet
383 560 m 256,0,1
 383 398 383 398 436 306 c 128,-1,2
 489 214 489 214 587 214 c 0,3,4
 679 214 679 214 736 308 c 0,5,6
 790 398 790 398 790 560 c 0,7,8
 790 726 790 726 736 815 c 0,9,10
 679 910 679 910 587 910 c 0,11,12
 489 910 489 910 436 816 c 128,-1,13
 383 722 383 722 383 560 c 256,0,1
790 159 m 1,14,15
 683 -30 683 -30 505 -30 c 0,16,17
 305 -30 305 -30 197 123 c 0,18,19
 91 272 91 272 91 560 c 0,20,21
 91 845 91 845 197 994 c 0,22,23
 305 1147 305 1147 495 1147 c 0,24,25
 699 1147 699 1147 790 953 c 1,26,-1
 790 1120 l 1,27,-1
 1082 1120 l 1,28,-1
 1082 -428 l 1,29,-1
 790 -428 l 1,30,-1
 790 159 l 1,14,15
EndSplineSet
EndChar

StartChar: r
Encoding: 114 114 85
Width: 1234
VWidth: 3393
Flags: W
HStem: 0 21G<292 583> 900 247<729.791 1040.87>
VStem: 292 291<0 664.396 946 1120>
LayerCount: 2
Fore
SplineSet
1153 810 m 1,0,1
 1107 858 1107 858 1042.5 879 c 128,-1,2
 978 900 978 900 900 900 c 0,3,4
 706 900 706 900 628 774 c 0,5,6
 605 736 605 736 593 683 c 256,7,8
 583 628 583 628 583 515 c 2,9,-1
 583 0 l 1,10,-1
 292 0 l 1,11,-1
 292 1120 l 1,12,-1
 583 1120 l 1,13,-1
 583 946 l 1,14,15
 628 1046 628 1046 717.5 1096.5 c 128,-1,16
 807 1147 807 1147 926 1147 c 0,17,18
 1039 1147 1039 1147 1153 1092 c 1,19,-1
 1153 810 l 1,0,1
EndSplineSet
EndChar

StartChar: s
Encoding: 115 115 86
Width: 1234
VWidth: 3393
Flags: W
HStem: -30 214<340.117 758.033> 936 211<475.364 873.73>
VStem: 172 275<757.858 903.796> 790 279<219.23 388.28>
LayerCount: 2
Fore
SplineSet
991 832 m 1,0,1
 822 936 822 936 648 936 c 0,2,3
 447 936 447 936 447 822 c 0,4,5
 447 744 447 744 664 693 c 2,6,-1
 676 689 l 1,7,-1
 761 668 l 2,8,9
 920 631 920 631 994.5 546.5 c 128,-1,10
 1069 462 1069 462 1069 320 c 0,11,12
 1069 -30 1069 -30 615 -30 c 0,13,14
 411 -30 411 -30 191 41 c 1,15,-1
 191 298 l 1,16,17
 391 184 391 184 583 184 c 0,18,19
 790 184 790 184 790 302 c 0,20,21
 790 360 790 360 754 386 c 0,22,23
 722 414 722 414 577 451 c 2,24,-1
 495 469 l 2,25,26
 326 505 326 505 249 586.5 c 128,-1,27
 172 668 172 668 172 804 c 0,28,29
 172 968 172 968 288 1059 c 0,30,31
 401 1147 401 1147 618 1147 c 0,32,33
 815 1147 815 1147 991 1085 c 1,34,-1
 991 832 l 1,0,1
EndSplineSet
EndChar

StartChar: t
Encoding: 116 116 87
Width: 1234
VWidth: 3393
Flags: W
HStem: 0 224<729.621 1075> 896 224<113 398 693 1075>
VStem: 398 295<257.011 896 1120 1438>
LayerCount: 2
Fore
SplineSet
693 1120 m 1,0,-1
 1075 1120 l 1,1,-1
 1075 896 l 1,2,-1
 693 896 l 1,3,-1
 693 366 l 2,4,5
 693 288 693 288 728.5 256 c 128,-1,6
 764 224 764 224 848 224 c 2,7,-1
 1075 224 l 1,8,-1
 1075 0 l 1,9,-1
 828 0 l 2,10,11
 577 0 577 0 486 81 c 0,12,13
 398 162 398 162 398 379 c 2,14,-1
 398 896 l 1,15,-1
 113 896 l 1,16,-1
 113 1120 l 1,17,-1
 398 1120 l 1,18,-1
 398 1438 l 1,19,-1
 693 1438 l 1,20,-1
 693 1120 l 1,0,-1
EndSplineSet
EndChar

StartChar: u
Encoding: 117 117 88
Width: 1234
VWidth: 3393
Flags: W
HStem: -30 240<326.291 657.155> 1100 20G<159 454 771 1062>
VStem: 159 295<264.158 1120> 771 291<0 166 282.202 479 479 1120>
LayerCount: 2
Fore
SplineSet
159 1120 m 1,0,-1
 454 1120 l 1,1,-1
 454 437 l 2,2,3
 454 315 454 315 488 262.5 c 128,-1,4
 522 210 522 210 600 210 c 256,5,6
 679 210 679 210 725 280 c 128,-1,7
 771 350 771 350 771 479 c 2,8,-1
 771 1120 l 1,9,-1
 1062 1120 l 1,10,-1
 1062 0 l 1,11,-1
 771 0 l 1,12,-1
 771 166 l 1,13,14
 703 -30 703 -30 482 -30 c 0,15,16
 159 -30 159 -30 159 391 c 2,17,-1
 159 1120 l 1,0,-1
EndSplineSet
EndChar

StartChar: v
Encoding: 118 118 89
Width: 1234
VWidth: 3393
Flags: W
HStem: 0 21G<430.643 803.357> 1100 20G<81 381.557 852.489 1153>
LayerCount: 2
Fore
SplineSet
797 0 m 1,0,-1
 437 0 l 1,1,-1
 81 1120 l 1,2,-1
 376 1120 l 1,3,-1
 618 249 l 1,4,-1
 858 1120 l 1,5,-1
 1153 1120 l 1,6,-1
 797 0 l 1,0,-1
EndSplineSet
EndChar

StartChar: w
Encoding: 119 119 90
Width: 1234
VWidth: 3393
Flags: W
HStem: 0 21G<200.357 486.666 749.334 1035.61> 1100 20G<0 247.077 987.83 1234>
LayerCount: 2
Fore
SplineSet
244 1120 m 1,0,-1
 376 262 l 1,1,-1
 499 828 l 1,2,-1
 736 828 l 1,3,-1
 855 262 l 1,4,-1
 991 1120 l 1,5,-1
 1234 1120 l 1,6,-1
 1032 0 l 1,7,-1
 754 0 l 1,8,-1
 618 583 l 1,9,-1
 482 0 l 1,10,-1
 204 0 l 1,11,-1
 0 1120 l 1,12,-1
 244 1120 l 1,0,-1
EndSplineSet
EndChar

StartChar: x
Encoding: 120 120 91
Width: 1234
VWidth: 3393
Flags: W
HStem: 0 21G<55 409.702 826.298 1181> 1100 20G<88 442.231 792.829 1147>
LayerCount: 2
Fore
SplineSet
771 583 m 1,0,-1
 1181 0 l 1,1,-1
 838 0 l 1,2,-1
 618 376 l 1,3,-1
 398 0 l 1,4,-1
 55 0 l 1,5,-1
 469 583 l 1,6,-1
 88 1120 l 1,7,-1
 431 1120 l 1,8,-1
 618 787 l 1,9,-1
 804 1120 l 1,10,-1
 1147 1120 l 1,11,-1
 771 583 l 1,0,-1
EndSplineSet
EndChar

StartChar: y
Encoding: 121 121 92
Width: 1234
VWidth: 3393
Flags: W
HStem: -424 224<126 377.646> 1100 20G<58 373.135 861.306 1178>
LayerCount: 2
Fore
SplineSet
713 -123 m 1,0,1
 651 -282 651 -282 570 -353 c 128,-1,2
 489 -424 489 -424 370 -424 c 2,3,-1
 126 -424 l 1,4,-1
 126 -200 l 1,5,-1
 249 -200 l 2,6,7
 336 -200 336 -200 379 -169 c 0,8,9
 418 -143 418 -143 466 -30 c 2,10,-1
 486 30 l 1,11,-1
 58 1120 l 1,12,-1
 366 1120 l 1,13,-1
 625 394 l 1,14,-1
 868 1120 l 1,15,-1
 1178 1120 l 1,16,-1
 713 -123 l 1,0,1
EndSplineSet
EndChar

StartChar: z
Encoding: 122 122 93
Width: 1234
VWidth: 3393
Flags: W
HStem: 0 220<492 1082> 903 217<187 754>
VStem: 162 920<0 220 0 1120 1.53064e-18 1.53064e-18>
LayerCount: 2
Fore
SplineSet
1082 1120 m 1,0,-1
 1082 893 l 1,1,-1
 492 220 l 1,2,-1
 1082 220 l 1,3,-1
 1082 0 l 1,4,-1
 162 0 l 1,5,-1
 162 230 l 1,6,-1
 754 903 l 1,7,-1
 187 903 l 1,8,-1
 187 1120 l 1,9,-1
 1082 1120 l 1,0,-1
EndSplineSet
EndChar

StartChar: braceleft
Encoding: 123 123 94
Width: 1234
VWidth: 3393
Flags: W
HStem: -336 193<791.438 1056> 515 194<176 416.594> 1367 191<791.203 1056>
VStem: 176 880<-336 515 1259.81 1807.39> 486 271<-99.4165 444.222 777.812 1325.39>
LayerCount: 2
Fore
SplineSet
1056 -336 m 1,0,-1
 903 -336 l 2,1,2
 661 -336 661 -336 570 -262 c 0,3,4
 486 -187 486 -187 486 33 c 2,5,-1
 486 252 l 2,6,7
 486 404 486 404 431 457 c 0,8,9
 383 515 383 515 237 515 c 2,10,-1
 176 515 l 1,11,-1
 176 709 l 1,12,-1
 237 709 l 2,13,14
 379 709 379 709 431 764 c 0,15,16
 486 822 486 822 486 974 c 2,17,-1
 486 1188 l 2,18,19
 486 1412 486 1412 570 1483 c 0,20,21
 655 1558 655 1558 903 1558 c 2,22,-1
 1056 1558 l 1,23,-1
 1056 1367 l 1,24,-1
 930 1367 l 2,25,26
 828 1367 828 1367 790 1327 c 1,27,28
 757 1276 757 1276 757 1140 c 2,29,-1
 757 930 l 2,30,31
 757 767 757 767 709 699 c 0,32,33
 655 628 655 628 534 615 c 1,34,35
 661 587 661 587 709 522 c 0,36,37
 757 454 757 454 757 292 c 2,38,-1
 757 85 l 2,39,40
 757 -51 757 -51 790 -101 c 1,41,42
 828 -143 828 -143 930 -143 c 2,43,-1
 1056 -143 l 1,44,-1
 1056 -336 l 1,0,-1
EndSplineSet
EndChar

StartChar: bar
Encoding: 124 124 95
Width: 1234
VWidth: 3393
Flags: W
VStem: 502 227<-482 1568>
LayerCount: 2
Fore
SplineSet
729 -482 m 1,0,-1
 502 -482 l 1,1,-1
 502 1568 l 1,2,-1
 729 1568 l 1,3,-1
 729 -482 l 1,0,-1
EndSplineSet
EndChar

StartChar: braceright
Encoding: 125 125 96
Width: 1234
VWidth: 3393
Flags: W
HStem: -336 193<181 439.951> 515 194<815.125 1059> 1367 191<181 438.981>
VStem: 479 268<-99.5396 445.04 773.73 1322.57>
LayerCount: 2
Fore
SplineSet
302 -143 m 2,0,1
 408 -143 408 -143 441 -101 c 0,2,3
 479 -55 479 -55 479 85 c 2,4,-1
 479 292 l 2,5,6
 479 462 479 462 525 522 c 0,7,8
 573 587 573 587 703 615 c 1,9,10
 580 628 580 628 525 699 c 0,11,12
 479 761 479 761 479 930 c 2,13,-1
 479 1140 l 2,14,15
 479 1279 479 1279 441 1324 c 0,16,17
 408 1367 408 1367 302 1367 c 2,18,-1
 181 1367 l 1,19,-1
 181 1558 l 1,20,-1
 330 1558 l 2,21,22
 583 1558 583 1558 661 1483 c 0,23,24
 747 1412 747 1412 747 1188 c 2,25,-1
 747 974 l 2,26,27
 747 822 747 822 800 764 c 0,28,29
 855 709 855 709 998 709 c 2,30,-1
 1059 709 l 1,31,-1
 1059 515 l 1,32,-1
 998 515 l 2,33,34
 855 515 855 515 800 457 c 0,35,36
 747 404 747 404 747 252 c 2,37,-1
 747 33 l 2,38,39
 747 -187 747 -187 661 -262 c 256,40,41
 577 -336 577 -336 330 -336 c 2,42,-1
 181 -336 l 1,43,-1
 181 -143 l 1,44,-1
 302 -143 l 2,0,1
EndSplineSet
EndChar

StartChar: asciitilde
Encoding: 126 126 97
Width: 1234
VWidth: 3393
Flags: W
HStem: 466 220<685.615 978.367> 587 223<220.645 450.693>
LayerCount: 2
Fore
SplineSet
1147 580 m 1,0,1
 1069 519 1069 519 997.5 492.5 c 128,-1,2
 926 466 926 466 848 466 c 0,3,4
 757 466 757 466 645 515 c 0,5,6
 635 522 635 522 628 523.5 c 128,-1,7
 621 525 621 525 615 529 c 0,8,9
 537 563 537 563 482 573 c 0,10,11
 437 587 437 587 379 587 c 0,12,13
 230 587 230 587 88 466 c 1,14,-1
 88 696 l 1,15,16
 166 757 166 757 239 783.5 c 128,-1,17
 312 810 312 810 398 810 c 0,18,19
 424 810 424 810 448 807 c 128,-1,20
 472 804 472 804 499 797 c 0,21,22
 550 787 550 787 621 757 c 0,23,24
 641 751 641 751 655 744 c 0,25,26
 777 686 777 686 865 686 c 0,27,28
 1001 686 1001 686 1147 810 c 1,29,-1
 1147 580 l 1,0,1
EndSplineSet
EndChar

StartChar: Aring
Encoding: 197 197 99
Width: 1234
VWidth: 3393
Flags: W
HStem: 0 21G<33 334.757 901.081 1201> 370 245<479 757> 1748 156<523.241 711.211>
VStem: 333 153<1523 1711.56> 751 152<1524.6 1709.96>
LayerCount: 2
Fore
SplineSet
1201 0 m 1,0,-1
 906 0 l 1,1,-1
 815 370 l 1,2,-1
 418 370 l 1,3,-1
 330 0 l 1,4,-1
 33 0 l 1,5,-1
 418 1422 l 1,6,7
 333 1496 333 1496 333 1619 c 0,8,9
 333 1735 333 1735 414 1819 c 0,10,11
 499 1904 499 1904 618 1904 c 256,12,13
 736 1904 736 1904 819 1819 c 0,14,15
 903 1735 903 1735 903 1619 c 0,16,17
 903 1496 903 1496 815 1422 c 1,18,-1
 1201 0 l 1,0,-1
486 1619 m 0,19,20
 486 1564 486 1564 525 1524 c 0,21,22
 563 1486 563 1486 618 1486 c 256,23,24
 673 1486 673 1486 709 1524 c 0,25,26
 751 1564 751 1564 751 1619 c 0,27,28
 751 1670 751 1670 709 1710 c 0,29,30
 673 1748 673 1748 618 1748 c 0,31,32
 560 1748 560 1748 525 1710 c 0,33,34
 486 1670 486 1670 486 1619 c 0,19,20
479 615 m 1,35,-1
 757 615 l 1,36,-1
 618 1225 l 1,37,-1
 479 615 l 1,35,-1
EndSplineSet
EndChar

StartChar: oacute
Encoding: 243 243 121
Width: 1234
VWidth: 3393
Flags: W
HStem: -30 240<491.497 738.597> 910 237<490.89 739.183>
VStem: 98 293<329.584 789.091> 842 295<329.584 790.087>
LayerCount: 2
Fore
SplineSet
1036 1561 m 1,0,-1
 664 1263 l 1,1,-1
 469 1263 l 1,2,-1
 754 1561 l 1,3,-1
 1036 1561 l 1,0,-1
618 910 m 0,4,5
 509 910 509 910 450 818 c 128,-1,6
 391 726 391 726 391 560 c 256,7,8
 391 394 391 394 450 302 c 128,-1,9
 509 210 509 210 618 210 c 0,10,11
 722 210 722 210 782 302 c 128,-1,12
 842 394 842 394 842 560 c 256,13,14
 842 726 842 726 782 818 c 128,-1,15
 722 910 722 910 618 910 c 0,4,5
98 560 m 0,16,17
 98 828 98 828 237 988 c 256,18,19
 376 1147 376 1147 618 1147 c 256,20,21
 858 1147 858 1147 994 988 c 0,22,23
 1137 832 1137 832 1137 560 c 256,24,25
 1137 288 1137 288 994 129 c 0,26,27
 855 -30 855 -30 618 -30 c 256,28,29
 379 -30 379 -30 237 129 c 0,30,31
 98 288 98 288 98 560 c 0,16,17
EndSplineSet
EndChar

StartChar: ograve
Encoding: 242 242 122
Width: 1234
VWidth: 3393
Flags: W
HStem: -30 240<491.497 738.597> 910 237<490.89 739.183>
VStem: 98 293<329.584 789.091> 842 295<329.584 790.087>
LayerCount: 2
Fore
SplineSet
764 1263 m 1,0,-1
 567 1263 l 1,1,-1
 200 1561 l 1,2,-1
 482 1561 l 1,3,-1
 764 1263 l 1,0,-1
618 910 m 0,4,5
 509 910 509 910 450 818 c 128,-1,6
 391 726 391 726 391 560 c 256,7,8
 391 394 391 394 450 302 c 128,-1,9
 509 210 509 210 618 210 c 0,10,11
 722 210 722 210 782 302 c 128,-1,12
 842 394 842 394 842 560 c 256,13,14
 842 726 842 726 782 818 c 128,-1,15
 722 910 722 910 618 910 c 0,4,5
98 560 m 0,16,17
 98 828 98 828 237 988 c 256,18,19
 376 1147 376 1147 618 1147 c 256,20,21
 858 1147 858 1147 994 988 c 0,22,23
 1137 832 1137 832 1137 560 c 256,24,25
 1137 288 1137 288 994 129 c 0,26,27
 855 -30 855 -30 618 -30 c 256,28,29
 379 -30 379 -30 237 129 c 0,30,31
 98 288 98 288 98 560 c 0,16,17
EndSplineSet
EndChar

StartChar: ocircumflex
Encoding: 244 244 123
Width: 1234
VWidth: 3393
Flags: W
HStem: -30 240<491.497 738.597> 910 237<490.89 739.183>
VStem: 98 293<329.584 789.091> 842 295<329.584 790.087>
LayerCount: 2
Fore
SplineSet
736 1561 m 1,0,-1
 994 1263 l 1,1,-1
 815 1263 l 1,2,-1
 618 1412 l 1,3,-1
 418 1263 l 1,4,-1
 240 1263 l 1,5,-1
 495 1561 l 1,6,-1
 736 1561 l 1,0,-1
618 910 m 0,7,8
 509 910 509 910 450 818 c 128,-1,9
 391 726 391 726 391 560 c 256,10,11
 391 394 391 394 450 302 c 128,-1,12
 509 210 509 210 618 210 c 0,13,14
 722 210 722 210 782 302 c 128,-1,15
 842 394 842 394 842 560 c 256,16,17
 842 726 842 726 782 818 c 128,-1,18
 722 910 722 910 618 910 c 0,7,8
98 560 m 0,19,20
 98 828 98 828 237 988 c 256,21,22
 376 1147 376 1147 618 1147 c 256,23,24
 858 1147 858 1147 994 988 c 0,25,26
 1137 832 1137 832 1137 560 c 256,27,28
 1137 288 1137 288 994 129 c 0,29,30
 855 -30 855 -30 618 -30 c 256,31,32
 379 -30 379 -30 237 129 c 0,33,34
 98 288 98 288 98 560 c 0,19,20
EndSplineSet
EndChar

StartChar: odieresis
Encoding: 246 246 124
Width: 1234
VWidth: 3393
Flags: W
HStem: -30 240<491.497 738.597> 910 237<490.89 739.183> 1317 244<302 537 696 933>
VStem: 98 293<329.584 789.091> 302 235<1317 1561> 696 237<1317 1561> 842 295<329.584 790.087>
LayerCount: 2
Fore
SplineSet
537 1561 m 1,0,-1
 537 1317 l 1,1,-1
 302 1317 l 1,2,-1
 302 1561 l 1,3,-1
 537 1561 l 1,0,-1
933 1561 m 1,4,-1
 933 1317 l 1,5,-1
 696 1317 l 1,6,-1
 696 1561 l 1,7,-1
 933 1561 l 1,4,-1
618 910 m 0,8,9
 509 910 509 910 450 818 c 128,-1,10
 391 726 391 726 391 560 c 256,11,12
 391 394 391 394 450 302 c 128,-1,13
 509 210 509 210 618 210 c 0,14,15
 722 210 722 210 782 302 c 128,-1,16
 842 394 842 394 842 560 c 256,17,18
 842 726 842 726 782 818 c 128,-1,19
 722 910 722 910 618 910 c 0,8,9
98 560 m 0,20,21
 98 828 98 828 237 988 c 256,22,23
 376 1147 376 1147 618 1147 c 256,24,25
 858 1147 858 1147 994 988 c 0,26,27
 1137 832 1137 832 1137 560 c 256,28,29
 1137 288 1137 288 994 129 c 0,30,31
 855 -30 855 -30 618 -30 c 256,32,33
 379 -30 379 -30 237 129 c 0,34,35
 98 288 98 288 98 560 c 0,20,21
EndSplineSet
EndChar

StartChar: otilde
Encoding: 245 245 125
Width: 1234
VWidth: 3393
Flags: W
HStem: -30 240<491.497 738.597> 910 237<490.89 739.183> 1276 156<715.124 813.01> 1405 156<420.045 545.594>
VStem: 98 293<329.584 789.091> 268 140<1276 1398.46> 825 139<1439.74 1543.69 1544.31 1551 1551 1561> 842 295<329.584 790.087>
LayerCount: 2
Fore
SplineSet
563 1370 m 1,0,1
 560 1370 560 1370 553 1377 c 0,2,3
 512 1405 512 1405 482 1405 c 0,4,5
 408 1405 408 1405 408 1286 c 2,6,-1
 408 1276 l 1,7,-1
 268 1276 l 1,8,-1
 268 1311 l 2,9,10
 268 1425 268 1425 323 1493 c 256,11,12
 376 1561 376 1561 466 1561 c 0,13,14
 537 1561 537 1561 615 1503 c 2,15,-1
 676 1463 l 2,16,17
 722 1432 722 1432 751 1432 c 0,18,19
 825 1432 825 1432 825 1551 c 2,20,-1
 825 1561 l 1,21,-1
 968 1561 l 1,22,23
 968 1554 968 1554 966 1544 c 128,-1,24
 964 1534 964 1534 964 1528 c 0,25,26
 964 1408 964 1408 910 1344 c 0,27,28
 858 1276 858 1276 771 1276 c 0,29,30
 732 1276 732 1276 700 1286 c 128,-1,31
 668 1296 668 1296 618 1334 c 2,32,-1
 563 1370 l 1,0,1
618 910 m 0,33,34
 509 910 509 910 450 818 c 128,-1,35
 391 726 391 726 391 560 c 256,36,37
 391 394 391 394 450 302 c 128,-1,38
 509 210 509 210 618 210 c 0,39,40
 722 210 722 210 782 302 c 128,-1,41
 842 394 842 394 842 560 c 256,42,43
 842 726 842 726 782 818 c 128,-1,44
 722 910 722 910 618 910 c 0,33,34
98 560 m 0,45,46
 98 828 98 828 237 988 c 256,47,48
 376 1147 376 1147 618 1147 c 256,49,50
 858 1147 858 1147 994 988 c 0,51,52
 1137 832 1137 832 1137 560 c 256,53,54
 1137 288 1137 288 994 129 c 0,55,56
 855 -30 855 -30 618 -30 c 256,57,58
 379 -30 379 -30 237 129 c 0,59,60
 98 288 98 288 98 560 c 0,45,46
EndSplineSet
EndChar

StartChar: dagger
Encoding: 8224 8224 130
Width: 1234
VWidth: 3393
Flags: W
HStem: 882 225<156 489 744 1075 156 1075 156 156> 1473 20G<489 744>
VStem: 489 255<-197 882 1107 1493>
LayerCount: 2
Fore
SplineSet
744 1493 m 1,0,-1
 744 1107 l 1,1,-1
 1075 1107 l 1,2,-1
 1075 882 l 1,3,-1
 744 882 l 1,4,-1
 744 -197 l 1,5,-1
 489 -197 l 1,6,-1
 489 882 l 1,7,-1
 156 882 l 1,8,-1
 156 1107 l 1,9,-1
 489 1107 l 1,10,-1
 489 1493 l 1,11,-1
 744 1493 l 1,0,-1
EndSplineSet
EndChar

StartChar: degree
Encoding: 176 176 131
Width: 1234
VWidth: 3393
Flags: W
HStem: 855 162<495.349 732.793> 1360 161<500.961 730.691>
VStem: 282 162<1069.24 1303.1> 787 162<1071.96 1303.8>
LayerCount: 2
Fore
SplineSet
618 1521 m 0,0,1
 686 1521 686 1521 745 1495.5 c 128,-1,2
 804 1470 804 1470 852 1422 c 0,3,4
 949 1331 949 1331 949 1188 c 0,5,6
 949 1052 949 1052 852 953 c 256,7,8
 754 855 754 855 615 855 c 0,9,10
 472 855 472 855 379 949 c 0,11,12
 282 1049 282 1049 282 1188 c 256,13,14
 282 1327 282 1327 379 1425 c 0,15,16
 476 1521 476 1521 618 1521 c 0,0,1
618 1360 m 0,17,18
 543 1360 543 1360 495 1311 c 0,19,20
 444 1259 444 1259 444 1188 c 0,21,22
 444 1120 444 1120 492 1065 c 0,23,24
 540 1017 540 1017 615 1017 c 256,25,26
 689 1017 689 1017 736 1065 c 0,27,28
 787 1117 787 1117 787 1188 c 256,29,30
 787 1259 787 1259 736 1311 c 256,31,32
 686 1360 686 1360 618 1360 c 0,17,18
EndSplineSet
EndChar

StartChar: cent
Encoding: 162 162 132
Width: 1234
VWidth: 3393
Flags: W
HStem: -23 237<536.22 655 797 922.639> 910 237<536.22 655 797 943.1>
VStem: 146 272<348.346 779.71> 655 142<-312 -23 214 910 1147 1432>
LayerCount: 2
Fore
SplineSet
1039 810 m 1,0,1
 916 896 916 896 797 910 c 1,2,-1
 797 214 l 1,3,4
 920 224 920 224 1039 312 c 1,5,-1
 1039 45 l 1,6,7
 984 13 984 13 924.5 -2 c 128,-1,8
 865 -17 865 -17 797 -23 c 1,9,-1
 797 -312 l 1,10,-1
 655 -312 l 1,11,-1
 655 -23 l 1,12,13
 418 -3 418 -3 282 152 c 0,14,15
 146 315 146 315 146 560 c 0,16,17
 146 810 146 810 282 974 c 0,18,19
 418 1130 418 1130 655 1147 c 1,20,-1
 655 1432 l 1,21,-1
 797 1432 l 1,22,-1
 797 1147 l 1,23,24
 923 1137 923 1137 1039 1079 c 1,25,-1
 1039 810 l 1,0,1
655 910 m 1,26,27
 418 878 418 878 418 560 c 0,28,29
 418 414 418 414 482 312 c 0,30,31
 540 224 540 224 655 214 c 1,32,-1
 655 910 l 1,26,27
EndSplineSet
EndChar

StartChar: sterling
Encoding: 163 163 133
Width: 1234
VWidth: 3393
Flags: W
HStem: 0 262<119 353 641 1123> 593 229<156 353 641 978> 1273 248<712.991 1038.83>
VStem: 353 288<262 593 822 1188.28>
LayerCount: 2
Fore
SplineSet
1104 1188 m 1,0,1
 994 1273 994 1273 848 1273 c 0,2,3
 739 1273 739 1273 690 1206.5 c 128,-1,4
 641 1140 641 1140 641 998 c 2,5,-1
 641 822 l 1,6,-1
 978 822 l 1,7,-1
 978 593 l 1,8,-1
 641 593 l 1,9,-1
 641 262 l 1,10,-1
 1123 262 l 1,11,-1
 1123 0 l 1,12,-1
 119 0 l 1,13,-1
 119 262 l 1,14,-1
 353 262 l 1,15,-1
 353 593 l 1,16,-1
 156 593 l 1,17,-1
 156 822 l 1,18,-1
 353 822 l 1,19,-1
 353 1017 l 2,20,21
 353 1521 353 1521 810 1521 c 0,22,23
 978 1521 978 1521 1104 1463 c 1,24,-1
 1104 1188 l 1,0,1
EndSplineSet
EndChar

StartChar: section
Encoding: 167 167 134
Width: 1234
VWidth: 3393
Flags: W
HStem: -197 227<308.318 712.197> 1296 225<533.991 802.147>
VStem: 169 245<618.018 805.433> 237 262<1109.98 1267> 736 265<56.4126 214.279> 815 247<524.661 698.061>
LayerCount: 2
Fore
SplineSet
519 858 m 1,0,1
 414 787 414 787 414 713 c 0,2,3
 414 655 414 655 462 615 c 0,4,5
 515 567 515 567 713 476 c 1,6,7
 815 543 815 543 815 621 c 0,8,9
 815 706 815 706 550 842 c 2,10,-1
 519 858 l 1,0,1
930 1234 m 1,11,12
 764 1296 764 1296 658 1296 c 0,13,14
 583 1296 583 1296 541 1267.5 c 128,-1,15
 499 1239 499 1239 499 1185 c 0,16,17
 499 1114 499 1114 703 1004 c 2,18,-1
 729 991 l 2,19,20
 943 878 943 878 1004 807 c 0,21,22
 1062 732 1062 732 1062 638 c 0,23,24
 1062 469 1062 469 865 373 c 1,25,26
 933 323 933 323 967 261.5 c 128,-1,27
 1001 200 1001 200 1001 119 c 0,28,29
 1001 -27 1001 -27 896 -113 c 0,30,31
 784 -197 784 -197 605 -197 c 0,32,33
 428 -197 428 -197 258 -136 c 1,34,-1
 258 91 l 1,35,36
 428 30 428 30 580 30 c 0,37,38
 736 30 736 30 736 143 c 0,39,40
 736 210 736 210 522 326 c 2,41,-1
 512 333 l 1,42,-1
 486 346 l 2,43,44
 169 515 169 515 169 689 c 0,45,46
 169 886 169 886 370 953 c 1,47,48
 298 1004 298 1004 267.5 1065.5 c 128,-1,49
 237 1127 237 1127 237 1208 c 0,50,51
 237 1350 237 1350 340 1435 c 0,52,53
 444 1521 444 1521 618 1521 c 0,54,55
 693 1521 693 1521 770.5 1507 c 128,-1,56
 848 1493 848 1493 930 1463 c 1,57,-1
 930 1234 l 1,11,12
EndSplineSet
EndChar

StartChar: bullet
Encoding: 8226 8226 135
Width: 1234
VWidth: 3393
Flags: W
HStem: 401 719<444.504 793.26>
VStem: 258 720<590.481 936.438>
LayerCount: 2
Fore
SplineSet
258 764 m 0,0,1
 258 913 258 913 363 1017 c 0,2,3
 472 1120 472 1120 618 1120 c 256,4,5
 764 1120 764 1120 872 1017 c 0,6,7
 978 913 978 913 978 764 c 0,8,9
 978 618 978 618 872 505 c 0,10,11
 767 401 767 401 615 401 c 0,12,13
 472 401 472 401 360 505 c 0,14,15
 258 608 258 608 258 764 c 0,0,1
EndSplineSet
EndChar

StartChar: paragraph
Encoding: 182 182 136
Width: 1234
VWidth: 3393
Flags: W
HStem: 1347 146<686 875>
VStem: 71 615<875.789 1270.03> 71 994<893 1269> 495 191<-197 648> 875 190<-197 1347>
LayerCount: 2
Fore
SplineSet
1065 1493 m 1,0,-1
 1065 -197 l 1,1,-1
 875 -197 l 1,2,-1
 875 1347 l 1,3,-1
 686 1347 l 1,4,-1
 686 -197 l 1,5,-1
 495 -197 l 1,6,-1
 495 648 l 1,7,8
 292 676 292 676 181.5 784.5 c 128,-1,9
 71 893 71 893 71 1072 c 0,10,11
 71 1269 71 1269 200 1377 c 0,12,13
 330 1493 330 1493 547 1493 c 2,14,-1
 1065 1493 l 1,0,-1
EndSplineSet
EndChar

StartChar: germandbls
Encoding: 223 223 137
Width: 1234
VWidth: 3393
Flags: W
HStem: -30 237<546.043 851.594> 1324 234<475.233 757.002>
VStem: 126 295<0 1267.19> 525 255<795.199 992.091> 890 285<242.52 428.572>
LayerCount: 2
Fore
SplineSet
1036 1059 m 1,0,1
 780 1049 780 1049 780 882 c 0,2,3
 780 819 780 819 896 729 c 0,4,5
 906 722 906 722 916 713 c 2,6,-1
 1014 641 l 2,7,8
 1175 515 1175 515 1175 330 c 0,9,10
 1175 166 1175 166 1062 68 c 0,11,12
 946 -30 946 -30 757 -30 c 0,13,14
 638 -30 638 -30 505 20 c 1,15,-1
 505 272 l 1,16,17
 625 207 625 207 732 207 c 0,18,19
 804 207 804 207 847 241 c 128,-1,20
 890 275 890 275 890 333 c 0,21,22
 890 408 890 408 774 492 c 1,23,24
 761 505 761 505 748.5 512 c 128,-1,25
 736 519 736 519 729 525 c 2,26,-1
 645 593 l 2,27,28
 525 689 525 689 525 848 c 0,29,30
 525 974 525 974 599 1058.5 c 128,-1,31
 673 1143 673 1143 810 1175 c 1,32,33
 790 1324 790 1324 611 1324 c 0,34,35
 421 1324 421 1324 421 1123 c 2,36,-1
 421 0 l 1,37,-1
 126 0 l 1,38,-1
 126 1127 l 2,39,40
 126 1341 126 1341 246 1449.5 c 128,-1,41
 366 1558 366 1558 597 1558 c 0,42,43
 822 1558 822 1558 929 1439.5 c 128,-1,44
 1036 1321 1036 1321 1036 1075 c 2,45,-1
 1036 1059 l 1,0,1
EndSplineSet
EndChar

StartChar: registered
Encoding: 174 174 138
Width: 1234
VWidth: 3393
Flags: W
HStem: 126 132<416.334 822.158> 673 107<525 625.091> 943 113<525 689.694> 1231 129<416.334 818.679>
VStem: 0 133<541.001 947.758> 360 165<431 673 780 943> 703 165<792.459 929.96> 1104 130<543.642 946.912>
LayerCount: 2
Fore
SplineSet
618 1360 m 256,0,1
 872 1360 872 1360 1052 1181 c 0,2,3
 1234 991 1234 991 1234 744 c 0,4,5
 1234 489 1234 489 1052 308 c 0,6,7
 868 126 868 126 618 126 c 0,8,9
 363 126 363 126 184 308 c 0,10,11
 0 489 0 489 0 744 c 256,12,13
 0 998 0 998 184 1181 c 0,14,15
 363 1360 363 1360 618 1360 c 256,0,1
525 943 m 1,16,-1
 525 780 l 1,17,-1
 587 780 l 2,18,19
 703 780 703 780 703 862 c 256,20,21
 703 943 703 943 587 943 c 2,22,-1
 525 943 l 1,16,-1
608 1056 m 1,23,24
 868 1056 868 1056 868 878 c 0,25,26
 868 744 868 744 719 716 c 1,27,28
 790 689 790 689 838 597 c 2,29,-1
 916 431 l 1,30,-1
 744 431 l 1,31,-1
 683 563 l 2,32,33
 655 621 655 621 626 644.5 c 128,-1,34
 597 668 597 668 557 673 c 2,35,-1
 525 673 l 1,36,-1
 525 431 l 1,37,-1
 360 431 l 1,38,-1
 360 1056 l 1,39,-1
 608 1056 l 1,23,24
618 1231 m 0,40,41
 418 1231 418 1231 275 1085 c 0,42,43
 133 943 133 943 133 744 c 0,44,45
 133 550 133 550 275 401 c 0,46,47
 418 258 418 258 618 258 c 256,48,49
 819 258 819 258 961 401 c 0,50,51
 1104 550 1104 550 1104 744 c 0,52,53
 1104 943 1104 943 961 1085 c 0,54,55
 815 1231 815 1231 618 1231 c 0,40,41
EndSplineSet
EndChar

StartChar: copyright
Encoding: 169 169 139
Width: 1234
VWidth: 3393
Flags: W
HStem: 126 132<416.334 822.158> 401 142<511.577 822.314> 940 142<514.92 823.984> 1231 129<416.334 818.679>
VStem: 0 133<541.001 947.758> 265 189<600.651 879.323> 1104 130<543.642 946.912>
LayerCount: 2
Fore
SplineSet
848 882 m 1,0,1
 754 940 754 940 658 940 c 0,2,3
 560 940 560 940 507 889 c 128,-1,4
 454 838 454 838 454 744 c 0,5,6
 454 543 454 543 658 543 c 0,7,8
 767 543 767 543 848 605 c 1,9,-1
 848 434 l 1,10,11
 747 401 747 401 638 401 c 0,12,13
 469 401 469 401 366 492 c 0,14,15
 265 593 265 593 265 744 c 0,16,17
 265 896 265 896 366 991 c 0,18,19
 469 1082 469 1082 638 1082 c 0,20,21
 751 1082 751 1082 848 1049 c 1,22,-1
 848 882 l 1,0,1
618 1360 m 256,23,24
 872 1360 872 1360 1052 1181 c 0,25,26
 1234 991 1234 991 1234 744 c 0,27,28
 1234 489 1234 489 1052 308 c 0,29,30
 868 126 868 126 618 126 c 0,31,32
 363 126 363 126 184 308 c 0,33,34
 0 489 0 489 0 744 c 256,35,36
 0 998 0 998 184 1181 c 0,37,38
 363 1360 363 1360 618 1360 c 256,23,24
618 1231 m 0,39,40
 418 1231 418 1231 275 1085 c 0,41,42
 133 943 133 943 133 744 c 0,43,44
 133 550 133 550 275 401 c 0,45,46
 418 258 418 258 618 258 c 256,47,48
 819 258 819 258 961 401 c 0,49,50
 1104 550 1104 550 1104 744 c 0,51,52
 1104 943 1104 943 961 1085 c 0,53,54
 815 1231 815 1231 618 1231 c 0,39,40
EndSplineSet
EndChar

StartChar: trademark
Encoding: 8482 8482 140
Width: 1234
VWidth: 3393
Flags: W
HStem: 916 577<143 298 522 676 974 1127> 1360 133<0 143 298 437>
VStem: 143 155<916 1360> 522 154<916 1354> 974 153<916 1354>
LayerCount: 2
Fore
SplineSet
832 1266 m 1,0,-1
 920 1493 l 1,1,-1
 1127 1493 l 1,2,-1
 1127 916 l 1,3,-1
 974 916 l 1,4,-1
 974 1354 l 1,5,-1
 865 1097 l 1,6,-1
 790 1097 l 1,7,-1
 676 1354 l 1,8,-1
 676 916 l 1,9,-1
 522 916 l 1,10,-1
 522 1493 l 1,11,-1
 729 1493 l 1,12,-1
 832 1266 l 1,0,-1
437 1360 m 1,13,-1
 298 1360 l 1,14,-1
 298 916 l 1,15,-1
 143 916 l 1,16,-1
 143 1360 l 1,17,-1
 0 1360 l 1,18,-1
 0 1493 l 1,19,-1
 437 1493 l 1,20,-1
 437 1360 l 1,13,-1
EndSplineSet
EndChar

StartChar: acute
Encoding: 180 180 141
Width: 1234
VWidth: 3393
Flags: W
HStem: 1263 376<664 1036 1036 1036>
LayerCount: 2
Fore
SplineSet
1036 1639 m 1,0,-1
 664 1263 l 1,1,-1
 469 1263 l 1,2,-1
 754 1639 l 1,3,-1
 1036 1639 l 1,0,-1
EndSplineSet
EndChar

StartChar: dieresis
Encoding: 168 168 142
Width: 1234
VWidth: 3393
Flags: W
HStem: 1341 246<302 537 696 933>
VStem: 302 235<1341 1587> 696 237<1341 1587>
LayerCount: 2
Fore
SplineSet
933 1587 m 1,0,-1
 933 1341 l 1,1,-1
 696 1341 l 1,2,-1
 696 1587 l 1,3,-1
 933 1587 l 1,0,-1
537 1587 m 1,4,-1
 537 1341 l 1,5,-1
 302 1341 l 1,6,-1
 302 1587 l 1,7,-1
 537 1587 l 1,4,-1
EndSplineSet
EndChar

StartChar: notequal
Encoding: 8800 8800 143
Width: 1234
VWidth: 3393
Flags: W
HStem: -10 21G<220.744 260.459> 295 239<78 240 664 1157> 754 234<78 577 994 1157>
LayerCount: 2
Fore
SplineSet
736 988 m 1,0,-1
 991 1292 l 1,1,-1
 1140 1168 l 1,2,-1
 994 988 l 1,3,-1
 1157 988 l 1,4,-1
 1157 754 l 1,5,-1
 842 754 l 1,6,-1
 664 534 l 1,7,-1
 1157 534 l 1,8,-1
 1157 295 l 1,9,-1
 495 295 l 1,10,-1
 244 -10 l 1,11,-1
 94 119 l 1,12,-1
 240 295 l 1,13,-1
 78 295 l 1,14,-1
 78 534 l 1,15,-1
 401 534 l 1,16,-1
 577 754 l 1,17,-1
 78 754 l 1,18,-1
 78 988 l 1,19,-1
 736 988 l 1,0,-1
EndSplineSet
EndChar

StartChar: AE
Encoding: 198 198 144
Width: 1234
VWidth: 3393
Flags: W
HStem: 0 262<872 1181> 363 234<391 618> 661 262<872 1130> 1234 259<537 618 872 1160>
VStem: 618 254<262 363 597 661 923 1234>
LayerCount: 2
Fore
SplineSet
1160 1234 m 1,0,-1
 872 1234 l 1,1,-1
 872 923 l 1,2,-1
 1130 923 l 1,3,-1
 1130 661 l 1,4,-1
 872 661 l 1,5,-1
 872 262 l 1,6,-1
 1181 262 l 1,7,-1
 1181 0 l 1,8,-1
 618 0 l 1,9,-1
 618 363 l 1,10,-1
 336 363 l 1,11,-1
 249 0 l 1,12,-1
 0 0 l 1,13,-1
 360 1493 l 1,14,-1
 1160 1493 l 1,15,-1
 1160 1234 l 1,0,-1
391 597 m 1,16,-1
 618 597 l 1,17,-1
 618 1234 l 1,18,-1
 537 1234 l 1,19,-1
 391 597 l 1,16,-1
EndSplineSet
EndChar

StartChar: Oslash
Encoding: 216 216 145
Width: 1234
VWidth: 3393
Flags: W
HStem: -30 267<498.881 732.679> 1256 265<505.978 729.193>
VStem: 91 310<638.065 1103.58> 835 308<374.326 846.873 846.873 882.375>
LayerCount: 2
Fore
SplineSet
451 353 m 1,0,1
 499 237 499 237 618 237 c 0,2,3
 729 237 729 237 784 356 c 0,4,5
 835 479 835 479 835 747 c 0,6,7
 835 774 835 774 835 804.5 c 128,-1,8
 835 835 835 835 832 890 c 1,9,-1
 451 353 l 1,0,1
774 1153 m 1,10,11
 719 1256 719 1256 618 1256 c 0,12,13
 505 1256 505 1256 453 1136.5 c 128,-1,14
 401 1017 401 1017 401 757 c 2,15,-1
 401 631 l 1,16,-1
 774 1153 l 1,10,11
162 288 m 1,17,18
 91 469 91 469 91 747 c 0,19,20
 91 1521 91 1521 618 1521 c 0,21,22
 825 1521 825 1521 946 1399 c 1,23,-1
 1059 1561 l 1,24,-1
 1221 1445 l 1,25,-1
 1065 1221 l 1,26,27
 1143 1029 1143 1029 1143 747 c 0,28,29
 1143 363 1143 363 1010.5 166.5 c 128,-1,30
 878 -30 878 -30 618 -30 c 0,31,32
 404 -30 404 -30 275 104 c 1,33,-1
 156 -65 l 1,34,-1
 -7 51 l 1,35,-1
 162 288 l 1,17,18
EndSplineSet
EndChar

StartChar: infinity
Encoding: 8734 8734 146
Width: 1234
VWidth: 3393
Flags: W
HStem: 224 197<238.529 409.956 817.803 989.222> 842 200<241.36 412.559 815.597 996.222>
VStem: 13 184<471.272 789.368> 1039 182<479.067 792.488>
LayerCount: 2
Fore
SplineSet
726 631 m 1,0,1
 771 519 771 519 815 469 c 0,2,3
 855 421 855 421 903 421 c 0,4,5
 961 421 961 421 1001 482 c 0,6,7
 1039 540 1039 540 1039 635 c 256,8,9
 1039 729 1039 729 1005 785.5 c 128,-1,10
 971 842 971 842 913 842 c 0,11,12
 794 842 794 842 726 631 c 1,0,1
505 635 m 1,13,14
 454 761 454 761 414 800 c 0,15,16
 379 842 379 842 330 842 c 0,17,18
 272 842 272 842 230 784 c 0,19,20
 197 726 197 726 197 631 c 256,21,22
 197 537 197 537 229.5 479 c 128,-1,23
 262 421 262 421 320 421 c 0,24,25
 424 421 424 421 505 635 c 1,13,14
618 832 m 1,26,27
 703 1042 703 1042 903 1042 c 0,28,29
 1046 1042 1046 1042 1137 930 c 0,30,31
 1221 822 1221 822 1221 631 c 0,32,33
 1221 454 1221 454 1133 340 c 0,34,35
 1042 224 1042 224 903 224 c 0,36,37
 815 224 815 224 749 272 c 128,-1,38
 683 320 683 320 618 428 c 1,39,40
 505 224 505 224 333 224 c 0,41,42
 194 224 194 224 101 340 c 0,43,44
 13 447 13 447 13 631 c 0,45,46
 13 822 13 822 98 930 c 0,47,48
 187 1042 187 1042 330 1042 c 0,49,50
 515 1042 515 1042 618 832 c 1,26,27
EndSplineSet
EndChar

StartChar: plusminus
Encoding: 177 177 147
Width: 1234
VWidth: 3393
Flags: W
HStem: 0 237<88 1147> 696 234<88 499 736 1147>
VStem: 499 237<340 696 930 1286>
LayerCount: 2
Fore
SplineSet
736 930 m 1,0,-1
 1147 930 l 1,1,-1
 1147 696 l 1,2,-1
 736 696 l 1,3,-1
 736 340 l 1,4,-1
 499 340 l 1,5,-1
 499 696 l 1,6,-1
 88 696 l 1,7,-1
 88 930 l 1,8,-1
 499 930 l 1,9,-1
 499 1286 l 1,10,-1
 736 1286 l 1,11,-1
 736 930 l 1,0,-1
1147 237 m 1,12,-1
 1147 0 l 1,13,-1
 88 0 l 1,14,-1
 88 237 l 1,15,-1
 1147 237 l 1,12,-1
EndSplineSet
EndChar

StartChar: lessequal
Encoding: 8804 8804 148
Width: 1234
VWidth: 3393
Flags: W
HStem: 0 237<88 1147>
LayerCount: 2
Fore
SplineSet
408 739 m 1,0,-1
 1147 529 l 1,1,-1
 1147 288 l 1,2,-1
 88 625 l 1,3,-1
 88 858 l 1,4,-1
 1147 1195 l 1,5,-1
 1147 949 l 1,6,-1
 408 739 l 1,0,-1
1147 0 m 1,7,-1
 88 0 l 1,8,-1
 88 237 l 1,9,-1
 1147 237 l 1,10,-1
 1147 0 l 1,7,-1
EndSplineSet
EndChar

StartChar: greaterequal
Encoding: 8805 8805 149
Width: 1234
VWidth: 3393
Flags: W
HStem: 0 237<88 1147>
LayerCount: 2
Fore
SplineSet
88 1195 m 1,0,-1
 1147 858 l 1,1,-1
 1147 625 l 1,2,-1
 88 288 l 1,3,-1
 88 529 l 1,4,-1
 828 739 l 1,5,-1
 88 949 l 1,6,-1
 88 1195 l 1,0,-1
1147 237 m 1,7,-1
 1147 0 l 1,8,-1
 88 0 l 1,9,-1
 88 237 l 1,10,-1
 1147 237 l 1,7,-1
EndSplineSet
EndChar

StartChar: yen
Encoding: 165 165 150
Width: 1234
VWidth: 3393
Flags: W
HStem: 0 21G<469 764> 437 191<58 466 771 1178> 780 188<58 282 953 1178> 1473 20G<7 335.733 900.267 1225>
VStem: 469 295<0 437>
LayerCount: 2
Fore
SplineSet
326 1493 m 1,0,-1
 618 893 l 1,1,-1
 910 1493 l 1,2,-1
 1225 1493 l 1,3,-1
 953 968 l 1,4,-1
 1178 968 l 1,5,-1
 1178 780 l 1,6,-1
 855 780 l 1,7,-1
 771 628 l 1,8,-1
 1178 628 l 1,9,-1
 1178 437 l 1,10,-1
 764 437 l 1,11,-1
 764 0 l 1,12,-1
 469 0 l 1,13,-1
 469 437 l 1,14,-1
 58 437 l 1,15,-1
 58 628 l 1,16,-1
 466 628 l 1,17,-1
 379 780 l 1,18,-1
 58 780 l 1,19,-1
 58 968 l 1,20,-1
 282 968 l 1,21,-1
 7 1493 l 1,22,-1
 326 1493 l 1,0,-1
EndSplineSet
EndChar

StartChar: mu
Encoding: 181 181 151
Width: 1234
VWidth: 3393
Flags: W
HStem: -428 21G<172 466> -30 240<513.297 735.047 992.978 1183.42> 1100 20G<172 462 787 1075>
VStem: 172 290<-428 65 264.197 1120> 787 288<264.197 343 343 1120>
LayerCount: 2
Fore
SplineSet
172 1120 m 1,0,-1
 462 1120 l 1,1,-1
 462 441 l 2,2,3
 462 210 462 210 625 210 c 256,4,5
 787 210 787 210 787 441 c 2,6,-1
 787 1120 l 1,7,-1
 1075 1120 l 1,8,-1
 1075 343 l 2,9,10
 1075 272 1075 272 1089.5 241 c 128,-1,11
 1104 210 1104 210 1133 210 c 256,12,13
 1163 210 1163 210 1188 234 c 1,14,-1
 1188 17 l 1,15,16
 1104 -30 1104 -30 1039 -30 c 0,17,18
 896 -30 896 -30 848 129 c 1,19,20
 771 -30 771 -30 631 -30 c 0,21,22
 515 -30 515 -30 462 65 c 1,23,-1
 466 -428 l 1,24,-1
 172 -428 l 1,25,-1
 172 1120 l 1,0,-1
EndSplineSet
EndChar

StartChar: partialdiff
Encoding: 8706 8706 152
Width: 1234
VWidth: 3393
Flags: W
HStem: -23 68<437.082 640.107> 761 81<518.923 718.14> 1221 129<604.754 838.482>
VStem: 146 240<184.314 570.071> 872 220<770.471 1054.29>
LayerCount: 2
Fore
SplineSet
832 661 m 1,0,1
 852 761 852 761 862 850.5 c 128,-1,2
 872 940 872 940 872 1007 c 0,3,4
 872 1107 872 1107 847 1164 c 128,-1,5
 822 1221 822 1221 774 1221 c 0,6,7
 729 1221 729 1221 628 1150 c 0,8,9
 529 1075 529 1075 469 1075 c 0,10,11
 428 1075 428 1075 399 1106 c 128,-1,12
 370 1137 370 1137 370 1181 c 0,13,14
 370 1246 370 1246 454 1296 c 0,15,16
 540 1350 540 1350 664 1350 c 0,17,18
 862 1350 862 1350 978 1188 c 0,19,20
 1092 1032 1092 1032 1092 757 c 0,21,22
 1092 414 1092 414 936 197 c 0,23,24
 780 -23 780 -23 540 -23 c 0,25,26
 366 -23 366 -23 258 88 c 0,27,28
 146 207 146 207 146 379 c 0,29,30
 146 583 146 583 262 709 c 0,31,32
 379 842 379 842 550 842 c 0,33,34
 651 842 651 842 717.5 799.5 c 128,-1,35
 784 757 784 757 832 661 c 1,0,1
771 519 m 0,36,37
 771 761 771 761 621 761 c 0,38,39
 522 761 522 761 454 625 c 256,40,41
 386 489 386 489 386 282 c 0,42,43
 386 45 386 45 537 45 c 0,44,45
 638 45 638 45 703 181 c 0,46,47
 771 305 771 305 771 519 c 0,36,37
EndSplineSet
EndChar

StartChar: summation
Encoding: 8721 8721 153
Width: 1234
VWidth: 3393
Flags: W
HStem: -437 213<437 1107> 1306 215<441 1089>
VStem: 126 981<-437 -302 -224 1382 -437 -437>
LayerCount: 2
Fore
SplineSet
126 1382 m 1,0,-1
 126 1521 l 1,1,-1
 1089 1521 l 1,2,-1
 1089 1306 l 1,3,-1
 441 1306 l 1,4,-1
 890 570 l 1,5,-1
 437 -224 l 1,6,-1
 1107 -224 l 1,7,-1
 1107 -437 l 1,8,-1
 126 -437 l 1,9,-1
 126 -302 l 1,10,-1
 621 570 l 1,11,-1
 126 1382 l 1,0,-1
EndSplineSet
EndChar

StartChar: product
Encoding: 8719 8719 154
Width: 1234
VWidth: 3393
Flags: W
HStem: 1314 207<408 825>
VStem: 152 256<-437 1314> 825 257<-437 1314>
LayerCount: 2
Fore
SplineSet
1082 -437 m 1,0,-1
 825 -437 l 1,1,-1
 825 1314 l 1,2,-1
 408 1314 l 1,3,-1
 408 -437 l 1,4,-1
 152 -437 l 1,5,-1
 152 1521 l 1,6,-1
 1082 1521 l 1,7,-1
 1082 -437 l 1,0,-1
EndSplineSet
EndChar

StartChar: pi
Encoding: 960 960 155
Width: 1234
VWidth: 3393
Flags: W
HStem: -41 210<1046.82 1212.12> 893 211<13 176 462 736 1021 1185>
VStem: 176 286<0 893> 736 285<200.87 234 234 893>
LayerCount: 2
Fore
SplineSet
1185 893 m 1,0,-1
 1021 893 l 1,1,-1
 1021 363 l 2,2,3
 1021 227 1021 227 1046 200 c 0,4,5
 1072 169 1072 169 1140 169 c 0,6,7
 1168 169 1168 169 1183 169 c 128,-1,8
 1198 169 1198 169 1215 172 c 1,9,-1
 1215 -13 l 1,10,11
 1123 -41 1123 -41 1017 -41 c 0,12,13
 855 -41 855 -41 794 27 c 0,14,15
 761 61 761 61 751 101 c 0,16,17
 736 143 736 143 736 234 c 2,18,-1
 736 268 l 1,19,-1
 736 893 l 1,20,-1
 462 893 l 1,21,-1
 462 0 l 1,22,-1
 176 0 l 1,23,-1
 176 893 l 1,24,-1
 13 893 l 1,25,-1
 13 1104 l 1,26,-1
 1185 1104 l 1,27,-1
 1185 893 l 1,0,-1
EndSplineSet
EndChar

StartChar: integral
Encoding: 8747 8747 156
Width: 1234
VWidth: 3393
Flags: W
HStem: -373 121<270.049 413.289> 1438 116<820.135 972.496>
VStem: 71 265<-236.366 -99.6776> 492 253.5<368.963 386 386 447.458 447.458 508.5 508.5 554.519 554.519 663.573 663.573 702.5 702.5 747.787 747.787 804 804 1019.46>
LayerCount: 2
Fore
SplineSet
366 -252 m 0,0,1
 472 -252 472 -252 486 386 c 0,2,3
 489 454 489 454 490.5 508.5 c 128,-1,4
 492 563 492 563 492 600 c 0,5,6
 509 1107 509 1107 615 1331 c 0,7,8
 722 1554 722 1554 943 1554 c 0,9,10
 1049 1554 1049 1554 1100 1506 c 0,11,12
 1160 1457 1160 1457 1160 1377 c 0,13,14
 1160 1317 1160 1317 1121 1281.5 c 128,-1,15
 1082 1246 1082 1246 1021 1246 c 0,16,17
 930 1246 930 1246 903 1337 c 1,18,19
 903 1347 903 1347 901.5 1360.5 c 128,-1,20
 900 1374 900 1374 896 1392 c 1,21,22
 896 1438 896 1438 865 1438 c 0,23,24
 767 1438 767 1438 747 804 c 0,25,26
 747 747 747 747 745.5 702.5 c 128,-1,27
 744 658 744 658 744 625 c 0,28,29
 736 476 736 476 729 365.5 c 128,-1,30
 722 255 722 255 709 181 c 0,31,32
 696 38 696 38 651 -71 c 0,33,34
 537 -373 537 -373 288 -373 c 0,35,36
 197 -373 197 -373 133 -326 c 0,37,38
 71 -275 71 -275 71 -197 c 0,39,40
 71 -136 71 -136 108.5 -98.5 c 128,-1,41
 146 -61 146 -61 214 -61 c 0,42,43
 268 -61 268 -61 302 -91 c 256,44,45
 336 -123 336 -123 336 -162 c 0,46,47
 336 -217 336 -217 343 -237 c 0,48,49
 346 -252 346 -252 366 -252 c 0,0,1
EndSplineSet
EndChar

StartChar: ordfeminine
Encoding: 170 170 157
Width: 1234
VWidth: 3393
Flags: W
HStem: 428 169<292 981> 699 166<491.08 706.498> 1079 142<504.238 787> 1344 177<363.326 766.526>
VStem: 258 218<881.087 1045.39> 787 194<719 810 931.479 1079 1221 1317.42>
LayerCount: 2
Fore
SplineSet
787 1079 m 1,0,-1
 686 1079 l 2,1,2
 476 1079 476 1079 476 971 c 0,3,4
 476 865 476 865 590 865 c 0,5,6
 679 865 679 865 732 920 c 0,7,8
 787 971 787 971 787 1049 c 2,9,-1
 787 1079 l 1,0,-1
787 810 m 1,10,11
 689 699 689 699 537 699 c 0,12,13
 411 699 411 699 333 767 c 0,14,15
 258 838 258 838 258 953 c 0,16,17
 258 1221 258 1221 631 1221 c 2,18,-1
 787 1221 l 1,19,-1
 787 1246 l 2,20,21
 787 1344 787 1344 605 1344 c 0,22,23
 437 1344 437 1344 315 1276 c 1,24,-1
 315 1466 l 1,25,26
 457 1521 457 1521 615 1521 c 0,27,28
 804 1521 804 1521 892.5 1435.5 c 128,-1,29
 981 1350 981 1350 981 1168 c 2,30,-1
 981 719 l 1,31,-1
 787 719 l 1,32,-1
 787 810 l 1,10,11
981 597 m 1,33,-1
 981 428 l 1,34,-1
 292 428 l 1,35,-1
 292 597 l 1,36,-1
 981 597 l 1,33,-1
EndSplineSet
EndChar

StartChar: ordmasculine
Encoding: 186 186 158
Width: 1234
VWidth: 3393
Flags: W
HStem: 428 169<292 981> 699 176<535.603 740.397> 1344 177<535.603 740.397>
VStem: 275 726<923 1296 1110 1110 1110 1110> 275 204<938.006 1281.33> 797 204<938.006 1281.11>
LayerCount: 2
Fore
SplineSet
981 597 m 1,0,-1
 981 428 l 1,1,-1
 292 428 l 1,2,-1
 292 597 l 1,3,-1
 981 597 l 1,0,-1
275 1110 m 0,4,5
 275 1299 275 1299 373 1408 c 0,6,7
 472 1521 472 1521 638 1521 c 256,8,9
 804 1521 804 1521 903 1412 c 0,10,11
 1001 1296 1001 1296 1001 1110 c 256,12,13
 1001 923 1001 923 903 807 c 0,14,15
 804 699 804 699 638 699 c 256,16,17
 472 699 472 699 373 807 c 0,18,19
 275 923 275 923 275 1110 c 0,4,5
638 1344 m 256,20,21
 563 1344 563 1344 521 1281 c 128,-1,22
 479 1218 479 1218 479 1110 c 256,23,24
 479 1001 479 1001 521 938 c 128,-1,25
 563 875 563 875 638 875 c 256,26,27
 713 875 713 875 755 938 c 128,-1,28
 797 1001 797 1001 797 1110 c 256,29,30
 797 1218 797 1218 755 1281 c 128,-1,31
 713 1344 713 1344 638 1344 c 256,20,21
EndSplineSet
EndChar

StartChar: Omega
Encoding: 937 937 159
Width: 1234
VWidth: 3393
Flags: W
HStem: 0 210<91 330 906 1143> 1195 268<509.627 722.722>
VStem: 101 300<472.209 1049.62> 832 301<478.668 1049.62>
LayerCount: 2
Fore
SplineSet
330 210 m 1,0,1
 210 320 210 320 152 454 c 0,2,3
 101 593 101 593 101 784 c 0,4,5
 101 1100 101 1100 240 1279 c 0,6,7
 379 1463 379 1463 615 1463 c 0,8,9
 852 1463 852 1463 994 1279 c 0,10,11
 1133 1092 1133 1092 1133 784 c 0,12,13
 1133 587 1133 587 1079 454 c 0,14,15
 1029 323 1029 323 906 210 c 1,16,-1
 1143 210 l 1,17,-1
 1143 0 l 1,18,-1
 673 0 l 1,19,-1
 673 268 l 1,20,21
 754 346 754 346 793 463 c 128,-1,22
 832 580 832 580 832 751 c 0,23,24
 832 964 832 964 775.5 1079.5 c 128,-1,25
 719 1195 719 1195 618 1195 c 256,26,27
 515 1195 515 1195 458 1079.5 c 128,-1,28
 401 964 401 964 401 751 c 0,29,30
 401 421 401 421 563 268 c 1,31,-1
 563 0 l 1,32,-1
 91 0 l 1,33,-1
 91 210 l 1,34,-1
 330 210 l 1,0,1
EndSplineSet
EndChar

StartChar: ae
Encoding: 230 230 160
Width: 1234
VWidth: 3393
Flags: W
HStem: -30 214<267.32 457.387 811.397 1077.18> 482 214<282.344 489 736 964> 933 214<181.522 453.373 765.617 937.918>
VStem: 13 227<209.876 443.129> 489 247<267.272 360 360 479 696 884.481> 964 224<693 884.604>
LayerCount: 2
Fore
SplineSet
489 482 m 1,0,-1
 418 482 l 2,1,2
 240 482 240 482 240 330 c 0,3,4
 240 184 240 184 366 184 c 0,5,6
 489 184 489 184 489 360 c 2,7,-1
 489 401 l 1,8,-1
 489 482 l 1,0,-1
964 713 m 2,9,10
 964 842 964 842 940 886 c 0,11,12
 913 933 913 933 852 933 c 256,13,14
 790 933 790 933 764 886 c 256,15,16
 736 838 736 838 736 713 c 2,17,-1
 736 693 l 1,18,-1
 964 693 l 1,19,-1
 964 713 l 2,9,10
736 479 m 1,20,21
 736 336 736 336 785.5 260 c 128,-1,22
 835 184 835 184 933 184 c 0,23,24
 1052 184 1052 184 1171 302 c 1,25,-1
 1171 58 l 1,26,27
 1079 -30 1079 -30 913 -30 c 0,28,29
 706 -30 706 -30 618 136 c 1,30,31
 537 -30 537 -30 350 -30 c 0,32,33
 187 -30 187 -30 100 61 c 128,-1,34
 13 152 13 152 13 326 c 0,35,36
 13 696 13 696 421 696 c 2,37,-1
 495 696 l 1,38,-1
 495 747 l 2,39,40
 495 933 495 933 343 933 c 0,41,42
 230 933 230 933 75 825 c 1,43,-1
 75 1069 l 1,44,45
 220 1147 220 1147 353 1147 c 0,46,47
 547 1147 547 1147 615 1021 c 1,48,49
 641 1082 641 1082 707.5 1114.5 c 128,-1,50
 774 1147 774 1147 865 1147 c 0,51,52
 1042 1147 1042 1147 1117 1029 c 0,53,54
 1188 913 1188 913 1188 608 c 2,55,-1
 1188 479 l 1,56,-1
 736 479 l 1,20,21
EndSplineSet
EndChar

StartChar: oslash
Encoding: 248 248 161
Width: 1234
VWidth: 3393
Flags: W
HStem: -30 240<493.93 739.07> 910 237<495.23 706.403>
VStem: 98 293<457.29 789.091> 842 295<328.758 644.594>
LayerCount: 2
Fore
SplineSet
482 262 m 1,0,1
 550 210 550 210 618 210 c 0,2,3
 722 210 722 210 784 302 c 0,4,5
 842 401 842 401 842 560 c 0,6,7
 842 587 842 587 840 617.5 c 128,-1,8
 838 648 838 648 832 676 c 1,9,-1
 482 262 l 1,0,1
747 862 m 1,10,11
 719 886 719 886 688.5 898 c 128,-1,12
 658 910 658 910 618 910 c 0,13,14
 512 910 512 910 451.5 818 c 128,-1,15
 391 726 391 726 391 560 c 0,16,17
 391 499 391 499 401 447 c 1,18,-1
 747 862 l 1,10,11
187 200 m 1,19,20
 98 346 98 346 98 560 c 0,21,22
 98 828 98 828 237 988 c 256,23,24
 376 1147 376 1147 618 1147 c 0,25,26
 787 1147 787 1147 916 1059 c 1,27,-1
 1065 1234 l 1,28,-1
 1205 1117 l 1,29,-1
 1042 926 l 1,30,31
 1137 767 1137 767 1137 560 c 0,32,33
 1137 288 1137 288 994 129 c 0,34,35
 855 -30 855 -30 618 -30 c 0,36,37
 447 -30 447 -30 315 61 c 1,38,-1
 162 -119 l 1,39,-1
 23 3 l 1,40,-1
 187 200 l 1,19,20
EndSplineSet
EndChar

StartChar: questiondown
Encoding: 191 191 162
Width: 1234
VWidth: 3393
Flags: W
HStem: -27 241<498.171 840.321> 1211 282<534 800>
VStem: 176 286<251.026 432.65> 534 266<866.36 923 930 1092 1211 1493>
LayerCount: 2
Fore
SplineSet
534 1211 m 1,0,-1
 534 1493 l 1,1,-1
 800 1493 l 1,2,-1
 800 1211 l 1,3,-1
 534 1211 l 1,0,-1
800 1092 m 1,4,-1
 800 940 l 2,5,6
 800 838 800 838 771 771 c 0,7,8
 732 696 732 696 658 621 c 2,9,-1
 567 534 l 2,10,11
 509 476 509 476 482 431 c 0,12,13
 462 391 462 391 462 350 c 0,14,15
 462 214 462 214 645 214 c 0,16,17
 810 214 810 214 1007 353 c 1,18,-1
 1007 85 l 1,19,20
 810 -27 810 -27 608 -27 c 0,21,22
 401 -27 401 -27 292 68 c 0,23,24
 176 159 176 159 176 326 c 0,25,26
 176 404 176 404 210 469 c 0,27,28
 249 537 249 537 340 625 c 2,29,-1
 428 713 l 2,30,31
 462 744 462 744 482 770.5 c 128,-1,32
 502 797 502 797 512 819 c 256,33,34
 522 838 522 838 525.5 865.5 c 128,-1,35
 529 893 529 893 529 923 c 1,36,37
 534 930 l 1,38,-1
 534 971 l 1,39,-1
 534 1092 l 1,40,-1
 800 1092 l 1,4,-1
EndSplineSet
EndChar

StartChar: exclamdown
Encoding: 161 161 163
Width: 1234
VWidth: 3393
Flags: W
HStem: 0 21G<482 751> 1211 282<482 751>
VStem: 482 269<0 728.523 1211 1493>
LayerCount: 2
Fore
SplineSet
482 1211 m 1,0,-1
 482 1493 l 1,1,-1
 751 1493 l 1,2,-1
 751 1211 l 1,3,-1
 482 1211 l 1,0,-1
482 0 m 1,4,-1
 482 655 l 1,5,-1
 515 1014 l 1,6,-1
 716 1014 l 1,7,-1
 751 655 l 1,8,-1
 751 0 l 1,9,-1
 482 0 l 1,4,-1
EndSplineSet
EndChar

StartChar: logicalnot
Encoding: 172 172 164
Width: 1234
VWidth: 3393
Flags: W
HStem: 363 537<910 1147> 661 239<88 910>
VStem: 910 237<363 661>
LayerCount: 2
Fore
SplineSet
1147 900 m 1,0,-1
 1147 363 l 1,1,-1
 910 363 l 1,2,-1
 910 661 l 1,3,-1
 88 661 l 1,4,-1
 88 900 l 1,5,-1
 1147 900 l 1,0,-1
EndSplineSet
EndChar

StartChar: radical
Encoding: 8730 8730 165
Width: 1234
VWidth: 3393
Flags: W
LayerCount: 2
Fore
SplineSet
48 868 m 1,0,-1
 401 991 l 1,1,-1
 570 411 l 1,2,-1
 961 1727 l 1,3,-1
 1175 1727 l 1,4,-1
 1175 1521 l 1,5,-1
 1123 1521 l 1,6,-1
 661 -41 l 1,7,-1
 476 -41 l 1,8,-1
 258 722 l 1,9,-1
 113 673 l 1,10,-1
 48 868 l 1,0,-1
EndSplineSet
EndChar

StartChar: florin
Encoding: 402 402 166
Width: 1234
VWidth: 3393
Flags: W
HStem: -428 231<29.8026 300.561> 664 222<220 472 754 1014> 1327 231<870.363 1137.24>
LayerCount: 2
Fore
SplineSet
1153 1276 m 1,0,1
 1072 1327 1072 1327 994 1327 c 0,2,3
 815 1327 815 1327 780 1075 c 2,4,-1
 754 886 l 1,5,-1
 1014 886 l 1,6,-1
 1014 664 l 1,7,-1
 726 664 l 1,8,-1
 631 -48 l 2,9,10
 605 -230 605 -230 506.5 -329 c 128,-1,11
 408 -428 408 -428 244 -428 c 0,12,13
 123 -428 123 -428 13 -376 c 1,14,-1
 13 -143 l 1,15,16
 101 -197 101 -197 172 -197 c 0,17,18
 360 -197 360 -197 391 55 c 2,19,-1
 472 664 l 1,20,-1
 220 664 l 1,21,-1
 220 886 l 1,22,-1
 502 886 l 1,23,-1
 540 1181 l 2,24,25
 563 1360 563 1360 663.5 1459 c 128,-1,26
 764 1558 764 1558 926 1558 c 0,27,28
 1049 1558 1049 1558 1153 1506 c 1,29,-1
 1153 1276 l 1,0,1
EndSplineSet
EndChar

StartChar: approxequal
Encoding: 8776 8776 167
Width: 1234
VWidth: 3393
Flags: W
HStem: 255 224<677.416 978.367> 376 224<220.645 467.794> 673 223<668.916 1018.49> 797 220<220.645 450.753>
LayerCount: 2
Fore
SplineSet
1147 370 m 1,0,1
 1069 308 1069 308 997.5 281.5 c 128,-1,2
 926 255 926 255 848 255 c 0,3,4
 757 255 757 255 645 305 c 0,5,6
 635 312 635 312 628 313.5 c 128,-1,7
 621 315 621 315 615 320 c 0,8,9
 573 336 573 336 541 348 c 128,-1,10
 509 360 509 360 482 366 c 0,11,12
 431 376 431 376 379 376 c 0,13,14
 230 376 230 376 88 258 c 1,15,-1
 88 486 l 1,16,17
 166 547 166 547 239 573.5 c 128,-1,18
 312 600 312 600 398 600 c 0,19,20
 444 600 444 600 500.5 586.5 c 128,-1,21
 557 573 557 573 621 547 c 0,22,23
 628 543 628 543 636.5 540 c 128,-1,24
 645 537 645 537 655 534 c 0,25,26
 764 479 764 479 865 479 c 0,27,28
 1001 479 1001 479 1147 605 c 1,29,-1
 1147 370 l 1,0,1
1147 787 m 1,30,31
 998 673 998 673 848 673 c 0,32,33
 757 673 757 673 645 722 c 0,34,35
 618 736 618 736 615 736 c 1,36,37
 573 754 573 754 541 765.5 c 128,-1,38
 509 777 509 777 482 784 c 256,39,40
 454 790 454 790 431 793.5 c 128,-1,41
 408 797 408 797 379 797 c 0,42,43
 230 797 230 797 88 676 c 1,44,-1
 88 903 l 1,45,46
 166 964 166 964 239 990.5 c 128,-1,47
 312 1017 312 1017 398 1017 c 0,48,49
 444 1017 444 1017 500.5 1004 c 128,-1,50
 557 991 557 991 621 964 c 0,51,52
 641 958 641 958 651 949 c 0,53,54
 764 896 764 896 865 896 c 0,55,56
 936 896 936 896 1004 924.5 c 128,-1,57
 1072 953 1072 953 1147 1021 c 1,58,-1
 1147 787 l 1,30,31
EndSplineSet
EndChar

StartChar: Delta
Encoding: 8710 8710 168
Width: 1234
VWidth: 3393
Flags: W
HStem: 0 220<343 893>
LayerCount: 2
Fore
SplineSet
618 1042 m 1,0,-1
 343 220 l 1,1,-1
 893 220 l 1,2,-1
 618 1042 l 1,0,-1
747 1425 m 1,3,-1
 1243 0 l 1,4,-1
 -7 0 l 1,5,-1
 489 1425 l 1,6,-1
 747 1425 l 1,3,-1
EndSplineSet
EndChar

StartChar: guillemotleft
Encoding: 171 171 169
Width: 1234
VWidth: 3393
Flags: W
HStem: 143 916<1042 1042 1042 1042>
VStem: 119 923<537 822 537 537>
LayerCount: 2
Fore
SplineSet
1042 822 m 1,0,-1
 767 600 l 1,1,-1
 1042 379 l 1,2,-1
 1042 143 l 1,3,-1
 573 537 l 1,4,-1
 573 664 l 1,5,-1
 1042 1059 l 1,6,-1
 1042 822 l 1,0,-1
587 822 m 1,7,-1
 312 600 l 1,8,-1
 587 379 l 1,9,-1
 587 143 l 1,10,-1
 119 537 l 1,11,-1
 119 664 l 1,12,-1
 587 1059 l 1,13,-1
 587 822 l 1,7,-1
EndSplineSet
EndChar

StartChar: guillemotright
Encoding: 187 187 170
Width: 1234
VWidth: 3393
Flags: W
HStem: 143 916<194 194 194 194>
VStem: 194 923<143 664 143 143>
LayerCount: 2
Fore
SplineSet
661 664 m 1,0,-1
 661 537 l 1,1,-1
 194 143 l 1,2,-1
 194 379 l 1,3,-1
 469 600 l 1,4,-1
 194 822 l 1,5,-1
 194 1059 l 1,6,-1
 661 664 l 1,0,-1
1117 664 m 1,7,-1
 1117 537 l 1,8,-1
 648 143 l 1,9,-1
 648 379 l 1,10,-1
 926 600 l 1,11,-1
 648 822 l 1,12,-1
 648 1059 l 1,13,-1
 1117 664 l 1,7,-1
EndSplineSet
EndChar

StartChar: ellipsis
Encoding: 8230 8230 171
Width: 1234
VWidth: 3393
Flags: W
HStem: 0 366<58 353 469 764 882 1178>
VStem: 58 295<0 366> 469 295<0 366> 882 296<0 366>
LayerCount: 2
Fore
SplineSet
1178 366 m 1,0,-1
 1178 0 l 1,1,-1
 882 0 l 1,2,-1
 882 366 l 1,3,-1
 1178 366 l 1,0,-1
764 366 m 1,4,-1
 764 0 l 1,5,-1
 469 0 l 1,6,-1
 469 366 l 1,7,-1
 764 366 l 1,4,-1
353 366 m 1,8,-1
 353 0 l 1,9,-1
 58 0 l 1,10,-1
 58 366 l 1,11,-1
 353 366 l 1,8,-1
EndSplineSet
EndChar

StartChar: OE
Encoding: 338 338 176
Width: 1234
VWidth: 3393
Flags: W
HStem: 0 262<434.529 621 875 1218> 661 262<875 1178> 1234 259<436.807 621 875 1208>
VStem: 68 285<353.19 1134.5> 621 254<262 661 923 1234>
LayerCount: 2
Fore
SplineSet
1218 0 m 1,0,-1
 635 0 l 2,1,2
 308 0 308 0 187 156 c 0,3,4
 68 312 68 312 68 747 c 0,5,6
 68 1185 68 1185 191 1337 c 0,7,8
 312 1493 312 1493 635 1493 c 2,9,-1
 1208 1493 l 1,10,-1
 1208 1234 l 1,11,-1
 875 1234 l 1,12,-1
 875 923 l 1,13,-1
 1178 923 l 1,14,-1
 1178 661 l 1,15,-1
 875 661 l 1,16,-1
 875 262 l 1,17,-1
 1218 262 l 1,18,-1
 1218 0 l 1,0,-1
570 1234 m 1,19,20
 447 1234 447 1234 401 1143 c 0,21,22
 353 1056 353 1056 353 747 c 0,23,24
 353 434 353 434 401 346 c 0,25,26
 444 262 444 262 570 262 c 2,27,-1
 621 262 l 1,28,-1
 621 1234 l 1,29,-1
 570 1234 l 1,19,20
EndSplineSet
EndChar

StartChar: oe
Encoding: 339 339 177
Width: 1234
VWidth: 3393
Flags: W
HStem: -30 214<291.039 476.766 835.798 1100.79> 479 214<761 988> 936 211<293.089 478.414 791.123 959.659>
VStem: 13 236<241.787 878.044> 519 242<267.272 479 693 865.741> 988 223<693 889.06>
LayerCount: 2
Fore
SplineSet
761 479 m 1,0,1
 761 336 761 336 809.5 260 c 128,-1,2
 858 184 858 184 953 184 c 0,3,4
 1075 184 1075 184 1195 302 c 1,5,-1
 1195 58 l 1,6,7
 1104 -30 1104 -30 936 -30 c 0,8,9
 747 -30 747 -30 648 119 c 1,10,11
 570 -30 570 -30 373 -30 c 0,12,13
 187 -30 187 -30 98 109 c 0,14,15
 13 244 13 244 13 560 c 256,16,17
 13 875 13 875 98 1011 c 256,18,19
 184 1147 184 1147 373 1147 c 0,20,21
 472 1147 472 1147 534.5 1118 c 128,-1,22
 597 1089 597 1089 638 1021 c 1,23,24
 696 1147 696 1147 890 1147 c 0,25,26
 1069 1147 1069 1147 1137 1029 c 0,27,28
 1211 913 1211 913 1211 608 c 2,29,-1
 1211 479 l 1,30,-1
 761 479 l 1,0,1
988 726 m 2,31,32
 988 845 988 845 962 890.5 c 128,-1,33
 936 936 936 936 872 936 c 0,34,35
 815 936 815 936 787 886 c 0,36,37
 761 838 761 838 761 713 c 2,38,-1
 761 693 l 1,39,-1
 988 693 l 1,40,-1
 988 726 l 2,31,32
519 560 m 256,41,42
 519 797 519 797 492 868 c 0,43,44
 462 936 462 936 386 936 c 0,45,46
 308 936 308 936 278 868 c 0,47,48
 249 804 249 804 249 560 c 0,49,50
 249 320 249 320 278 252 c 256,51,52
 308 184 308 184 386 184 c 0,53,54
 462 184 462 184 492 252 c 0,55,56
 519 323 519 323 519 560 c 256,41,42
EndSplineSet
EndChar

StartChar: endash
Encoding: 8211 8211 178
Width: 1234
VWidth: 3393
Flags: W
HStem: 444 249<0 1234>
LayerCount: 2
Fore
SplineSet
1234 693 m 1,0,-1
 1234 444 l 1,1,-1
 0 444 l 1,2,-1
 0 693 l 1,3,-1
 1234 693 l 1,0,-1
EndSplineSet
EndChar

StartChar: emdash
Encoding: 8212 8212 179
Width: 1234
VWidth: 3393
Flags: W
HStem: 444 249<0 1234>
LayerCount: 2
Fore
SplineSet
1234 693 m 1,0,-1
 1234 444 l 1,1,-1
 0 444 l 1,2,-1
 0 693 l 1,3,-1
 1234 693 l 1,0,-1
EndSplineSet
EndChar

StartChar: quotedblleft
Encoding: 8220 8220 180
Width: 1234
VWidth: 3393
Flags: W
HStem: 903 655<350 466 868 988>
VStem: 152 314<903 1175> 673 315<903 1175>
LayerCount: 2
Fore
SplineSet
152 903 m 1,0,-1
 152 1175 l 1,1,-1
 350 1558 l 1,2,-1
 563 1558 l 1,3,-1
 466 1175 l 1,4,-1
 466 903 l 1,5,-1
 152 903 l 1,0,-1
673 903 m 1,6,-1
 673 1175 l 1,7,-1
 868 1558 l 1,8,-1
 1082 1558 l 1,9,-1
 988 1175 l 1,10,-1
 988 903 l 1,11,-1
 673 903 l 1,6,-1
EndSplineSet
EndChar

StartChar: quotedblright
Encoding: 8221 8221 181
Width: 1234
VWidth: 3393
Flags: W
HStem: 903 655<249 366 771 886>
VStem: 249 311<1286 1558> 771 311<1286 1558>
LayerCount: 2
Fore
SplineSet
1082 1558 m 1,0,-1
 1082 1286 l 1,1,-1
 886 903 l 1,2,-1
 673 903 l 1,3,-1
 771 1286 l 1,4,-1
 771 1558 l 1,5,-1
 1082 1558 l 1,0,-1
560 1558 m 1,6,-1
 560 1286 l 1,7,-1
 366 903 l 1,8,-1
 149 903 l 1,9,-1
 249 1286 l 1,10,-1
 249 1558 l 1,11,-1
 560 1558 l 1,6,-1
EndSplineSet
EndChar

StartChar: quoteleft
Encoding: 8216 8216 182
Width: 1234
VWidth: 3393
Flags: W
HStem: 903 655<631 747>
VStem: 431 316<903 1175>
LayerCount: 2
Fore
SplineSet
431 903 m 1,0,-1
 431 1175 l 1,1,-1
 631 1558 l 1,2,-1
 845 1558 l 1,3,-1
 747 1175 l 1,4,-1
 747 903 l 1,5,-1
 431 903 l 1,0,-1
EndSplineSet
EndChar

StartChar: quoteright
Encoding: 8217 8217 183
Width: 1234
VWidth: 3393
Flags: W
HStem: 903 655<529 648>
VStem: 529 316<1286 1558>
LayerCount: 2
Fore
SplineSet
845 1558 m 1,0,-1
 845 1286 l 1,1,-1
 648 903 l 1,2,-1
 431 903 l 1,3,-1
 529 1286 l 1,4,-1
 529 1558 l 1,5,-1
 845 1558 l 1,0,-1
EndSplineSet
EndChar

StartChar: divide
Encoding: 247 247 184
Width: 1234
VWidth: 3393
Flags: W
HStem: 85 313<462 771> 525 239<65 1168> 890 308<462 771>
VStem: 462 309<85 398 890 1198>
LayerCount: 2
Fore
SplineSet
771 1198 m 1,0,-1
 771 890 l 1,1,-1
 462 890 l 1,2,-1
 462 1198 l 1,3,-1
 771 1198 l 1,0,-1
771 398 m 1,4,-1
 771 85 l 1,5,-1
 462 85 l 1,6,-1
 462 398 l 1,7,-1
 771 398 l 1,4,-1
1168 764 m 1,8,-1
 1168 525 l 1,9,-1
 65 525 l 1,10,-1
 65 764 l 1,11,-1
 1168 764 l 1,8,-1
EndSplineSet
EndChar

StartChar: lozenge
Encoding: 9674 9674 185
Width: 1234
VWidth: 3393
Flags: W
VStem: 119 998<593 593 593 593>
LayerCount: 2
Fore
SplineSet
230 593 m 1,0,-1
 618 -234 l 1,1,-1
 1001 593 l 1,2,-1
 618 1412 l 1,3,-1
 230 593 l 1,0,-1
1117 593 m 1,4,-1
 618 -479 l 1,5,-1
 119 593 l 1,6,-1
 618 1655 l 1,7,-1
 1117 593 l 1,4,-1
EndSplineSet
EndChar

StartChar: fraction
Encoding: 8725 8725 188
Width: 1234
VWidth: 3393
Flags: W
HStem: 1473 20G<880.643 1130>
LayerCount: 2
Fore
SplineSet
1130 1493 m 1,0,-1
 343 -187 l 1,1,-1
 104 -187 l 1,2,-1
 890 1493 l 1,3,-1
 1130 1493 l 1,0,-1
EndSplineSet
EndChar

StartChar: currency
Encoding: 164 164 189
Width: 1234
VWidth: 3393
Flags: W
HStem: 302 167<535.814 770.954> 815 169<533.046 772.977>
VStem: 312 167<525.54 760.414> 828 166<525.947 760.292>
LayerCount: 2
Fore
SplineSet
828 645 m 0,0,1
 828 716 828 716 777 767 c 0,2,3
 722 815 722 815 655 815 c 0,4,5
 583 815 583 815 529 767 c 0,6,7
 479 716 479 716 479 645 c 0,8,9
 479 570 479 570 529 519 c 256,10,11
 580 469 580 469 655 469 c 0,12,13
 726 469 726 469 777 519 c 256,14,15
 828 570 828 570 828 645 c 0,0,1
991 1110 m 1,16,-1
 1120 981 l 1,17,-1
 949 810 l 1,18,19
 994 726 994 726 994 641 c 0,20,21
 994 547 994 547 946 479 c 1,22,-1
 1120 308 l 1,23,-1
 988 176 l 1,24,-1
 819 350 l 1,25,26
 751 302 751 302 655 302 c 0,27,28
 577 302 577 302 486 343 c 1,29,-1
 315 176 l 1,30,-1
 187 305 l 1,31,-1
 356 476 l 1,32,33
 312 560 312 560 312 641 c 0,34,35
 312 736 312 736 360 807 c 1,36,-1
 187 978 l 1,37,-1
 320 1110 l 1,38,-1
 482 936 l 1,39,40
 563 984 563 984 655 984 c 0,41,42
 732 984 732 984 822 940 c 1,43,-1
 991 1110 l 1,16,-1
EndSplineSet
EndChar

StartChar: guilsinglleft
Encoding: 8249 8249 190
Width: 1234
VWidth: 3393
Flags: W
HStem: 143 916<815 815 815 815>
VStem: 346 469<537 822 537 537>
LayerCount: 2
Fore
SplineSet
815 822 m 1,0,-1
 540 600 l 1,1,-1
 815 379 l 1,2,-1
 815 143 l 1,3,-1
 346 537 l 1,4,-1
 346 664 l 1,5,-1
 815 1059 l 1,6,-1
 815 822 l 1,0,-1
EndSplineSet
EndChar

StartChar: guilsinglright
Encoding: 8250 8250 191
Width: 1234
VWidth: 3393
Flags: W
HStem: 143 916<421 421 421 421>
VStem: 421 469<143 664 143 143>
LayerCount: 2
Fore
SplineSet
890 664 m 1,0,-1
 890 537 l 1,1,-1
 421 143 l 1,2,-1
 421 379 l 1,3,-1
 699 600 l 1,4,-1
 421 822 l 1,5,-1
 421 1059 l 1,6,-1
 890 664 l 1,0,-1
EndSplineSet
EndChar

StartChar: fi
Encoding: 64257 64257 192
Width: 1234
VWidth: 3393
Flags: W
HStem: 0 21G<200 495 804 1100> 896 224<13 200 495 804> 1266 292<804 1100> 1334 224<519.975 676>
VStem: 200 295<0 896 1120 1310.21> 804 296<0 896 1266 1558>
LayerCount: 2
Fore
SplineSet
1100 1558 m 1,0,-1
 1100 1266 l 1,1,-1
 804 1266 l 1,2,-1
 804 1558 l 1,3,-1
 1100 1558 l 1,0,-1
495 1120 m 1,4,-1
 1100 1120 l 1,5,-1
 1100 0 l 1,6,-1
 804 0 l 1,7,-1
 804 896 l 1,8,-1
 495 896 l 1,9,-1
 495 0 l 1,10,-1
 200 0 l 1,11,-1
 200 896 l 1,12,-1
 13 896 l 1,13,-1
 13 1120 l 1,14,-1
 200 1120 l 1,15,-1
 200 1198 l 2,16,17
 200 1402 200 1402 285 1480 c 256,18,19
 370 1558 370 1558 597 1558 c 2,20,-1
 676 1558 l 1,21,-1
 676 1334 l 1,22,-1
 608 1334 l 2,23,24
 550 1334 550 1334 519 1311 c 0,25,26
 495 1286 495 1286 495 1221 c 2,27,-1
 495 1120 l 1,4,-1
EndSplineSet
Ligature2: "'liga' Standard Ligatures in Latin lookup 19 subtable" f i
EndChar

StartChar: fl
Encoding: 64258 64258 193
Width: 1234
VWidth: 3393
Flags: W
HStem: 0 21G<200 495 804 1100> 896 224<13 200 495 683> 1334 224<519.975 804>
VStem: 200 295<0 896 1120 1310.21> 804 296<0 1334>
LayerCount: 2
Fore
SplineSet
495 1120 m 1,0,-1
 683 1120 l 1,1,-1
 683 896 l 1,2,-1
 495 896 l 1,3,-1
 495 0 l 1,4,-1
 200 0 l 1,5,-1
 200 896 l 1,6,-1
 13 896 l 1,7,-1
 13 1120 l 1,8,-1
 200 1120 l 1,9,-1
 200 1198 l 2,10,11
 200 1402 200 1402 285 1480 c 256,12,13
 370 1558 370 1558 597 1558 c 2,14,-1
 1100 1558 l 1,15,-1
 1100 0 l 1,16,-1
 804 0 l 1,17,-1
 804 1334 l 1,18,-1
 608 1334 l 2,19,20
 550 1334 550 1334 519 1311 c 0,21,22
 495 1286 495 1286 495 1221 c 2,23,-1
 495 1120 l 1,0,-1
EndSplineSet
Ligature2: "'liga' Standard Ligatures in Latin lookup 19 subtable" f l
EndChar

StartChar: daggerdbl
Encoding: 8225 8225 194
Width: 1234
VWidth: 3393
Flags: W
HStem: 191 223<156 489 744 1075> 882 225<156 489 744 1075> 1473 20G<489 744>
VStem: 156 919<191 414 882 1107 191 1107 191 191> 489 255<-197 191 414 882 1107 1493>
LayerCount: 2
Fore
SplineSet
744 1493 m 1,0,-1
 744 1107 l 1,1,-1
 1075 1107 l 1,2,-1
 1075 882 l 1,3,-1
 744 882 l 1,4,-1
 744 414 l 1,5,-1
 1075 414 l 1,6,-1
 1075 191 l 1,7,-1
 744 191 l 1,8,-1
 744 -197 l 1,9,-1
 489 -197 l 1,10,-1
 489 191 l 1,11,-1
 156 191 l 1,12,-1
 156 414 l 1,13,-1
 489 414 l 1,14,-1
 489 882 l 1,15,-1
 156 882 l 1,16,-1
 156 1107 l 1,17,-1
 489 1107 l 1,18,-1
 489 1493 l 1,19,-1
 744 1493 l 1,0,-1
EndSplineSet
EndChar

StartChar: periodcentered
Encoding: 183 183 195
Width: 1234
VWidth: 3393
Flags: W
HStem: 529 367<447 784>
VStem: 447 337<529 896>
LayerCount: 2
Fore
SplineSet
784 896 m 1,0,-1
 784 529 l 1,1,-1
 447 529 l 1,2,-1
 447 896 l 1,3,-1
 784 896 l 1,0,-1
EndSplineSet
EndChar

StartChar: quotesinglbase
Encoding: 8218 8218 196
Width: 1234
VWidth: 3393
Flags: W
HStem: -288 654<462 580>
VStem: 462 312<94 366>
LayerCount: 2
Fore
SplineSet
774 366 m 1,0,-1
 774 94 l 1,1,-1
 580 -288 l 1,2,-1
 363 -288 l 1,3,-1
 462 94 l 1,4,-1
 462 366 l 1,5,-1
 774 366 l 1,0,-1
EndSplineSet
EndChar

StartChar: quotedblbase
Encoding: 8222 8222 197
Width: 1234
VWidth: 3393
Flags: W
HStem: -288 654<249 366 771 886>
VStem: 249 311<94 366> 771 311<94 366>
LayerCount: 2
Fore
SplineSet
1082 366 m 1,0,-1
 1082 94 l 1,1,-1
 886 -288 l 1,2,-1
 673 -288 l 1,3,-1
 771 94 l 1,4,-1
 771 366 l 1,5,-1
 1082 366 l 1,0,-1
560 366 m 1,6,-1
 560 94 l 1,7,-1
 366 -288 l 1,8,-1
 149 -288 l 1,9,-1
 249 94 l 1,10,-1
 249 366 l 1,11,-1
 560 366 l 1,6,-1
EndSplineSet
EndChar

StartChar: perthousand
Encoding: 8240 8240 198
Width: 1234
VWidth: 3393
Flags: W
HStem: 0 162<242.063 420.079 856.06 1037.63> 414 163<241.819 420.141 856.054 1037.74> 858 159<196.901 373.881> 1273 159<194.469 373.727>
VStem: 0 162<1055.1 1240.15> 45 162<197.492 380.981> 411 159<1056.39 1235.28> 454 164<197.59 378.857> 661 164<201.067 374.963> 1072 162<197.59 378.857>
LayerCount: 2
Fore
SplineSet
661 288 m 1,0,1
 661 411 661 411 744 492 c 0,2,3
 835 577 835 577 946 577 c 256,4,5
 1059 577 1059 577 1150 492 c 0,6,7
 1234 408 1234 408 1234 288 c 0,8,9
 1234 176 1234 176 1150 85 c 0,10,11
 1065 0 1065 0 946 0 c 256,12,13
 828 0 828 0 747 81 c 0,14,15
 661 172 661 172 661 285 c 2,16,-1
 661 288 l 1,0,1
946 414 m 0,17,18
 903 414 903 414 858 376 c 0,19,20
 825 343 825 343 825 288 c 256,21,22
 825 234 825 234 858 200 c 0,23,24
 893 162 893 162 946 162 c 256,25,26
 1001 162 1001 162 1036 200 c 0,27,28
 1072 237 1072 237 1072 288 c 256,29,30
 1072 340 1072 340 1036 376 c 256,31,32
 998 414 998 414 946 414 c 0,17,18
0 1147 m 0,33,34
 0 1266 0 1266 81 1350 c 0,35,36
 169 1432 169 1432 288 1432 c 256,37,38
 408 1432 408 1432 489 1350 c 0,39,40
 570 1266 570 1266 570 1147 c 256,41,42
 570 1029 570 1029 489 940 c 0,43,44
 408 858 408 858 288 858 c 0,45,46
 166 858 166 858 85 940 c 0,47,48
 0 1024 0 1024 0 1147 c 0,33,34
285 1273 m 0,49,50
 234 1273 234 1273 198 1237 c 128,-1,51
 162 1201 162 1201 162 1147 c 256,52,53
 162 1092 162 1092 197 1059 c 0,54,55
 234 1017 234 1017 285 1017 c 0,56,57
 340 1017 340 1017 373 1059 c 0,58,59
 411 1097 411 1097 411 1147 c 0,60,61
 411 1191 411 1191 373 1234 c 1,62,63
 330 1273 330 1273 285 1273 c 0,49,50
45 288 m 0,64,65
 45 411 45 411 126 492 c 0,66,67
 217 577 217 577 330 577 c 0,68,69
 447 577 447 577 534 492 c 256,70,71
 618 408 618 408 618 288 c 0,72,73
 618 176 618 176 534 85 c 0,74,75
 447 0 447 0 330 0 c 256,76,77
 210 0 210 0 129 85 c 0,78,79
 45 169 45 169 45 288 c 0,64,65
330 414 m 0,80,81
 278 414 278 414 244 379 c 0,82,83
 207 336 207 336 207 292 c 0,84,85
 207 237 207 237 244 200 c 256,86,87
 282 162 282 162 330 162 c 0,88,89
 379 162 379 162 418 200 c 256,90,91
 454 237 454 237 454 292 c 0,92,93
 454 340 454 340 418 376 c 0,94,95
 383 414 383 414 330 414 c 0,80,81
1079 1079 m 1,96,-1
 1120 988 l 1,97,-1
 71 567 l 1,98,-1
 33 664 l 1,99,-1
 1079 1079 l 1,96,-1
EndSplineSet
EndChar

StartChar: dotlessi
Encoding: 305 305 214
Width: 1234
VWidth: 3393
Flags: W
HStem: 0 224<143 509 800 1168> 896 224<220 509>
VStem: 509 291<224 896>
LayerCount: 2
Fore
SplineSet
800 1120 m 1,0,-1
 800 224 l 1,1,-1
 1168 224 l 1,2,-1
 1168 0 l 1,3,-1
 143 0 l 1,4,-1
 143 224 l 1,5,-1
 509 224 l 1,6,-1
 509 896 l 1,7,-1
 220 896 l 1,8,-1
 220 1120 l 1,9,-1
 800 1120 l 1,0,-1
EndSplineSet
EndChar

StartChar: circumflex
Encoding: 710 710 215
Width: 1234
VWidth: 3393
Flags: W
HStem: 1263 376<736 994 736 736>
VStem: 240 754<1263 1263 1263 1263>
LayerCount: 2
Fore
SplineSet
736 1639 m 1,0,-1
 994 1263 l 1,1,-1
 815 1263 l 1,2,-1
 618 1490 l 1,3,-1
 418 1263 l 1,4,-1
 240 1263 l 1,5,-1
 495 1639 l 1,6,-1
 736 1639 l 1,0,-1
EndSplineSet
EndChar

StartChar: tilde
Encoding: 732 732 216
Width: 1234
VWidth: 3393
Flags: W
HStem: 1311 152<713.681 812.639> 1438 158<420.052 543.211>
VStem: 268 140<1311 1431.57> 825 143<1469.65 1584 1584 1592>
LayerCount: 2
Fore
SplineSet
563 1402 m 2,0,1
 560 1405 560 1405 558.5 1405 c 128,-1,2
 557 1405 557 1405 553 1412 c 1,3,4
 505 1438 505 1438 482 1438 c 0,5,6
 408 1438 408 1438 408 1321 c 2,7,-1
 408 1311 l 1,8,-1
 268 1311 l 1,9,10
 268 1448 268 1448 319 1522 c 128,-1,11
 370 1596 370 1596 466 1596 c 0,12,13
 537 1596 537 1596 615 1538 c 2,14,-1
 676 1493 l 2,15,16
 699 1480 699 1480 715.5 1471.5 c 128,-1,17
 732 1463 732 1463 751 1463 c 0,18,19
 825 1463 825 1463 825 1584 c 2,20,-1
 825 1592 l 1,21,-1
 968 1592 l 1,22,23
 968 1457 968 1457 915 1384 c 128,-1,24
 862 1311 862 1311 771 1311 c 0,25,26
 732 1311 732 1311 698 1321 c 128,-1,27
 664 1331 664 1331 618 1364 c 2,28,-1
 563 1402 l 2,0,1
EndSplineSet
EndChar

StartChar: macron
Encoding: 175 175 217
Width: 1234
VWidth: 3393
Flags: W
HStem: 1370 188<302 933 302 933 302 302>
LayerCount: 2
Fore
SplineSet
933 1558 m 1,0,-1
 933 1370 l 1,1,-1
 302 1370 l 1,2,-1
 302 1558 l 1,3,-1
 933 1558 l 1,0,-1
EndSplineSet
EndChar

StartChar: breve
Encoding: 728 728 218
Width: 1234
VWidth: 3393
Flags: W
HStem: 1311 152<475.23 757.94>
VStem: 810 143<1507.45 1609>
LayerCount: 2
Fore
SplineSet
421 1609 m 1,0,1
 447 1463 447 1463 618 1463 c 0,2,3
 784 1463 784 1463 810 1609 c 1,4,-1
 953 1609 l 1,5,6
 936 1311 936 1311 618 1311 c 0,7,8
 457 1311 457 1311 372.5 1387 c 128,-1,9
 288 1463 288 1463 282 1609 c 1,10,-1
 421 1609 l 1,0,1
EndSplineSet
EndChar

StartChar: dotaccent
Encoding: 729 729 219
Width: 1234
VWidth: 3393
Flags: W
HStem: 1341 246<479 754>
VStem: 479 275<1341 1587>
LayerCount: 2
Fore
SplineSet
754 1587 m 1,0,-1
 754 1341 l 1,1,-1
 479 1341 l 1,2,-1
 479 1587 l 1,3,-1
 754 1587 l 1,0,-1
EndSplineSet
EndChar

StartChar: ring
Encoding: 730 730 220
Width: 1234
VWidth: 3393
Flags: W
HStem: 1249 156<538.132 711.82> 1667 156<538.989 710.088>
VStem: 333 153<1439.17 1630.73> 751 152<1442.49 1629.18>
LayerCount: 2
Fore
SplineSet
333 1538 m 0,0,1
 333 1655 333 1655 414 1738 c 0,2,3
 457 1778 457 1778 507 1800.5 c 128,-1,4
 557 1823 557 1823 618 1823 c 0,5,6
 732 1823 732 1823 819 1738 c 0,7,8
 903 1655 903 1655 903 1538 c 0,9,10
 903 1415 903 1415 819 1334 c 0,11,12
 732 1249 732 1249 618 1249 c 0,13,14
 557 1249 557 1249 507 1270.5 c 128,-1,15
 457 1292 457 1292 414 1334 c 0,16,17
 333 1415 333 1415 333 1538 c 0,0,1
486 1538 m 0,18,19
 486 1480 486 1480 522 1442 c 0,20,21
 567 1405 567 1405 618 1405 c 0,22,23
 673 1405 673 1405 709 1442 c 0,24,25
 751 1483 751 1483 751 1538 c 0,26,27
 751 1587 751 1587 709 1629 c 0,28,29
 664 1667 664 1667 618 1667 c 0,30,31
 567 1667 567 1667 522 1629 c 1,32,33
 486 1584 486 1584 486 1538 c 0,18,19
EndSplineSet
EndChar

StartChar: cedilla
Encoding: 184 184 221
Width: 1234
VWidth: 3393
Flags: W
HStem: -401 146<461.985 644.013> -401 401<567 709>
VStem: 366 456<-338.499 -220 -376 -214 -376 -376> 655 167<-239.261 -87.9379>
LayerCount: 2
Fore
SplineSet
709 0 m 1,0,1
 822 -123 822 -123 822 -214 c 0,2,3
 822 -401 822 -401 570 -401 c 0,4,5
 466 -401 466 -401 366 -376 c 1,6,-1
 366 -220 l 1,7,8
 414 -237 414 -237 454.5 -246 c 128,-1,9
 495 -255 495 -255 534 -255 c 0,10,11
 655 -255 655 -255 655 -169 c 0,12,13
 655 -119 655 -119 567 0 c 1,14,-1
 709 0 l 1,0,1
EndSplineSet
EndChar

StartChar: hungarumlaut
Encoding: 733 733 222
Width: 1234
VWidth: 3393
Flags: W
HStem: 1263 376<815 1085 1085 1085>
LayerCount: 2
Fore
SplineSet
1085 1639 m 1,0,-1
 815 1263 l 1,1,-1
 641 1263 l 1,2,-1
 855 1639 l 1,3,-1
 1085 1639 l 1,0,-1
709 1639 m 1,4,-1
 462 1263 l 1,5,-1
 298 1263 l 1,6,-1
 492 1639 l 1,7,-1
 709 1639 l 1,4,-1
EndSplineSet
EndChar

StartChar: ogonek
Encoding: 731 731 223
Width: 1234
VWidth: 3393
Flags: W
HStem: -401 146<631.225 830.053> -20 20G<502 699>
VStem: 447 161<-231.795 -114.102>
LayerCount: 2
Fore
SplineSet
699 0 m 1,0,1
 645 -78 645 -78 628 -104 c 0,2,3
 608 -143 608 -143 608 -166 c 0,4,5
 608 -204 608 -204 638 -229.5 c 128,-1,6
 668 -255 668 -255 719 -255 c 0,7,8
 794 -255 794 -255 875 -224 c 1,9,-1
 875 -379 l 1,10,11
 771 -401 771 -401 686 -401 c 0,12,13
 447 -401 447 -401 447 -224 c 0,14,15
 447 -119 447 -119 557 0 c 1,16,-1
 699 0 l 1,0,1
EndSplineSet
EndChar

StartChar: caron
Encoding: 711 711 224
Width: 1234
VWidth: 3393
Flags: W
HStem: 1263 376<240 736 240 240>
VStem: 240 754<1639 1639 1639 1639>
LayerCount: 2
Fore
SplineSet
240 1639 m 1,0,-1
 418 1639 l 1,1,-1
 618 1412 l 1,2,-1
 815 1639 l 1,3,-1
 994 1639 l 1,4,-1
 736 1263 l 1,5,-1
 495 1263 l 1,6,-1
 240 1639 l 1,0,-1
EndSplineSet
EndChar

StartChar: Lslash
Encoding: 321 321 225
Width: 1234
VWidth: 3393
Flags: W
HStem: 0 262<519 1153> 1473 20G<224 519>
VStem: 224 295<262 537 974 1493>
LayerCount: 2
Fore
SplineSet
224 537 m 1,0,-1
 75 428 l 1,1,-1
 -41 580 l 1,2,-1
 224 771 l 1,3,-1
 224 1493 l 1,4,-1
 519 1493 l 1,5,-1
 519 974 l 1,6,-1
 797 1168 l 1,7,-1
 910 1014 l 1,8,-1
 519 744 l 1,9,-1
 519 262 l 1,10,-1
 1153 262 l 1,11,-1
 1153 0 l 1,12,-1
 224 0 l 1,13,-1
 224 537 l 1,0,-1
EndSplineSet
EndChar

StartChar: lslash
Encoding: 322 322 226
Width: 1234
VWidth: 3393
Flags: W
HStem: 0 224<756.106 800 800 1117> 1334 224<116 411>
VStem: 411 292<281.769 635 1072 1334>
LayerCount: 2
Fore
SplineSet
411 635 m 1,0,-1
 136 437 l 1,1,-1
 38 600 l 1,2,-1
 411 865 l 1,3,-1
 411 1334 l 1,4,-1
 116 1334 l 1,5,-1
 116 1558 l 1,6,-1
 703 1558 l 1,7,-1
 703 1072 l 1,8,-1
 998 1283 l 1,9,-1
 1104 1120 l 1,10,-1
 703 842 l 1,11,-1
 703 469 l 2,12,13
 703 336 703 336 743.5 280 c 128,-1,14
 784 224 784 224 882 224 c 2,15,-1
 1117 224 l 1,16,-1
 1117 0 l 1,17,-1
 800 0 l 2,18,19
 593 0 593 0 502 109 c 256,20,21
 411 217 411 217 411 469 c 2,22,-1
 411 635 l 1,0,-1
EndSplineSet
EndChar

StartChar: brokenbar
Encoding: 166 166 231
Width: 1234
VWidth: 3393
Flags: W
VStem: 502 227<-350 408 676 1432>
LayerCount: 2
Fore
SplineSet
729 -350 m 1,0,-1
 502 -350 l 1,1,-1
 502 408 l 1,2,-1
 729 408 l 1,3,-1
 729 -350 l 1,0,-1
729 676 m 1,4,-1
 502 676 l 1,5,-1
 502 1432 l 1,6,-1
 729 1432 l 1,7,-1
 729 676 l 1,4,-1
EndSplineSet
EndChar

StartChar: Eth
Encoding: 208 208 232
Width: 1234
VWidth: 3393
Flags: W
HStem: 0 265<431 692.234> 664 239<0 136 431 645> 1228 265<431 692.889>
VStem: 136 295<265 664 903 1228> 835 308<434.422 1062.45>
LayerCount: 2
Fore
SplineSet
431 903 m 1,0,-1
 645 903 l 1,1,-1
 645 664 l 1,2,-1
 431 664 l 1,3,-1
 431 265 l 1,4,-1
 512 265 l 2,5,6
 689 265 689 265 761 376 c 0,7,8
 835 482 835 482 835 751 c 0,9,10
 835 1011 835 1011 761 1120 c 0,11,12
 689 1228 689 1228 512 1228 c 2,13,-1
 431 1228 l 1,14,-1
 431 903 l 1,0,-1
454 1493 m 2,15,16
 825 1493 825 1493 981 1321 c 0,17,18
 1143 1147 1143 1147 1143 751 c 0,19,20
 1143 350 1143 350 981 176 c 0,21,22
 825 0 825 0 454 0 c 2,23,-1
 136 0 l 1,24,-1
 136 664 l 1,25,-1
 0 664 l 1,26,-1
 0 903 l 1,27,-1
 136 903 l 1,28,-1
 136 1493 l 1,29,-1
 454 1493 l 2,15,16
EndSplineSet
EndChar

StartChar: eth
Encoding: 240 240 233
Width: 1234
VWidth: 3393
Flags: W
HStem: -30 240<491.545 740.902> 815 241<479.868 705.042> 1130 21G<224.862 286.605> 1538 20G<302 612.862>
VStem: 98 293<323.479 721.235> 838 289<325.29 711.851>
LayerCount: 2
Fore
SplineSet
810 761 m 1,0,1
 716 815 716 815 618 815 c 0,2,3
 512 815 512 815 451 744 c 256,4,5
 391 673 391 673 391 547 c 0,6,7
 391 386 391 386 450 298 c 128,-1,8
 509 210 509 210 615 210 c 0,9,10
 722 210 722 210 780 300.5 c 128,-1,11
 838 391 838 391 838 563 c 0,12,13
 838 611 838 611 831.5 658.5 c 128,-1,14
 825 706 825 706 810 761 c 1,0,1
940 1104 m 1,15,16
 1042 968 1042 968 1082 838 c 0,17,18
 1127 716 1127 716 1127 560 c 0,19,20
 1127 282 1127 282 991 126 c 0,21,22
 852 -30 852 -30 615 -30 c 0,23,24
 373 -30 373 -30 237 126 c 0,25,26
 98 275 98 275 98 537 c 0,27,28
 98 774 98 774 227 913 c 0,29,30
 360 1056 360 1056 577 1056 c 0,31,32
 645 1056 645 1056 706 1029 c 1,33,-1
 547 1249 l 1,34,-1
 234 1130 l 1,35,-1
 181 1246 l 1,36,-1
 462 1354 l 1,37,-1
 302 1558 l 1,38,-1
 597 1558 l 1,39,-1
 689 1442 l 1,40,-1
 988 1568 l 1,41,-1
 1052 1445 l 1,42,-1
 774 1327 l 1,43,-1
 940 1104 l 1,15,16
EndSplineSet
EndChar

StartChar: Thorn
Encoding: 222 222 236
Width: 1234
VWidth: 3393
Flags: W
HStem: 0 21G<162 457> 333 244<457 779.952> 1014 242<457 772.891> 1473 20G<162 457>
VStem: 162 295<0 333 577 1014 1256 1493> 842 305<641.362 948.197>
LayerCount: 2
Fore
SplineSet
457 577 m 1,0,-1
 580 577 l 2,1,2
 726 577 726 577 784 625 c 0,3,4
 842 676 842 676 842 794 c 0,5,6
 842 920 842 920 780 964 c 0,7,8
 726 1014 726 1014 580 1014 c 2,9,-1
 457 1014 l 1,10,-1
 457 577 l 1,0,-1
457 1493 m 1,11,-1
 457 1256 l 1,12,-1
 567 1256 l 2,13,14
 875 1256 875 1256 1011 1147 c 0,15,16
 1147 1036 1147 1036 1147 787 c 0,17,18
 1147 547 1147 547 1011 441 c 0,19,20
 872 333 872 333 567 333 c 2,21,-1
 457 333 l 1,22,-1
 457 0 l 1,23,-1
 162 0 l 1,24,-1
 162 1493 l 1,25,-1
 457 1493 l 1,11,-1
EndSplineSet
EndChar

StartChar: thorn
Encoding: 254 254 237
Width: 1234
VWidth: 3393
Flags: W
HStem: -428 21G<149 441> -30 244<574.104 759.987> 910 237<569.504 758.571> 1538 20G<149 441>
VStem: 149 292<-428 159 332.938 790.016 953 1558> 852 291<325.703 797.541>
LayerCount: 2
Fore
SplineSet
441 -428 m 1,0,-1
 149 -428 l 1,1,-1
 149 1558 l 1,2,-1
 441 1558 l 1,3,-1
 441 953 l 1,4,5
 534 1147 534 1147 739 1147 c 0,6,7
 933 1147 933 1147 1039 994 c 0,8,9
 1143 845 1143 845 1143 560 c 0,10,11
 1143 272 1143 272 1036 123 c 0,12,13
 930 -30 930 -30 729 -30 c 0,14,15
 553 -30 553 -30 441 159 c 1,16,-1
 441 -428 l 1,0,-1
852 560 m 256,17,18
 852 722 852 722 798 816 c 128,-1,19
 744 910 744 910 648 910 c 0,20,21
 557 910 557 910 499 815 c 256,22,23
 441 719 441 719 441 560 c 0,24,25
 441 404 441 404 499 308 c 256,26,27
 557 214 557 214 648 214 c 0,28,29
 744 214 744 214 798 306 c 128,-1,30
 852 398 852 398 852 560 c 256,17,18
EndSplineSet
EndChar

StartChar: minus
Encoding: 8722 8722 238
Width: 1234
VWidth: 3393
Flags: W
HStem: 525 239<65 1168>
LayerCount: 2
Fore
SplineSet
1168 764 m 1,0,-1
 1168 525 l 1,1,-1
 65 525 l 1,2,-1
 65 764 l 1,3,-1
 1168 764 l 1,0,-1
EndSplineSet
EndChar

StartChar: multiply
Encoding: 215 215 239
Width: 1234
VWidth: 3393
Flags: W
HStem: 146 994<288 943 288 288>
VStem: 119 995<312 312 312 312>
LayerCount: 2
Fore
SplineSet
784 645 m 1,0,-1
 1114 312 l 1,1,-1
 943 146 l 1,2,-1
 615 476 l 1,3,-1
 288 146 l 1,4,-1
 119 312 l 1,5,-1
 447 645 l 1,6,-1
 119 971 l 1,7,-1
 288 1140 l 1,8,-1
 615 810 l 1,9,-1
 943 1140 l 1,10,-1
 1114 971 l 1,11,-1
 784 645 l 1,0,-1
EndSplineSet
EndChar

StartChar: onesuperior
Encoding: 185 185 240
Width: 1234
VWidth: 3393
Flags: W
HStem: 668 147<312 540 736 961> 1483 20G<431.5 736>
VStem: 540 196<815 1357>
LayerCount: 2
Fore
SplineSet
540 815 m 1,0,-1
 540 1357 l 1,1,-1
 320 1314 l 1,2,-1
 320 1463 l 1,3,-1
 543 1503 l 1,4,-1
 736 1503 l 1,5,-1
 736 815 l 1,6,-1
 961 815 l 1,7,-1
 961 668 l 1,8,-1
 312 668 l 1,9,-1
 312 815 l 1,10,-1
 540 815 l 1,0,-1
EndSplineSet
EndChar

StartChar: twosuperior
Encoding: 178 178 241
Width: 1234
VWidth: 3393
Flags: W
HStem: 668 147<502 940> 1382 139<357.225 692.98>
VStem: 729 211<1185.36 1351.56>
LayerCount: 2
Fore
SplineSet
940 815 m 1,0,-1
 940 668 l 1,1,-1
 275 668 l 1,2,-1
 275 810 l 1,3,4
 302 832 302 832 336 861 c 128,-1,5
 370 890 370 890 414 926 c 0,6,7
 729 1191 729 1191 729 1269 c 0,8,9
 729 1321 729 1321 687 1351.5 c 128,-1,10
 645 1382 645 1382 567 1382 c 0,11,12
 462 1382 462 1382 298 1314 c 1,13,-1
 298 1476 l 1,14,15
 444 1521 444 1521 583 1521 c 0,16,17
 754 1521 754 1521 847 1458 c 128,-1,18
 940 1395 940 1395 940 1286 c 0,19,20
 940 1160 940 1160 583 878 c 0,21,22
 557 858 557 858 536 841.5 c 128,-1,23
 515 825 515 825 502 815 c 1,24,-1
 940 815 l 1,0,-1
EndSplineSet
EndChar

StartChar: threesuperior
Encoding: 179 179 242
Width: 1234
VWidth: 3393
Flags: W
HStem: 655 139<395.671 727.153> 1042 146<472 699.648> 1382 139<330.343 711.497>
VStem: 288 676<780 848> 744 196<1213.32 1356.64> 767 197<827.614 1005.63>
LayerCount: 2
Fore
SplineSet
472 1042 m 1,0,-1
 472 1188 l 1,1,-1
 583 1188 l 2,2,3
 658 1188 658 1188 701 1213.5 c 128,-1,4
 744 1239 744 1239 744 1283 c 0,5,6
 744 1331 744 1331 702.5 1356.5 c 128,-1,7
 661 1382 661 1382 593 1382 c 0,8,9
 454 1382 454 1382 320 1334 c 1,10,-1
 320 1486 l 1,11,12
 451 1521 451 1521 593 1521 c 0,13,14
 764 1521 764 1521 848 1463 c 0,15,16
 940 1408 940 1408 940 1302 c 0,17,18
 940 1231 940 1231 887.5 1184 c 128,-1,19
 835 1137 835 1137 736 1120 c 1,20,21
 964 1092 964 1092 964 903 c 0,22,23
 964 780 964 780 867.5 717.5 c 128,-1,24
 771 655 771 655 587 655 c 0,25,26
 437 655 437 655 288 696 c 1,27,-1
 288 848 l 1,28,29
 356 822 356 822 430.5 808 c 128,-1,30
 505 794 505 794 587 794 c 0,31,32
 673 794 673 794 720 824.5 c 128,-1,33
 767 855 767 855 767 913 c 0,34,35
 767 974 767 974 720 1008 c 128,-1,36
 673 1042 673 1042 583 1042 c 2,37,-1
 472 1042 l 1,0,-1
EndSplineSet
EndChar

StartChar: dcroat
Encoding: 273 273 255
Width: 1234
VWidth: 3393
Flags: W
HStem: -30 240<475.31 662.095> 903 244<473.916 662.524> 1253 189<486 790 1082 1231> 1538 20G<790 1082>
VStem: 91 292<319.752 794.432> 790 292<0 166 319.364 792.823 961 1253 1442 1558>
LayerCount: 2
Fore
SplineSet
790 1253 m 1,0,-1
 486 1253 l 1,1,-1
 486 1442 l 1,2,-1
 790 1442 l 1,3,-1
 790 1558 l 1,4,-1
 1082 1558 l 1,5,-1
 1082 1442 l 1,6,-1
 1231 1442 l 1,7,-1
 1231 1253 l 1,8,-1
 1082 1253 l 1,9,-1
 1082 0 l 1,10,-1
 790 0 l 1,11,-1
 790 166 l 1,12,13
 699 -30 699 -30 495 -30 c 0,14,15
 302 -30 302 -30 197 126 c 0,16,17
 91 275 91 275 91 560 c 0,18,19
 91 848 91 848 197 998 c 0,20,21
 305 1147 305 1147 505 1147 c 0,22,23
 686 1147 686 1147 790 961 c 1,24,-1
 790 1253 l 1,0,-1
383 557 m 256,25,26
 383 394 383 394 436 302 c 128,-1,27
 489 210 489 210 587 210 c 0,28,29
 683 210 683 210 736 302 c 0,30,31
 790 391 790 391 790 557 c 256,32,33
 790 722 790 722 736 810 c 0,34,35
 683 903 683 903 587 903 c 0,36,37
 489 903 489 903 436 811 c 128,-1,38
 383 719 383 719 383 557 c 256,25,26
EndSplineSet
EndChar

StartChar: sfthyphen
Encoding: 173 173 256
Width: 1234
VWidth: 3393
Flags: W
HStem: 444 292<302 933 302 933 302 302>
LayerCount: 2
Fore
SplineSet
933 736 m 1,0,-1
 933 444 l 1,1,-1
 302 444 l 1,2,-1
 302 736 l 1,3,-1
 933 736 l 1,0,-1
EndSplineSet
EndChar

StartChar: periodcentered
Encoding: 8729 8729 257
Width: 1234
VWidth: 3393
Flags: W
HStem: 522 381<441 790>
VStem: 441 349<522 903>
LayerCount: 2
Fore
SplineSet
790 903 m 1,0,-1
 790 522 l 1,1,-1
 441 522 l 1,2,-1
 441 903 l 1,3,-1
 790 903 l 1,0,-1
EndSplineSet
EndChar

StartChar: Euro
Encoding: 8364 8364 258
Width: 1234
VWidth: 3393
Flags: W
HStem: -30 250<634.693 945.072> 482 191<91 187 509 716> 822 189<91 187 509 865> 1120 21G<1007.5 1079> 1273 248<636.447 944.593>
VStem: 210 299<364.494 482 1011 1122.37>
LayerCount: 2
Fore
SplineSet
210 1011 m 1,0,1
 255 1263 255 1263 401 1392 c 128,-1,2
 547 1521 547 1521 780 1521 c 0,3,4
 943 1521 943 1521 1079 1448 c 1,5,-1
 1079 1120 l 1,6,7
 936 1273 936 1273 787 1273 c 0,8,9
 570 1273 570 1273 509 1011 c 1,10,-1
 949 1011 l 1,11,-1
 865 822 l 1,12,-1
 486 822 l 1,13,14
 482 804 482 804 482 787.5 c 128,-1,15
 482 771 482 771 482 732 c 2,16,-1
 482 673 l 1,17,-1
 800 673 l 1,18,-1
 716 482 l 1,19,-1
 509 482 l 1,20,21
 534 356 534 356 605 288 c 128,-1,22
 676 220 676 220 784 220 c 0,23,24
 933 220 933 220 1079 370 c 1,25,-1
 1079 45 l 1,26,27
 940 -30 940 -30 780 -30 c 0,28,29
 547 -30 547 -30 401 100 c 128,-1,30
 255 230 255 230 210 482 c 1,31,-1
 7 482 l 1,32,-1
 91 673 l 1,33,-1
 187 673 l 1,34,35
 187 686 187 686 185.5 701 c 128,-1,36
 184 716 184 716 184 747 c 0,37,38
 184 774 184 774 185.5 789 c 128,-1,39
 187 804 187 804 187 822 c 1,40,-1
 7 822 l 1,41,-1
 91 1011 l 1,42,-1
 210 1011 l 1,0,1
EndSplineSet
EndChar

StartChar: c6459
Encoding: 65539 -1 259
Width: 1234
VWidth: 3393
Flags: W
HStem: 1283 245<302 537 696 933>
VStem: 302 235<1283 1528> 696 237<1283 1528>
LayerCount: 2
Fore
SplineSet
933 1528 m 1,0,-1
 933 1283 l 1,1,-1
 696 1283 l 1,2,-1
 696 1528 l 1,3,-1
 933 1528 l 1,0,-1
537 1528 m 1,4,-1
 537 1283 l 1,5,-1
 302 1283 l 1,6,-1
 302 1528 l 1,7,-1
 537 1528 l 1,4,-1
EndSplineSet
EndChar

StartChar: c6460
Encoding: 65540 -1 260
Width: 1234
VWidth: 3393
Flags: W
HStem: 1263 265<664 953 953 953>
LayerCount: 2
Fore
SplineSet
953 1528 m 1,0,-1
 664 1263 l 1,1,-1
 469 1263 l 1,2,-1
 668 1528 l 1,3,-1
 953 1528 l 1,0,-1
EndSplineSet
EndChar

StartChar: c6461
Encoding: 65541 -1 261
Width: 1234
VWidth: 3393
Flags: W
HStem: 1263 149<714.06 813.01> 1263 268<343.166 408 825 891.091 268 968 466 466> 1382 149<425.04 544.031>
VStem: 825 139<1419.35 1514.72 1515.28 1531>
LayerCount: 2
Fore
SplineSet
563 1347 m 1,0,1
 560 1347 560 1347 553 1354 c 1,2,3
 505 1382 505 1382 479 1382 c 0,4,5
 447 1382 447 1382 427.5 1351.5 c 128,-1,6
 408 1321 408 1321 408 1269 c 2,7,-1
 408 1263 l 1,8,-1
 268 1263 l 1,9,-1
 268 1292 l 2,10,11
 268 1402 268 1402 323 1466 c 0,12,13
 379 1531 379 1531 466 1531 c 0,14,15
 540 1531 540 1531 615 1480 c 2,16,-1
 676 1442 l 2,17,18
 716 1412 716 1412 751 1412 c 0,19,20
 825 1412 825 1412 825 1531 c 1,21,-1
 968 1531 l 1,22,23
 968 1524 968 1524 966 1515 c 128,-1,24
 964 1506 964 1506 964 1500 c 0,25,26
 964 1392 964 1392 910 1327 c 0,27,28
 858 1263 858 1263 771 1263 c 0,29,30
 732 1263 732 1263 696.5 1274.5 c 128,-1,31
 661 1286 661 1286 618 1314 c 2,32,-1
 563 1347 l 1,0,1
EndSplineSet
EndChar

StartChar: c6468
Encoding: 65542 -1 262
Width: 1234
VWidth: 3393
Flags: W
HStem: 1263 265<282 767 282 282>
LayerCount: 2
Fore
SplineSet
767 1263 m 1,0,-1
 570 1263 l 1,1,-1
 282 1528 l 1,2,-1
 567 1528 l 1,3,-1
 767 1263 l 1,0,-1
EndSplineSet
EndChar

StartChar: c6470
Encoding: 65543 -1 263
Width: 1234
VWidth: 3393
Flags: W
HStem: 1263 265<771 994 771 771>
VStem: 240 754<1263 1263 1263 1263>
LayerCount: 2
Fore
SplineSet
771 1528 m 1,0,-1
 994 1263 l 1,1,-1
 815 1263 l 1,2,-1
 618 1425 l 1,3,-1
 418 1263 l 1,4,-1
 240 1263 l 1,5,-1
 462 1528 l 1,6,-1
 771 1528 l 1,0,-1
EndSplineSet
EndChar

StartChar: c6472
Encoding: 65544 -1 264
Width: 1234
VWidth: 3393
Flags: W
HStem: 1263 265<240 771 240 240>
VStem: 240 754<1528 1528 1528 1528>
LayerCount: 2
Fore
SplineSet
240 1528 m 1,0,-1
 418 1528 l 1,1,-1
 618 1364 l 1,2,-1
 815 1528 l 1,3,-1
 994 1528 l 1,4,-1
 771 1263 l 1,5,-1
 462 1263 l 1,6,-1
 240 1528 l 1,0,-1
EndSplineSet
EndChar

StartChar: c6477
Encoding: 65545 -1 265
Width: 1234
VWidth: 3393
Flags: W
HStem: 502 380<85 1107 1107 1107>
LayerCount: 2
Fore
SplineSet
48 618 m 1,0,-1
 1107 882 l 1,1,-1
 1143 764 l 1,2,-1
 85 502 l 1,3,-1
 48 618 l 1,0,-1
EndSplineSet
EndChar

StartChar: c6478
Encoding: 65546 -1 266
Width: 1234
VWidth: 3393
Flags: W
HStem: 848 143<391 641 825 936> 1483 20G<605.878 825>
VStem: 641 184<668 848 991 1324>
LayerCount: 2
Fore
SplineSet
391 991 m 1,0,-1
 641 991 l 1,1,-1
 641 1324 l 1,2,-1
 391 991 l 1,0,-1
825 1503 m 1,3,-1
 825 991 l 1,4,-1
 936 991 l 1,5,-1
 936 848 l 1,6,-1
 825 848 l 1,7,-1
 825 668 l 1,8,-1
 641 668 l 1,9,-1
 641 848 l 1,10,-1
 249 848 l 1,11,-1
 249 1011 l 1,12,-1
 621 1503 l 1,13,-1
 825 1503 l 1,3,-1
EndSplineSet
EndChar

StartChar: c6475
Encoding: 65547 -1 267
Width: 1234
VWidth: 3393
Flags: W
HStem: 1263 142<474.622 758.803> 1263 265
VStem: 282 671<1399 1405 1528 1528 1528 1528>
LayerCount: 2
Fore
SplineSet
421 1528 m 1,0,1
 466 1405 466 1405 618 1405 c 256,2,3
 771 1405 771 1405 810 1528 c 1,4,-1
 953 1528 l 1,5,6
 936 1399 936 1399 851.5 1331 c 128,-1,7
 767 1263 767 1263 618 1263 c 256,8,9
 469 1263 469 1263 383.5 1331 c 128,-1,10
 298 1399 298 1399 282 1528 c 1,11,-1
 421 1528 l 1,0,1
EndSplineSet
EndChar

StartChar: c6476
Encoding: 65548 -1 268
Width: 1234
VWidth: 3393
Flags: W
HStem: 1283 245<479 754>
VStem: 479 275<1283 1528>
LayerCount: 2
Fore
SplineSet
754 1528 m 1,0,-1
 754 1283 l 1,1,-1
 479 1283 l 1,2,-1
 479 1528 l 1,3,-1
 754 1528 l 1,0,-1
EndSplineSet
EndChar

StartChar: uni0E01
Encoding: 3585 3585 270
Width: 1131
VWidth: 3111
Flags: W
HStem: 0 21G<183 377 846 1039> 1060 163<409.5 716.193>
VStem: 95 944<923 954 780 855 780 780> 183 194<0 699.407> 846 193<0 979.219>
LayerCount: 2
Fore
SplineSet
564 1060 m 0,0,1
 485 1060 485 1060 412 1020 c 128,-1,2
 339 980 339 980 282 923 c 1,3,-1
 476 923 l 1,4,-1
 476 787 l 1,5,6
 424 768 424 768 400.5 721.5 c 128,-1,7
 377 675 377 675 377 627 c 2,8,-1
 377 0 l 1,9,-1
 183 0 l 1,10,-1
 183 603 l 2,11,12
 183 650 183 650 223.5 701 c 128,-1,13
 264 752 264 752 293 780 c 1,14,-1
 95 780 l 1,15,-1
 95 980 l 1,16,17
 205 1087 205 1087 310.5 1155 c 128,-1,18
 416 1223 416 1223 573 1223 c 0,19,20
 656 1223 656 1223 740.5 1202.5 c 128,-1,21
 825 1182 825 1182 892 1137 c 128,-1,22
 959 1092 959 1092 999 1023 c 128,-1,23
 1039 954 1039 954 1039 855 c 2,24,-1
 1039 0 l 1,25,-1
 846 0 l 1,26,-1
 846 805 l 2,27,28
 846 954 846 954 774.5 1007 c 128,-1,29
 703 1060 703 1060 564 1060 c 0,0,1
EndSplineSet
EndChar

StartChar: uni0E02
Encoding: 3586 3586 271
Width: 1131
VWidth: 3111
Flags: W
HStem: 0 166<591 809> 679 119<306.977 397.217> 1062 157<403.964 567.929>
VStem: 139 147<819.187 916.484> 398 193<166 412 412 512> 419 128<819.958 915.74> 612 166<779.259 1019.33> 809 192<166 1205>
LayerCount: 2
Fore
SplineSet
398 400 m 1,0,1
 398 471 398 471 432.5 535 c 128,-1,2
 467 599 467 599 505.5 660 c 128,-1,3
 544 721 544 721 578 784.5 c 128,-1,4
 612 848 612 848 612 916 c 0,5,6
 612 978 612 978 568.5 1020 c 128,-1,7
 525 1062 525 1062 463 1062 c 0,8,9
 419 1062 419 1062 395 1047 c 1,10,11
 476 1043 476 1043 511.5 992 c 128,-1,12
 547 941 547 941 547 869 c 0,13,14
 547 777 547 777 491.5 728 c 128,-1,15
 436 679 436 679 345 679 c 0,16,17
 264 679 264 679 201.5 722 c 128,-1,18
 139 765 139 765 139 854 c 0,19,20
 139 925 139 925 161 992 c 128,-1,21
 183 1059 183 1059 223.5 1109 c 128,-1,22
 264 1159 264 1159 323.5 1189 c 128,-1,23
 383 1219 383 1219 460 1219 c 0,24,25
 606 1219 606 1219 692 1134.5 c 128,-1,26
 778 1050 778 1050 778 904 c 0,27,28
 778 835 778 835 748.5 770 c 128,-1,29
 719 705 719 705 684.5 641.5 c 128,-1,30
 650 578 650 578 620.5 514 c 128,-1,31
 591 450 591 450 591 384 c 2,32,-1
 591 166 l 1,33,-1
 809 166 l 1,34,-1
 809 1205 l 1,35,-1
 1001 1205 l 1,36,-1
 1001 0 l 1,37,-1
 398 0 l 1,38,-1
 398 412 l 1,39,-1
 398 400 l 1,0,1
286 866 m 0,40,41
 286 839 286 839 305 818.5 c 128,-1,42
 324 798 324 798 351 798 c 256,43,44
 380 798 380 798 399.5 818.5 c 128,-1,45
 419 839 419 839 419 866 c 0,46,47
 419 898 419 898 399.5 917.5 c 128,-1,48
 380 937 380 937 351 937 c 256,49,50
 324 937 324 937 305 917.5 c 128,-1,51
 286 898 286 898 286 866 c 0,40,41
EndSplineSet
EndChar

StartChar: uni0E03
Encoding: 3587 3587 272
Width: 1131
VWidth: 3111
Flags: W
HStem: 0 166<576 819> 635 108<316.584 395.658> 874 106<324.637 388.988> 1043 162<308.59 353.845 566.09 612.586>
VStem: 383 193<166 408.403> 424 120<778.217 839.597> 623 167<829.887 1030.7> 819 193<166 1205>
LayerCount: 2
Fore
SplineSet
383 359 m 2,0,1
 383 386 383 386 396.5 433.5 c 128,-1,2
 410 481 410 481 432 531.5 c 128,-1,3
 454 582 454 582 476 626.5 c 128,-1,4
 498 671 498 671 516 694 c 1,5,6
 481 662 481 662 438 648.5 c 128,-1,7
 395 635 395 635 354 635 c 0,8,9
 293 635 293 635 249 663 c 128,-1,10
 205 691 205 691 178.5 734.5 c 128,-1,11
 152 778 152 778 141.5 829.5 c 128,-1,12
 131 881 131 881 131 930 c 0,13,14
 131 968 131 968 140 1016 c 128,-1,15
 149 1064 149 1064 169.5 1106.5 c 128,-1,16
 190 1149 190 1149 225.5 1177 c 128,-1,17
 261 1205 261 1205 314 1205 c 0,18,19
 339 1205 339 1205 359.5 1193.5 c 128,-1,20
 380 1182 380 1182 399.5 1168 c 128,-1,21
 419 1154 419 1154 436.5 1141.5 c 128,-1,22
 454 1129 454 1129 472 1129 c 0,23,24
 485 1129 485 1129 496 1141.5 c 128,-1,25
 507 1154 507 1154 521 1169.5 c 128,-1,26
 535 1185 535 1185 554 1198 c 128,-1,27
 573 1211 573 1211 594 1211 c 0,28,29
 698 1211 698 1211 744 1138.5 c 128,-1,30
 790 1066 790 1066 790 976 c 0,31,32
 790 902 790 902 756 824.5 c 128,-1,33
 722 747 722 747 683.5 669 c 128,-1,34
 645 591 645 591 610.5 516.5 c 128,-1,35
 576 442 576 442 576 374 c 2,36,-1
 576 166 l 1,37,-1
 819 166 l 1,38,-1
 819 1205 l 1,39,-1
 1012 1205 l 1,40,-1
 1012 0 l 1,41,-1
 383 0 l 1,42,-1
 383 359 l 2,0,1
544 778 m 2,43,44
 544 775 544 775 538 748.5 c 128,-1,45
 532 722 532 722 532 719 c 1,46,47
 564 772 564 772 592 831 c 128,-1,48
 620 890 620 890 623 983 c 0,49,50
 623 999 623 999 614.5 1022 c 128,-1,51
 606 1045 606 1045 594 1045 c 0,52,53
 573 1045 573 1045 560 1031.5 c 128,-1,54
 547 1018 547 1018 535 1002 c 128,-1,55
 523 986 523 986 507.5 970.5 c 128,-1,56
 492 955 492 955 467 955 c 1,57,58
 498 930 498 930 521 900 c 128,-1,59
 544 870 544 870 544 828 c 2,60,-1
 544 778 l 2,43,44
424 971 m 1,61,62
 417 976 l 2,63,64
 410 983 410 983 404 991 c 128,-1,65
 398 999 398 999 395 1002 c 2,66,-1
 386 1012 l 2,67,68
 377 1018 377 1018 364 1030.5 c 128,-1,69
 351 1043 351 1043 336 1043 c 256,70,71
 321 1043 321 1043 303.5 1013 c 128,-1,72
 286 983 286 983 286 968 c 1,73,74
 293 971 293 971 311.5 975.5 c 128,-1,75
 330 980 330 980 345 980 c 0,76,77
 365 980 365 980 389.5 977 c 128,-1,78
 414 974 414 974 424 971 c 1,61,62
299 809 m 256,79,80
 299 781 299 781 316 762 c 128,-1,81
 333 743 333 743 361 743 c 0,82,83
 386 743 386 743 405 762 c 128,-1,84
 424 781 424 781 424 809 c 256,85,86
 424 837 424 837 405 855.5 c 128,-1,87
 386 874 386 874 361 874 c 0,88,89
 333 874 333 874 316 855.5 c 128,-1,90
 299 837 299 837 299 809 c 256,79,80
EndSplineSet
EndChar

StartChar: uni0E04
Encoding: 3588 3588 273
Width: 1131
VWidth: 3111
Flags: W
HStem: 0 21G<203.5 410 828 1021> 436 155<533.28 623.965> 731 143<532.778 624.231> 1064 159<386.757 741.328>
VStem: 83 181<451.355 945.904> 645 139<612.414 709.637> 828 193<0 981.506>
LayerCount: 2
Fore
SplineSet
828 830 m 2,0,1
 828 1064 828 1064 560 1064 c 0,2,3
 430 1064 430 1064 347 992.5 c 128,-1,4
 264 921 264 921 264 756 c 0,5,6
 264 631 264 631 305 446 c 1,7,8
 324 513 324 513 336 589.5 c 128,-1,9
 348 666 348 666 370 728 c 128,-1,10
 392 790 392 790 435.5 832 c 128,-1,11
 479 874 479 874 569 874 c 128,-1,12
 659 874 659 874 721.5 818.5 c 128,-1,13
 784 763 784 763 784 668 c 128,-1,14
 784 573 784 573 726 504.5 c 128,-1,15
 668 436 668 436 576 436 c 0,16,17
 516 436 516 436 469 460 c 1,18,-1
 445 361 l 2,19,20
 394 149 394 149 404 50 c 2,21,-1
 410 0 l 1,22,-1
 208 0 l 1,23,24
 199 100 199 100 177 193 c 128,-1,25
 155 286 155 286 135 378 c 0,26,27
 83 619 83 619 83 763 c 0,28,29
 83 1016 83 1016 214 1119.5 c 128,-1,30
 345 1223 345 1223 560 1223 c 0,31,32
 750 1223 750 1223 878 1138 c 0,33,34
 1021 1043 1021 1043 1021 852 c 2,35,-1
 1021 0 l 1,36,-1
 828 0 l 1,37,-1
 828 830 l 2,0,1
531.5 711 m 128,-1,39
 513 691 513 691 513 661.5 c 128,-1,40
 513 632 513 632 531.5 611.5 c 128,-1,41
 550 591 550 591 579 591 c 256,42,43
 606 591 606 591 625.5 611.5 c 128,-1,44
 645 632 645 632 645 661.5 c 128,-1,45
 645 691 645 691 625.5 711 c 128,-1,46
 606 731 606 731 579 731 c 256,47,38
 550 731 550 731 531.5 711 c 128,-1,39
EndSplineSet
EndChar

StartChar: uni0E05
Encoding: 3589 3589 274
Width: 1131
VWidth: 3111
Flags: W
HStem: 0 21G<229.5 414 865 1057> 430 155<562.709 653.38> 722 143<562.781 653.611> 1027 184<344.057 462.275 784 828.466>
VStem: 83 974<668 849 775 906 775 830.819> 83 185<665.692 851.207> 675 141<606.326 700.67> 865 192<0 848.119 848.119 877.5 877.5 933.319>
LayerCount: 2
Fore
SplineSet
609 955 m 1,0,1
 576 955 576 955 552.5 965.5 c 128,-1,2
 529 976 529 976 509.5 991 c 128,-1,3
 490 1006 490 1006 469 1016.5 c 128,-1,4
 448 1027 448 1027 416 1027 c 0,5,6
 380 1027 380 1027 352 1000.5 c 128,-1,7
 324 974 324 974 305 935.5 c 128,-1,8
 286 897 286 897 277 853 c 128,-1,9
 268 809 268 809 268 778 c 0,10,11
 268 694 268 694 285.5 609.5 c 128,-1,12
 303 525 303 525 326 442 c 1,13,14
 336 504 336 504 345 577 c 128,-1,15
 354 650 354 650 377.5 714 c 128,-1,16
 401 778 401 778 449.5 821.5 c 128,-1,17
 498 865 498 865 585 865 c 0,18,19
 678 865 678 865 747 812 c 128,-1,20
 816 759 816 759 816 659 c 0,21,22
 816 569 816 569 753.5 499.5 c 128,-1,23
 691 430 691 430 594 430 c 0,24,25
 550 430 550 430 513 451 c 1,26,27
 481 342 481 342 452.5 229 c 128,-1,28
 424 116 424 116 404 0 c 1,29,-1
 231 0 l 1,30,31
 228 106 228 106 203 201 c 128,-1,32
 178 296 178 296 152.5 387.5 c 128,-1,33
 127 479 127 479 105 573.5 c 128,-1,34
 83 668 83 668 83 775 c 0,35,36
 83 849 83 849 105 925 c 128,-1,37
 127 1001 127 1001 169 1065 c 128,-1,38
 211 1129 211 1129 276.5 1170 c 128,-1,39
 342 1211 342 1211 427 1211 c 0,40,41
 458 1211 458 1211 480 1195 c 128,-1,42
 502 1179 502 1179 521.5 1162 c 128,-1,43
 541 1145 541 1145 561.5 1129.5 c 128,-1,44
 582 1114 582 1114 609 1114 c 256,45,46
 638 1114 638 1114 660 1129.5 c 128,-1,47
 682 1145 682 1145 703 1163.5 c 128,-1,48
 724 1182 724 1182 746 1198 c 128,-1,49
 768 1214 768 1214 793 1214 c 0,50,51
 855 1214 855 1214 904 1184 c 128,-1,52
 953 1154 953 1154 987 1110 c 128,-1,53
 1021 1066 1021 1066 1039 1012.5 c 128,-1,54
 1057 959 1057 959 1057 906 c 2,55,-1
 1057 0 l 1,56,-1
 865 0 l 1,57,-1
 865 819 l 2,58,59
 865 844 865 844 863.5 877.5 c 128,-1,60
 862 911 862 911 854 943.5 c 128,-1,61
 846 976 846 976 829 1001.5 c 128,-1,62
 812 1027 812 1027 784 1027 c 1,63,-1
 609 955 l 1,0,1
541 654 m 256,64,65
 541 626 541 626 561.5 605.5 c 128,-1,66
 582 585 582 585 609 585 c 256,67,68
 635 585 635 585 655 605.5 c 128,-1,69
 675 626 675 626 675 654 c 256,70,71
 675 682 675 682 655 702 c 128,-1,72
 635 722 635 722 609 722 c 256,73,74
 582 722 582 722 561.5 702 c 128,-1,75
 541 682 541 682 541 654 c 256,64,65
EndSplineSet
EndChar

StartChar: uni0E06
Encoding: 3590 3590 275
Width: 1131
VWidth: 3111
Flags: W
HStem: -28 21<336.5 381.5 861.741 1054> 645 111<240.038 349.822> 890 109<268.298 326.684> 1048 166<228.441 283.753 544.09 580.909>
VStem: 78 159<798.645 900.329> 134 178<193.539 304.785> 359 131<773.697 871.856> 395 174<155.231 324 550 601.197> 594 178<854.264 1017.98> 862 192<259 1205>
LayerCount: 2
Fore
SplineSet
569 324 m 1,0,-1
 569 122 l 2,1,2
 569 78 569 78 550.5 49.5 c 128,-1,3
 532 21 532 21 500.5 4.5 c 128,-1,4
 469 -12 469 -12 433.5 -20 c 128,-1,5
 398 -28 398 -28 365 -28 c 0,6,7
 308 -28 308 -28 264 -1.5 c 128,-1,8
 220 25 220 25 190.5 67 c 128,-1,9
 161 109 161 109 147.5 160 c 128,-1,10
 134 211 134 211 134 261 c 256,11,12
 134 312 134 312 154.5 363 c 128,-1,13
 175 414 175 414 209 454.5 c 128,-1,14
 243 495 243 495 289.5 521 c 128,-1,15
 336 547 336 547 389 550 c 1,16,17
 389 585 389 585 404 626.5 c 128,-1,18
 419 668 419 668 436 698 c 1,19,20
 401 671 401 671 363.5 658 c 128,-1,21
 326 645 326 645 282 645 c 0,22,23
 228 645 228 645 188.5 669.5 c 128,-1,24
 149 694 149 694 124.5 734.5 c 128,-1,25
 100 775 100 775 89 821 c 128,-1,26
 78 867 78 867 78 911 c 0,27,28
 78 943 78 943 85.5 994 c 128,-1,29
 93 1045 93 1045 112 1093.5 c 128,-1,30
 131 1142 131 1142 160.5 1178 c 128,-1,31
 190 1214 190 1214 234 1214 c 0,32,33
 268 1214 268 1214 294.5 1198 c 128,-1,34
 321 1182 321 1182 344.5 1165.5 c 128,-1,35
 368 1149 368 1149 389 1133 c 128,-1,36
 410 1117 410 1117 436 1117 c 0,37,38
 458 1117 458 1117 474 1133 c 128,-1,39
 490 1149 490 1149 505 1167 c 128,-1,40
 520 1185 520 1185 537.5 1201 c 128,-1,41
 555 1217 555 1217 582 1217 c 0,42,43
 635 1217 635 1217 671 1193.5 c 128,-1,44
 707 1170 707 1170 730.5 1135.5 c 128,-1,45
 754 1101 754 1101 763 1058 c 128,-1,46
 772 1015 772 1015 772 971 c 0,47,48
 772 909 772 909 741 851 c 128,-1,49
 710 793 710 793 672.5 741 c 128,-1,50
 635 689 635 689 604 640 c 128,-1,51
 573 591 573 591 573 544 c 0,52,53
 573 535 573 535 574.5 530 c 128,-1,54
 576 525 576 525 576 523 c 0,55,56
 576 516 576 516 598 497.5 c 128,-1,57
 620 479 620 479 623 479 c 1,58,59
 659 446 659 446 687 420.5 c 128,-1,60
 715 395 715 395 740.5 371.5 c 128,-1,61
 766 348 766 348 794 322 c 128,-1,62
 822 296 822 296 862 259 c 1,63,-1
 862 1205 l 1,64,-1
 1054 1205 l 1,65,-1
 1054 0 l 1,66,-1
 881 0 l 1,67,-1
 569 324 l 1,0,-1
490 846 m 0,68,69
 490 822 490 822 484.5 789 c 128,-1,70
 479 756 479 756 469 737 c 1,71,72
 476 743 476 743 489 753 c 128,-1,73
 502 763 502 763 511 772 c 0,74,75
 550 816 550 816 572 854.5 c 128,-1,76
 594 893 594 893 594 980 c 0,77,78
 594 995 594 995 583.5 1017 c 128,-1,79
 573 1039 573 1039 557 1039 c 0,80,81
 544 1039 544 1039 533.5 1028.5 c 128,-1,82
 523 1018 523 1018 516 1012 c 0,83,-1
 491 987 l 0,84,85
 472 968 472 968 454 968 c 2,86,-1
 442 968 l 2,87,88
 436 968 436 968 430 965 c 1,89,90
 454 939 454 939 472 911.5 c 128,-1,91
 490 884 490 884 490 846 c 0,68,69
383 131 m 0,92,93
 389 131 389 131 392 154.5 c 128,-1,94
 395 178 395 178 395 187 c 2,95,-1
 395 383 l 1,96,97
 348 361 348 361 330 321.5 c 128,-1,98
 312 282 312 282 312 249 c 256,99,100
 312 215 312 215 327 173 c 128,-1,101
 342 131 342 131 383 131 c 0,92,93
234 986 m 1,102,103
 264 999 264 999 314 999 c 0,104,-1
 333 999 l 0,105,106
 351 999 351 999 365 995 c 1,107,108
 361 1001 361 1001 347 1009.5 c 128,-1,109
 333 1018 333 1018 319 1027 c 128,-1,110
 305 1036 305 1036 292.5 1042 c 128,-1,111
 280 1048 280 1048 277 1048 c 0,112,113
 270 1048 270 1048 253.5 1023.5 c 128,-1,114
 237 999 237 999 234 986 c 1,102,103
237 825 m 0,115,116
 237 756 237 756 299 756 c 0,117,118
 359 756 359 756 359 825 c 0,119,120
 359 853 359 853 341.5 871.5 c 128,-1,121
 324 890 324 890 299 890 c 0,122,123
 270 890 270 890 253.5 871.5 c 128,-1,124
 237 853 237 853 237 825 c 0,115,116
EndSplineSet
EndChar

StartChar: uni0E07
Encoding: 3591 3591 276
Width: 1131
VWidth: 3111
Flags: W
HStem: 0 21G<681.432 971> 766 155<685.923 767.953> 1061 162<686.26 778.243>
VStem: 481 185<941.398 1040.48> 778 193<155 769>
LayerCount: 2
Fore
SplineSet
778 155 m 1,0,-1
 778 769 l 1,1,2
 763 766 763 766 731 766 c 0,3,4
 635 766 635 766 558 827 c 128,-1,5
 481 888 481 888 481 989 c 0,6,7
 481 1096 481 1096 556.5 1159.5 c 128,-1,8
 632 1223 632 1223 731 1223 c 0,9,10
 834 1223 834 1223 902.5 1160.5 c 128,-1,11
 971 1098 971 1098 971 992 c 2,12,-1
 971 0 l 1,13,-1
 698 0 l 1,14,-1
 196 606 l 1,15,-1
 389 606 l 1,16,-1
 778 155 l 1,0,-1
666 989 m 0,17,18
 666 962 666 962 684.5 941.5 c 128,-1,19
 703 921 703 921 731 921 c 256,20,21
 759 921 759 921 779.5 941.5 c 128,-1,22
 800 962 800 962 800 989 c 0,23,24
 800 1021 800 1021 779.5 1041 c 128,-1,25
 759 1061 759 1061 731 1061 c 256,26,27
 703 1061 703 1061 684.5 1041 c 128,-1,28
 666 1021 666 1021 666 989 c 0,17,18
EndSplineSet
EndChar

StartChar: uni0E08
Encoding: 3592 3592 277
Width: 1131
VWidth: 3111
Flags: W
HStem: 0 21G<602.976 979.5> 392 155<410.451 490.031> 685 155<410.571 501.118> 1036 181<431.219 744.675>
VStem: 224 165<569.136 663.907> 822 187<481.407 617.5 617.5 620.52 620.52 700.378 660.449 956.127>
LayerCount: 2
Fore
SplineSet
1018 768 m 0,0,1
 1012 691 1012 691 1009 617.5 c 128,-1,2
 1006 544 1006 544 1001 467 c 0,3,4
 992 290 l 0,5,6
 983 113 983 113 976 0 c 1,7,-1
 606 0 l 1,8,-1
 544 410 l 1,9,10
 523 398 523 398 501 395 c 128,-1,11
 479 392 479 392 454 392 c 0,12,13
 351 392 351 392 287.5 462 c 128,-1,14
 224 532 224 532 224 629 c 0,15,16
 224 734 224 734 299 787 c 128,-1,17
 374 840 374 840 467 840 c 0,18,19
 535 840 535 840 579 815 c 128,-1,20
 623 790 623 790 649 750 c 128,-1,21
 675 710 675 710 688 658 c 128,-1,22
 701 606 701 606 710 555 c 2,23,-1
 766 166 l 1,24,-1
 805 166 l 1,25,26
 812 314 812 314 817 465.5 c 128,-1,27
 822 617 822 617 822 766 c 0,28,29
 822 897 822 897 770.5 966.5 c 128,-1,30
 719 1036 719 1036 579 1036 c 0,31,32
 460 1036 460 1036 337.5 969 c 128,-1,33
 215 902 215 902 116 784 c 1,34,-1
 116 1024 l 1,35,36
 155 1080 155 1080 211.5 1117 c 128,-1,37
 268 1154 268 1154 330 1175.5 c 128,-1,38
 392 1197 392 1197 458.5 1207 c 128,-1,39
 525 1217 525 1217 585 1217 c 0,40,41
 812 1217 812 1217 915 1103 c 128,-1,42
 1018 989 1018 989 1018 768 c 0,0,1
389 617 m 256,43,44
 389 588 389 588 409.5 567.5 c 128,-1,45
 430 547 430 547 454 547 c 0,46,47
 481 547 481 547 502 567.5 c 128,-1,48
 523 588 523 588 523 617 c 256,49,50
 523 645 523 645 502 665 c 128,-1,51
 481 685 481 685 454 685 c 0,52,53
 430 685 430 685 409.5 665 c 128,-1,54
 389 645 389 645 389 617 c 256,43,44
EndSplineSet
EndChar

StartChar: uni0E09
Encoding: 3593 3593 278
Width: 1131
VWidth: 3111
Flags: W
HStem: -28 137<854.506 932.85> 351 141<261.111 327.332> 632 146<262.223 351.883> 1052 171<461.152 671.713>
VStem: 81 159<514.1 610.368> 819 193<460.61 492 492 944.21> 943 158<130.738 246.051>
LayerCount: 2
Fore
SplineSet
703 392 m 2,0,1
 743 424 743 424 781 459.5 c 128,-1,2
 819 495 819 495 819 535 c 2,3,-1
 819 787 l 2,4,5
 819 909 819 909 745 980.5 c 128,-1,6
 671 1052 671 1052 538 1052 c 0,7,8
 479 1052 479 1052 410.5 1029 c 128,-1,9
 342 1006 342 1006 275 966.5 c 128,-1,10
 208 927 208 927 143 880.5 c 128,-1,11
 78 834 78 834 25 787 c 1,12,-1
 25 1033 l 1,13,14
 72 1077 72 1077 135.5 1111 c 128,-1,15
 199 1145 199 1145 269 1169.5 c 128,-1,16
 339 1194 339 1194 409 1208.5 c 128,-1,17
 479 1223 479 1223 538 1223 c 0,18,19
 623 1223 623 1223 708 1201 c 128,-1,20
 793 1179 793 1179 860 1133 c 128,-1,21
 927 1087 927 1087 969.5 1013 c 128,-1,22
 1012 939 1012 939 1012 834 c 2,23,-1
 1012 492 l 2,24,25
 1012 433 1012 433 980 392 c 1,26,27
 1039 368 1039 368 1070 316 c 128,-1,28
 1101 264 1101 264 1101 199 c 0,29,30
 1101 106 1101 106 1043.5 39 c 128,-1,31
 986 -28 986 -28 890 -28 c 0,32,33
 800 -28 800 -28 742.5 31 c 128,-1,34
 685 90 685 90 685 181 c 2,35,-1
 685 208 l 1,36,37
 635 169 635 169 597.5 115.5 c 128,-1,38
 560 62 560 62 525 0 c 1,39,-1
 348 0 l 1,40,-1
 348 359 l 1,41,42
 333 354 333 354 319 352.5 c 128,-1,43
 305 351 305 351 289 351 c 0,44,45
 202 351 202 351 141.5 402.5 c 128,-1,46
 81 454 81 454 81 547 c 0,47,48
 81 650 81 650 144.5 714 c 128,-1,49
 208 778 208 778 314 778 c 0,50,51
 439 778 439 778 487 702 c 128,-1,52
 535 626 535 626 535 513 c 2,53,-1
 535 268 l 1,54,-1
 703 392 l 2,0,1
943 190 m 256,55,56
 943 215 943 215 932 239.5 c 128,-1,57
 921 264 921 264 899 264 c 0,58,59
 870 264 870 264 858 240.5 c 128,-1,60
 846 217 846 217 846 190 c 0,61,62
 846 166 846 166 856.5 137.5 c 128,-1,63
 867 109 867 109 893 109 c 256,64,65
 918 109 918 109 930.5 137.5 c 128,-1,66
 943 166 943 166 943 190 c 256,55,56
240 564 m 0,67,68
 240 532 240 532 260 512 c 128,-1,69
 280 492 280 492 308 492 c 0,70,71
 333 492 333 492 353.5 512 c 128,-1,72
 374 532 374 532 374 564 c 0,73,74
 374 591 374 591 353.5 611.5 c 128,-1,75
 333 632 333 632 308 632 c 0,76,77
 280 632 280 632 260 611.5 c 128,-1,78
 240 591 240 591 240 564 c 0,67,68
EndSplineSet
EndChar

StartChar: uni0E0A
Encoding: 3594 3594 279
Width: 1131
VWidth: 3111
Flags: W
HStem: 0 166<507 796> 662 116<251.553 343.142> 1074 143<334.602 511.72>
VStem: 83 148<798.721 896.253> 314 193<166 420.104> 365 116<800.312 895.833> 796 193<166 762.221>
LayerCount: 2
Fore
SplineSet
314 348 m 2,0,1
 314 430 314 430 350 499.5 c 128,-1,2
 386 569 386 569 431 639.5 c 128,-1,3
 476 710 476 710 511.5 779.5 c 128,-1,4
 547 849 547 849 547 930 c 0,5,6
 547 992 547 992 511.5 1033 c 128,-1,7
 476 1074 476 1074 416 1074 c 0,8,9
 365 1074 365 1074 339.5 1055 c 128,-1,10
 314 1036 314 1036 296 1024 c 1,11,-1
 351 1027 l 2,12,13
 414 1027 414 1027 447.5 974 c 128,-1,14
 481 921 481 921 481 855 c 0,15,16
 481 768 481 768 432 715 c 128,-1,17
 383 662 383 662 296 662 c 0,18,19
 187 662 187 662 135 727.5 c 128,-1,20
 83 793 83 793 83 893 c 0,21,22
 83 1043 83 1043 173.5 1130 c 128,-1,23
 264 1217 264 1217 414 1217 c 0,24,25
 682 1217 682 1217 712 983 c 1,26,27
 793 1027 793 1027 837 1092.5 c 128,-1,28
 881 1158 881 1158 881 1260 c 1,29,-1
 1074 1260 l 1,30,31
 1074 1214 1074 1214 1058.5 1164 c 128,-1,32
 1043 1114 1043 1114 1017.5 1067.5 c 128,-1,33
 992 1021 992 1021 956.5 978.5 c 128,-1,34
 921 936 921 936 881 909 c 1,35,36
 927 867 927 867 958 815 c 128,-1,37
 989 763 989 763 989 707 c 2,38,-1
 989 0 l 1,39,-1
 314 0 l 1,40,-1
 314 348 l 2,0,1
796 678 m 1,41,42
 796 728 796 728 785.5 782.5 c 128,-1,43
 775 837 775 837 712 853 c 1,44,45
 707 802 707 802 674 738.5 c 128,-1,46
 641 675 641 675 604 609.5 c 128,-1,47
 567 544 567 544 537 481.5 c 128,-1,48
 507 419 507 419 507 368 c 2,49,-1
 507 166 l 1,50,-1
 796 166 l 1,51,-1
 796 678 l 1,41,42
231 849 m 0,52,53
 231 819 231 819 249.5 798.5 c 128,-1,54
 268 778 268 778 296 778 c 256,55,56
 324 778 324 778 344.5 798.5 c 128,-1,57
 365 819 365 819 365 849 c 0,58,59
 365 878 365 878 344.5 898 c 128,-1,60
 324 918 324 918 296 918 c 256,61,62
 268 918 268 918 249.5 898 c 128,-1,63
 231 878 231 878 231 849 c 0,52,53
EndSplineSet
EndChar

StartChar: uni0E0B
Encoding: 3595 3595 280
Width: 1131
VWidth: 3111
Flags: W
HStem: 0 166<507 796> 647 116<235.917 345.819> 890 111<235.661 343.971> 1052 162<244.644 295.408 478.552 524.207>
VStem: 72 162<800.074 929.743> 314 193<166 411.863> 354 125<764.307 888.657> 796 193<166 716.97> 867 194<1092.49 1256>
LayerCount: 2
Fore
SplineSet
217 986 m 1,0,1
 246 1001 246 1001 282 1001 c 0,2,3
 317 1001 317 1001 348 995 c 1,4,5
 339 1003 l 2,6,7
 330 1012 330 1012 319 1022.5 c 128,-1,8
 308 1033 308 1033 295 1042.5 c 128,-1,9
 282 1052 282 1052 277 1052 c 0,10,11
 261 1052 261 1052 242.5 1026.5 c 128,-1,12
 224 1001 224 1001 217 986 c 1,0,1
479 846 m 0,13,14
 479 834 479 834 479 796.5 c 128,-1,15
 479 759 479 759 472 751 c 1,16,17
 476 754 476 754 484 766 c 128,-1,18
 492 778 492 778 492 781 c 1,19,20
 516 822 516 822 528.5 851.5 c 128,-1,21
 541 881 541 881 541 939 c 0,22,23
 541 953 541 953 539.5 971 c 128,-1,24
 538 989 538 989 533.5 1006.5 c 128,-1,25
 529 1024 529 1024 520 1036 c 128,-1,26
 511 1048 511 1048 495 1048 c 0,27,28
 490 1048 490 1048 483 1033 c 128,-1,29
 476 1018 476 1018 472 1012 c 0,30,31
 458 980 458 980 419 971 c 1,32,33
 446 946 446 946 462.5 915 c 128,-1,34
 479 884 479 884 479 846 c 0,13,14
796 659 m 2,35,36
 796 685 796 685 791.5 718 c 128,-1,37
 787 751 787 751 776.5 780 c 128,-1,38
 766 809 766 809 747 832 c 128,-1,39
 728 855 728 855 698 858 c 1,40,41
 685 800 685 800 654 734 c 128,-1,42
 623 668 623 668 590 603 c 128,-1,43
 557 538 557 538 532 472.5 c 128,-1,44
 507 407 507 407 507 345 c 2,45,-1
 507 166 l 1,46,-1
 796 166 l 1,47,-1
 796 659 l 2,35,36
513 1214 m 0,48,49
 564 1214 564 1214 598 1193.5 c 128,-1,50
 632 1173 632 1173 653.5 1140.5 c 128,-1,51
 675 1108 675 1108 686.5 1067.5 c 128,-1,52
 698 1027 698 1027 701 986 c 1,53,54
 781 1027 781 1027 824 1090.5 c 128,-1,55
 867 1154 867 1154 867 1256 c 1,56,-1
 1061 1256 l 1,57,58
 1061 1170 1061 1170 1016 1070.5 c 128,-1,59
 971 971 971 971 888 915 c 1,60,61
 932 870 932 870 960.5 803.5 c 128,-1,62
 989 737 989 737 989 682 c 2,63,-1
 989 0 l 1,64,-1
 314 0 l 1,65,-1
 314 386 l 2,66,67
 314 419 314 419 331 467.5 c 128,-1,68
 348 516 348 516 370 562.5 c 128,-1,69
 392 609 392 609 415.5 651.5 c 128,-1,70
 439 694 439 694 451 712 c 1,71,72
 419 678 419 678 370 662.5 c 128,-1,73
 321 647 321 647 286 647 c 0,74,75
 231 647 231 647 190 674 c 128,-1,76
 149 701 149 701 122 742.5 c 128,-1,77
 95 784 95 784 83.5 834 c 128,-1,78
 72 884 72 884 72 930 c 0,79,80
 72 971 72 971 81 1021 c 128,-1,81
 90 1071 90 1071 113.5 1112.5 c 128,-1,82
 137 1154 137 1154 174 1184 c 128,-1,83
 211 1214 211 1214 264 1214 c 0,84,85
 293 1214 293 1214 308.5 1201 c 128,-1,86
 324 1188 324 1188 337.5 1171 c 128,-1,87
 351 1154 351 1154 365.5 1141.5 c 128,-1,88
 380 1129 380 1129 398 1129 c 0,89,90
 414 1129 414 1129 420.5 1141.5 c 128,-1,91
 427 1154 427 1154 436.5 1171 c 128,-1,92
 446 1188 446 1188 462.5 1201 c 128,-1,93
 479 1214 479 1214 513 1214 c 0,48,49
234 828 m 0,94,95
 234 763 234 763 296 763 c 0,96,97
 354 763 354 763 354 828 c 0,98,99
 354 890 354 890 296 890 c 0,100,101
 234 890 234 890 234 828 c 0,94,95
EndSplineSet
EndChar

StartChar: uni0E0C
Encoding: 3596 3596 281
Width: 1131
VWidth: 3111
Flags: W
HStem: -28 21<625 704 918 1101> -28 146<247.047 340.408> 280 124<255.787 342.214> 1066 148<296.628 539.557>
VStem: 60 192<395 722.732> 626 176<427 1012.16> 641 161<86.375 249> 918 183<0 110.656 339 1205>
LayerCount: 2
Fore
SplineSet
918 86 m 2,0,1
 918 100 918 100 913.5 111 c 128,-1,2
 909 122 909 122 898.5 138.5 c 128,-1,3
 888 155 888 155 864 181.5 c 128,-1,4
 840 208 840 208 802 249 c 1,5,-1
 802 152 l 2,6,7
 802 83 802 83 771 27.5 c 128,-1,8
 740 -28 740 -28 668 -28 c 0,9,10
 582 -28 582 -28 533.5 16 c 128,-1,11
 485 60 485 60 469 125 c 1,12,13
 448 62 448 62 406.5 17 c 128,-1,14
 365 -28 365 -28 293 -28 c 0,15,16
 237 -28 237 -28 193 -5 c 128,-1,17
 149 18 149 18 119.5 55.5 c 128,-1,18
 90 93 90 93 75 141.5 c 128,-1,19
 60 190 60 190 60 237 c 2,20,-1
 60 603 l 2,21,22
 60 668 60 668 97 724.5 c 128,-1,23
 134 781 134 781 169 819 c 1,24,-1
 30 819 l 1,25,-1
 30 968 l 1,26,27
 72 1015 72 1015 109 1058 c 128,-1,28
 146 1101 146 1101 190 1135.5 c 128,-1,29
 234 1170 234 1170 288 1192 c 128,-1,30
 342 1214 342 1214 416 1214 c 128,-1,31
 490 1214 490 1214 558 1196.5 c 128,-1,32
 626 1179 626 1179 680 1142 c 128,-1,33
 734 1105 734 1105 768 1045.5 c 128,-1,34
 802 986 802 986 802 902 c 2,35,-1
 802 410 l 1,36,37
 837 386 837 386 860.5 372.5 c 128,-1,38
 884 359 884 359 909 339 c 1,39,-1
 909 1205 l 1,40,-1
 1101 1205 l 1,41,-1
 1101 0 l 1,42,-1
 918 0 l 1,43,-1
 918 86 l 2,0,1
312 404 m 0,44,45
 383 404 383 404 420.5 373 c 128,-1,46
 458 342 458 342 472 286 c 1,47,48
 490 342 490 342 527 373 c 128,-1,49
 564 404 564 404 626 427 c 1,50,-1
 626 870 l 2,51,52
 626 965 626 965 579 1015.5 c 128,-1,53
 532 1066 532 1066 442 1066 c 256,54,55
 351 1066 351 1066 298.5 1026 c 128,-1,56
 246 986 246 986 196 932 c 1,57,-1
 326 932 l 1,58,-1
 326 828 l 1,59,60
 282 816 282 816 267 772 c 128,-1,61
 252 728 252 728 252 685 c 2,62,-1
 252 395 l 1,63,64
 286 404 286 404 312 404 c 0,44,45
351 208 m 0,65,66
 351 240 351 240 337.5 260 c 128,-1,67
 324 280 324 280 289 280 c 0,68,69
 264 280 264 280 250.5 257 c 128,-1,70
 237 234 237 234 237 208 c 0,71,72
 237 178 237 178 249 148 c 128,-1,73
 261 118 261 118 293 118 c 0,74,75
 326 118 326 118 338.5 149.5 c 128,-1,76
 351 181 351 181 351 208 c 0,65,66
641 289 m 1,77,78
 612 277 612 277 594 248.5 c 128,-1,79
 576 220 576 220 576 183 c 0,80,81
 576 149 576 149 588.5 121 c 128,-1,82
 601 93 601 93 645 86 c 1,83,84
 641 93 641 93 641 119.5 c 128,-1,85
 641 146 641 146 641 149 c 2,86,-1
 641 289 l 1,77,78
EndSplineSet
EndChar

StartChar: uni0E0D
Encoding: 3597 3597 282
Width: 1131
VWidth: 3111
Flags: W
HStem: -436 150<644.485 794.755> -166 104<615.187 720.229> -28 132<270.169 365.96> 0 166<751 897> 286 128<282.954 371.269> 1084 139<333.539 442>
VStem: 81 192<401 737.981> 383 142<138.363 262.522> 479 118<-268.788 -183.1> 567 184<166 885.242 885.242 978.6> 722 112<-271.055 -167.553> 902 185<-166.605 -93 166 1205>
LayerCount: 2
Fore
SplineSet
446 1084 m 1,0,1
 354 1084 354 1084 303 1054 c 128,-1,2
 252 1024 252 1024 211 953 c 1,3,-1
 361 953 l 1,4,-1
 361 832 l 1,5,6
 314 822 314 822 293.5 779.5 c 128,-1,7
 273 737 273 737 273 698 c 2,8,-1
 273 401 l 1,9,10
 308 414 308 414 339 414 c 0,11,12
 439 414 439 414 482 364 c 128,-1,13
 525 314 525 314 525 220 c 256,14,15
 525 127 525 127 474.5 49.5 c 128,-1,16
 424 -28 424 -28 317 -28 c 0,17,18
 255 -28 255 -28 210.5 -1.5 c 128,-1,19
 166 25 166 25 137.5 67 c 128,-1,20
 109 109 109 109 95 162 c 128,-1,21
 81 215 81 215 81 268 c 2,22,-1
 81 629 l 2,23,24
 81 691 81 691 118 739.5 c 128,-1,25
 155 788 155 788 183 822 c 1,26,-1
 47 822 l 1,27,-1
 47 980 l 1,28,29
 90 1043 90 1043 121 1090 c 128,-1,30
 152 1137 152 1137 191.5 1166 c 128,-1,31
 231 1195 231 1195 286.5 1209 c 128,-1,32
 342 1223 342 1223 436 1223 c 0,33,34
 623 1223 623 1223 687 1136 c 128,-1,35
 751 1049 751 1049 751 865 c 2,36,-1
 751 166 l 1,37,-1
 897 166 l 1,38,-1
 897 1205 l 1,39,-1
 1089 1205 l 1,40,-1
 1089 0 l 1,41,-1
 567 0 l 1,42,-1
 567 844 l 2,43,44
 567 885 567 885 565.5 926.5 c 128,-1,45
 564 968 564 968 551 1004 c 128,-1,46
 538 1040 538 1040 514 1062 c 128,-1,47
 490 1084 490 1084 442 1084 c 1,48,-1
 446 1084 l 1,0,1
1087 -139 m 2,49,50
 1087 -171 1087 -171 1076.5 -211.5 c 128,-1,51
 1066 -252 1066 -252 1052 -280 c 0,52,53
 999 -368 999 -368 910.5 -402 c 128,-1,54
 822 -436 822 -436 724 -436 c 0,55,56
 685 -436 685 -436 641 -425 c 128,-1,57
 597 -414 597 -414 561 -391 c 128,-1,58
 525 -368 525 -368 502 -332 c 128,-1,59
 479 -296 479 -296 479 -246 c 0,60,61
 479 -166 479 -166 524 -114 c 128,-1,62
 569 -62 569 -62 650 -62 c 0,63,64
 722 -62 722 -62 778 -98 c 128,-1,65
 834 -134 834 -134 834 -217 c 0,66,67
 834 -255 834 -255 816 -282 c 1,68,69
 865 -264 865 -264 884 -217 c 0,70,71
 893 -196 893 -196 897.5 -167.5 c 128,-1,72
 902 -139 902 -139 902 -93 c 1,73,-1
 1087 -93 l 1,74,-1
 1087 -139 l 2,49,50
383 202 m 0,75,76
 383 234 383 234 368.5 260 c 128,-1,77
 354 286 354 286 321 286 c 0,78,79
 293 286 293 286 274 260 c 128,-1,80
 255 234 255 234 255 205 c 0,81,82
 255 171 255 171 272 137.5 c 128,-1,83
 289 104 289 104 324 104 c 0,84,85
 348 104 348 104 365.5 141 c 128,-1,86
 383 178 383 178 383 202 c 0,75,76
597 -228 m 0,87,88
 597 -252 597 -252 616 -269 c 128,-1,89
 635 -286 635 -286 659 -286 c 0,90,91
 722 -286 722 -286 722 -228 c 0,92,93
 722 -166 722 -166 659 -166 c 0,94,95
 635 -166 635 -166 616 -182.5 c 128,-1,96
 597 -199 597 -199 597 -228 c 0,87,88
EndSplineSet
Substitution2: "Single Substitution lookup 22 subtable" uni0E0D.alt1
Substitution2: "Single Substitution lookup 22 subtable" uni0E0D.alt1
EndChar

StartChar: uni0E0E
Encoding: 3598 3598 283
Width: 1131
VWidth: 3111
Flags: W
HStem: -502 148<439.453 565.328> -224 146<422.045 499.43 498.557 500.304 500.304 515.5> -28 144<240.848 332.695> 268 146<242.164 312.124> 1057 160<514.106 779.043>
VStem: 62 166<141.627 253.039> 234 167<-340.505 -245.285> 324 192<404 737.499> 339 177<208 330> 569 194<-87.7147 21> 881 190<-261 883.328>
LayerCount: 2
Fore
SplineSet
1071 -495 m 1,0,-1
 902 -495 l 1,1,2
 862 -469 862 -469 815 -424.5 c 128,-1,3
 768 -380 768 -380 724 -348 c 1,4,5
 694 -427 694 -427 630.5 -464.5 c 128,-1,6
 567 -502 567 -502 476 -502 c 0,7,8
 433 -502 433 -502 389 -489 c 128,-1,9
 345 -476 345 -476 311 -451.5 c 128,-1,10
 277 -427 277 -427 255.5 -389 c 128,-1,11
 234 -351 234 -351 234 -299 c 0,12,13
 234 -193 234 -193 305.5 -135.5 c 128,-1,14
 377 -78 377 -78 476 -78 c 0,15,16
 502 -78 502 -78 524.5 -84 c 128,-1,17
 547 -90 547 -90 569 -95 c 1,18,-1
 569 21 l 1,19,-1
 763 21 l 1,20,-1
 751 -161 l 1,21,22
 784 -187 784 -187 816.5 -212 c 128,-1,23
 849 -237 849 -237 881 -261 c 1,24,-1
 881 772 l 2,25,26
 881 837 881 837 873 890 c 128,-1,27
 865 943 865 943 843.5 980.5 c 128,-1,28
 822 1018 822 1018 781 1037.5 c 128,-1,29
 740 1057 740 1057 675 1057 c 0,30,31
 594 1057 594 1057 528.5 1028 c 128,-1,32
 463 999 463 999 407 946 c 1,33,-1
 609 946 l 1,34,-1
 609 831 l 1,35,36
 557 805 557 805 536.5 764.5 c 128,-1,37
 516 724 516 724 516 678 c 2,38,-1
 516 330 l 2,39,40
 516 270 516 270 511.5 206.5 c 128,-1,41
 507 143 507 143 483.5 92 c 128,-1,42
 460 41 460 41 414 6.5 c 128,-1,43
 368 -28 368 -28 282 -28 c 0,44,45
 183 -28 183 -28 122.5 47 c 128,-1,46
 62 122 62 122 62 215 c 0,47,48
 62 305 62 305 122.5 359.5 c 128,-1,49
 183 414 183 414 273 414 c 0,50,51
 303 414 303 414 324 404 c 1,52,-1
 324 638 l 2,53,54
 324 691 324 691 359.5 739 c 128,-1,55
 395 787 395 787 419 822 c 1,56,-1
 217 822 l 1,57,-1
 217 980 l 1,58,59
 299 1098 299 1098 415.5 1157.5 c 128,-1,60
 532 1217 532 1217 666 1217 c 0,61,62
 888 1217 888 1217 981 1117.5 c 128,-1,63
 1074 1018 1074 1018 1074 787 c 2,64,-1
 1071 -495 l 1,0,-1
476 -354 m 0,65,66
 569 -354 569 -354 569 -286 c 2,67,-1
 569 -259 l 1,68,69
 541 -243 541 -243 515.5 -233.5 c 128,-1,70
 490 -224 490 -224 460 -224 c 0,71,72
 436 -224 436 -224 418.5 -247 c 128,-1,73
 401 -270 401 -270 401 -293 c 0,74,75
 401 -317 401 -317 427.5 -335.5 c 128,-1,76
 454 -354 454 -354 476 -354 c 0,65,66
339 208 m 0,77,78
 339 234 339 234 321 251 c 128,-1,79
 303 268 303 268 277 268 c 256,80,81
 252 268 252 268 240 248 c 128,-1,82
 228 228 228 228 228 202 c 256,83,84
 228 175 228 175 243.5 145.5 c 128,-1,85
 259 116 259 116 289 116 c 0,86,87
 324 116 324 116 331.5 145.5 c 128,-1,88
 339 175 339 175 339 208 c 0,77,78
EndSplineSet
Substitution2: "Single Substitution lookup 22 subtable" uni0E0E.alt1
Substitution2: "Single Substitution lookup 22 subtable" uni0E0E.alt1
EndChar

StartChar: uni0E0F
Encoding: 3599 3599 284
Width: 1131
VWidth: 3111
Flags: W
HStem: -502 143<280.198 409.201> -237 137<266.771 436.733> -28 141<247.103 329.973> 270 137<249.377 321.026> 1068 155<503.567 801.783>
VStem: 74 997<109 293 -495 202 202 202> 74 163<134.515 249.561> 81 171<-346.022 -252.437> 324 192<404 723.438> 878 193<-252 720.239 720.239 930.511>
LayerCount: 2
Fore
SplineSet
1071 -495 m 1,0,-1
 890 -495 l 1,1,-1
 793 -359 l 1,2,3
 759 -401 759 -401 740.5 -432 c 128,-1,4
 722 -463 722 -463 707 -490 c 1,5,-1
 635 -490 l 1,6,-1
 560 -392 l 1,7,8
 507 -446 507 -446 455.5 -474 c 128,-1,9
 404 -502 404 -502 317 -502 c 256,10,11
 231 -502 231 -502 156 -445.5 c 128,-1,12
 81 -389 81 -389 81 -296 c 0,13,14
 81 -205 81 -205 152.5 -152.5 c 128,-1,15
 224 -100 224 -100 308 -100 c 0,16,17
 404 -100 404 -100 481 -149 c 1,18,-1
 481 -6 l 1,19,-1
 675 -6 l 1,20,21
 675 -62 675 -62 671.5 -99.5 c 128,-1,22
 668 -137 668 -137 663.5 -160 c 128,-1,23
 659 -183 659 -183 654.5 -199 c 128,-1,24
 650 -215 650 -215 645 -231 c 1,25,26
 647 -237 647 -237 666 -253.5 c 128,-1,27
 685 -270 685 -270 698 -280 c 1,28,29
 712 -246 712 -246 737.5 -208.5 c 128,-1,30
 763 -171 763 -171 784 -134 c 1,31,-1
 878 -252 l 1,32,-1
 878 819 l 2,33,34
 878 1068 878 1068 650 1068 c 0,35,36
 569 1068 569 1068 510 1033.5 c 128,-1,37
 451 999 451 999 404 950 c 1,38,-1
 601 950 l 1,39,-1
 601 825 l 1,40,41
 557 800 557 800 536.5 750.5 c 128,-1,42
 516 701 516 701 516 656 c 2,43,-1
 516 305 l 2,44,45
 516 246 516 246 509 185.5 c 128,-1,46
 502 125 502 125 476.5 77.5 c 128,-1,47
 451 30 451 30 406 1 c 128,-1,48
 361 -28 361 -28 282 -28 c 0,49,50
 178 -28 178 -28 126 40.5 c 128,-1,51
 74 109 74 109 74 202 c 0,52,53
 74 293 74 293 126 350 c 128,-1,54
 178 407 178 407 268 407 c 0,55,56
 282 407 282 407 295 407 c 128,-1,57
 308 407 308 407 324 404 c 1,58,-1
 324 629 l 2,59,60
 324 675 324 675 353.5 725 c 128,-1,61
 383 775 383 775 416 816 c 1,62,-1
 220 816 l 1,63,-1
 220 992 l 1,64,65
 299 1102 299 1102 412 1162.5 c 128,-1,66
 525 1223 525 1223 654 1223 c 0,67,68
 768 1223 768 1223 870 1180 c 0,69,70
 969 1138 969 1138 1030 1027 c 0,71,72
 1045 999 1045 999 1053 952.5 c 128,-1,73
 1061 906 1061 906 1063.5 856 c 128,-1,74
 1066 806 1066 806 1068.5 759 c 128,-1,75
 1071 712 1071 712 1071 682 c 2,76,-1
 1071 -495 l 1,0,-1
339 -359 m 0,77,78
 368 -359 368 -359 403.5 -342.5 c 128,-1,79
 439 -326 439 -326 451 -293 c 1,80,81
 389 -237 389 -237 314 -237 c 0,82,83
 282 -237 282 -237 267 -253.5 c 128,-1,84
 252 -270 252 -270 252 -293 c 0,85,86
 252 -330 252 -330 284.5 -344.5 c 128,-1,87
 317 -359 317 -359 339 -359 c 0,77,78
339 193 m 256,88,89
 339 220 339 220 326.5 245 c 128,-1,90
 314 270 314 270 282 270 c 0,91,92
 261 270 261 270 249 243.5 c 128,-1,93
 237 217 237 217 237 193 c 256,94,95
 237 169 237 169 249 141 c 128,-1,96
 261 113 261 113 286 113 c 0,97,98
 317 113 317 113 328 139.5 c 128,-1,99
 339 166 339 166 339 193 c 256,88,89
EndSplineSet
Substitution2: "Single Substitution lookup 22 subtable" uni0E0F.alt1
Substitution2: "Single Substitution lookup 22 subtable" uni0E0F.alt1
EndChar

StartChar: uni0E10
Encoding: 3600 3600 285
Width: 1131
VWidth: 3111
Flags: W
HStem: -495 127<171.955 274.852 668.222 771.997> -252 134<169.889 248.831> -143 102<747.114 826.911> 0 21G<640.248 914.5> 280 139<372.611 463.622> 560 138<371.691 464.561> 793 162<333.757 449.035 449.035 517.419 517.419 664.208> 939 231<793.159 983.474> 1048 169<384.539 615.304>
VStem: 16 139<-342.092 -267.368> 211 140<440.89 539.568> 623 124<-219.877 -143.258> 819 190<496.559 704.257> 828 122<-219.99 -143.883>
LayerCount: 2
Fore
SplineSet
1027 953 m 2,0,1
 989 939 989 939 930 939 c 256,2,3
 870 939 870 939 813 956.5 c 128,-1,4
 756 974 756 974 701.5 994.5 c 128,-1,5
 647 1015 647 1015 592.5 1031.5 c 128,-1,6
 538 1048 538 1048 481 1048 c 0,7,8
 430 1048 430 1048 395.5 1023.5 c 128,-1,9
 361 999 361 999 333 955 c 1,10,-1
 451 955 l 2,11,12
 507 955 507 955 584.5 952.5 c 128,-1,13
 662 950 662 950 739 932.5 c 128,-1,14
 816 915 816 915 881 882 c 128,-1,15
 946 849 946 849 976 787 c 0,16,17
 995 754 995 754 1002 712.5 c 128,-1,18
 1009 671 1009 671 1009 632 c 0,19,20
 1009 555 1009 555 996 475 c 128,-1,21
 983 395 983 395 968 316 c 128,-1,22
 953 237 953 237 935.5 157.5 c 128,-1,23
 918 78 918 78 911 0 c 1,24,-1
 647 0 l 1,25,-1
 541 314 l 1,26,27
 498 280 498 280 427 280 c 0,28,29
 336 280 336 280 273.5 337.5 c 128,-1,30
 211 395 211 395 211 485 c 0,31,32
 211 594 211 594 279.5 646 c 128,-1,33
 348 698 348 698 451 698 c 0,34,35
 541 698 541 698 606 578 c 128,-1,36
 671 458 671 458 768 196 c 1,37,38
 778 293 778 293 798.5 392.5 c 128,-1,39
 819 492 819 492 819 588 c 0,40,41
 819 678 819 678 785 720.5 c 128,-1,42
 751 763 751 763 690 776.5 c 128,-1,43
 629 790 629 790 543.5 788.5 c 128,-1,44
 458 787 458 787 354 793 c 0,45,46
 330 793 330 793 301.5 791.5 c 128,-1,47
 273 790 273 790 246 778 c 1,48,-1
 74 778 l 1,49,50
 93 870 93 870 129.5 950 c 128,-1,51
 166 1030 166 1030 219.5 1089.5 c 128,-1,52
 273 1149 273 1149 348.5 1183 c 128,-1,53
 424 1217 424 1217 516 1217 c 0,54,55
 594 1217 594 1217 687.5 1193.5 c 128,-1,56
 781 1170 781 1170 853 1170 c 0,57,58
 899 1170 899 1170 942.5 1176 c 128,-1,59
 986 1182 986 1182 1057 1211 c 1,60,-1
 1057 962 l 1,61,-1
 1027 953 l 2,0,1
950 -345 m 1,62,63
 950 -427 950 -427 906 -461 c 128,-1,64
 862 -495 862 -495 781 -495 c 2,65,-1
 609 -495 l 1,66,-1
 538 -419 l 1,67,68
 520 -439 520 -439 500.5 -464.5 c 128,-1,69
 481 -490 481 -490 458 -504 c 1,70,71
 416 -454 416 -454 404 -439 c 128,-1,72
 392 -424 392 -424 386 -414 c 1,73,74
 351 -446 351 -446 312 -472 c 128,-1,75
 273 -498 273 -498 220 -498 c 0,76,77
 16 -498 16 -498 16 -296 c 0,78,79
 16 -224 16 -224 71.5 -171 c 128,-1,80
 127 -118 127 -118 199 -118 c 0,81,82
 231 -118 231 -118 260 -128.5 c 128,-1,83
 289 -139 289 -139 314 -155 c 1,84,85
 314 -134 314 -134 314 -114.5 c 128,-1,86
 314 -95 314 -95 312 -74 c 1,87,-1
 312 -44 l 1,88,-1
 502 -44 l 1,89,90
 507 -65 507 -65 509 -73 c 128,-1,91
 511 -81 511 -81 511 -86 c 2,92,-1
 511 -90 l 2,93,94
 511 -134 511 -134 501.5 -179 c 128,-1,95
 492 -224 492 -224 479 -264 c 1,96,97
 490 -270 490 -270 498 -280 c 0,98,99
 516 -299 516 -299 516 -303 c 1,100,101
 535 -277 535 -277 546 -264.5 c 128,-1,102
 557 -252 557 -252 569 -240 c 1,103,-1
 668 -361 l 2,104,105
 675 -368 675 -368 695 -368 c 128,-1,106
 715 -368 715 -368 728 -368 c 2,107,-1
 759 -368 l 2,108,109
 772 -368 772 -368 772 -326 c 1,110,111
 710 -317 710 -317 666.5 -284.5 c 128,-1,112
 623 -252 623 -252 623 -181 c 256,113,114
 623 -109 623 -109 666.5 -75 c 128,-1,115
 710 -41 710 -41 781 -41 c 0,116,117
 862 -41 862 -41 906 -77 c 128,-1,118
 950 -113 950 -113 950 -190 c 2,119,-1
 950 -345 l 1,62,63
220 -359 m 0,120,121
 246 -359 246 -359 269.5 -341.5 c 128,-1,122
 293 -324 293 -324 303 -308 c 1,123,124
 289 -289 289 -289 267.5 -270.5 c 128,-1,125
 246 -252 246 -252 211 -252 c 0,126,127
 183 -252 183 -252 169 -270.5 c 128,-1,128
 155 -289 155 -289 155 -312 c 0,129,130
 155 -326 155 -326 174 -342.5 c 128,-1,131
 193 -359 193 -359 220 -359 c 0,120,121
747 -181 m 0,132,133
 747 -220 747 -220 787 -220 c 256,134,135
 828 -220 828 -220 828 -181 c 0,136,137
 828 -143 828 -143 787 -143 c 256,138,139
 747 -143 747 -143 747 -181 c 0,132,133
351 492 m 0,140,141
 351 460 351 460 370 439.5 c 128,-1,142
 389 419 389 419 416 419 c 256,143,144
 446 419 446 419 465.5 439.5 c 128,-1,145
 485 460 485 460 485 492 c 0,146,147
 485 520 485 520 465.5 540 c 128,-1,148
 446 560 446 560 416 560 c 256,149,150
 389 560 389 560 370 540 c 128,-1,151
 351 520 351 520 351 492 c 0,140,141
EndSplineSet
Substitution2: "Single Substitution lookup 22 subtable" uni0E10.alt1
Substitution2: "Single Substitution lookup 22 subtable" uni0E10.alt1
EndChar

StartChar: uni0E11
Encoding: 3601 3601 286
Width: 1131
VWidth: 3111
Flags: W
HStem: 0 21G<330 523 870 1064> 647 104<209.146 314.593> 870 106<233.503 304.462> 1039 158<185.844 243.598 425.719 477.026>
VStem: 56 152<780.573 1004.03> 330 193<0 240> 485 147<922.652 1018.24> 870 194<0 911.665 911.665 998.279>
LayerCount: 2
Fore
SplineSet
330 0 m 1,0,-1
 330 485 l 2,1,2
 330 502 330 502 339 533 c 128,-1,3
 348 564 348 564 356 581 c 0,4,-1
 383 653 l 0,5,6
 404 707 404 707 416 731 c 1,7,8
 386 689 386 689 339.5 668 c 128,-1,9
 293 647 293 647 268 647 c 0,10,11
 199 647 199 647 157.5 678.5 c 128,-1,12
 116 710 116 710 92.5 757.5 c 128,-1,13
 69 805 69 805 62.5 863 c 128,-1,14
 56 921 56 921 56 971 c 0,15,16
 56 1009 56 1009 65 1048 c 128,-1,17
 74 1087 74 1087 93.5 1120.5 c 128,-1,18
 113 1154 113 1154 141 1175.5 c 128,-1,19
 169 1197 169 1197 202 1197 c 0,20,21
 234 1197 234 1197 253.5 1183.5 c 128,-1,22
 273 1170 273 1170 289 1153 c 128,-1,23
 305 1136 305 1136 315.5 1120.5 c 128,-1,24
 326 1105 326 1105 339 1098 c 1,25,-1
 342 1098 l 1,26,27
 368 1123 368 1123 389 1160 c 128,-1,28
 410 1197 410 1197 460 1197 c 0,29,30
 535 1197 535 1197 583.5 1151 c 128,-1,31
 632 1105 632 1105 632 1012 c 0,32,33
 632 950 632 950 610 886 c 128,-1,34
 588 822 588 822 564 768 c 0,35,36
 544 724 544 724 525.5 645.5 c 128,-1,37
 507 567 507 567 507 495 c 1,38,39
 532 550 532 550 561.5 619.5 c 128,-1,40
 591 689 591 689 620.5 755.5 c 128,-1,41
 650 822 650 822 676.5 884 c 128,-1,42
 703 946 703 946 722 986 c 0,43,44
 759 1077 759 1077 801.5 1142.5 c 128,-1,45
 844 1208 844 1208 909 1208 c 0,46,47
 1015 1208 1015 1208 1039.5 1167 c 128,-1,48
 1064 1126 1064 1126 1064 1036 c 2,49,-1
 1064 0 l 1,50,-1
 870 0 l 1,51,-1
 870 881 l 2,52,53
 870 909 870 909 868.5 942.5 c 128,-1,54
 867 976 867 976 865 999 c 1,55,56
 837 939 837 939 787 827 c 128,-1,57
 737 715 737 715 686 598 c 128,-1,58
 635 481 635 481 589.5 380.5 c 128,-1,59
 544 280 544 280 523 240 c 1,60,-1
 523 0 l 1,61,-1
 330 0 l 1,0,-1
442 816 m 2,62,63
 467 858 467 858 476 888 c 128,-1,64
 485 918 485 918 485 959 c 0,65,66
 485 980 485 980 476 1008 c 128,-1,67
 467 1036 467 1036 451 1036 c 0,68,69
 442 1036 442 1036 436 1028.5 c 128,-1,70
 430 1021 430 1021 424 1012 c 0,71,72
 414 992 414 992 403 977 c 128,-1,73
 392 962 392 962 374 955 c 1,74,75
 404 932 404 932 420 890.5 c 128,-1,76
 436 849 436 849 436 805 c 1,77,-1
 442 816 l 2,62,63
205 962 m 2,78,79
 217 968 217 968 233 972 c 128,-1,80
 249 976 249 976 277 976 c 2,81,-1
 305 974 l 1,82,83
 305 976 305 976 293.5 987.5 c 128,-1,84
 282 999 282 999 270.5 1010 c 128,-1,85
 259 1021 259 1021 248 1030 c 128,-1,86
 237 1039 237 1039 231 1039 c 0,87,88
 208 1039 208 1039 196 959 c 1,89,-1
 205 962 l 2,78,79
208 809 m 0,90,91
 208 751 208 751 268 751 c 256,92,93
 326 751 326 751 326 809 c 0,94,95
 326 870 326 870 268 870 c 256,96,97
 208 870 208 870 208 809 c 0,90,91
EndSplineSet
EndChar

StartChar: uni0E12
Encoding: 3602 3602 287
Width: 1131
VWidth: 3111
Flags: W
HStem: -28 106<631.445 688.122> 759 119<407.826 497.943> 955 150<431.31 512.954> 1043 171<239.932 327.678 596.358 626>
VStem: 35 161<677.077 866.673> 252 134<641.771 737.663> 490 127<113.829 224.582 216.481 232.683> 520 121<641.427 737.448> 691 153<79.875 224 430 985.146> 918 192<314 1205>
LayerCount: 2
Fore
SplineSet
918 314 m 1,0,-1
 918 1205 l 1,1,-1
 1110 1205 l 1,2,-1
 1110 0 l 1,3,-1
 992 0 l 1,4,-1
 844 224 l 1,5,-1
 844 161 l 2,6,7
 844 69 844 69 812.5 20.5 c 128,-1,8
 781 -28 781 -28 682 -28 c 0,9,10
 585 -28 585 -28 537.5 44 c 128,-1,11
 490 116 490 116 490 202 c 0,12,13
 490 208 490 208 491 231.5 c 128,-1,14
 492 255 492 255 492 261 c 1,15,16
 463 193 463 193 430.5 123 c 128,-1,17
 398 53 398 53 377 0 c 1,18,-1
 193 0 l 1,19,20
 183 104 183 104 158.5 198.5 c 128,-1,21
 134 293 134 293 106 386 c 128,-1,22
 78 479 78 479 56.5 573.5 c 128,-1,23
 35 668 35 668 35 772 c 0,24,25
 35 837 35 837 47.5 913 c 128,-1,26
 60 989 60 989 89 1054.5 c 128,-1,27
 118 1120 118 1120 169 1165.5 c 128,-1,28
 220 1211 220 1211 299 1211 c 0,29,30
 326 1211 326 1211 348 1193.5 c 128,-1,31
 370 1176 370 1176 387 1158 c 128,-1,32
 404 1140 404 1140 421.5 1122.5 c 128,-1,33
 439 1105 439 1105 460 1105 c 0,34,35
 498 1105 498 1105 527.5 1148 c 128,-1,36
 557 1191 557 1191 591 1214 c 1,37,38
 656 1214 656 1214 705 1189 c 128,-1,39
 754 1164 754 1164 785 1122 c 128,-1,40
 816 1080 816 1080 831 1024 c 128,-1,41
 846 968 846 968 846 909 c 2,42,-1
 846 395 l 1,43,-1
 918 314 l 1,0,-1
525 333 m 1,44,45
 550 368 550 368 589.5 393.5 c 128,-1,46
 629 419 629 419 682 430 c 1,47,-1
 682 936 l 2,48,49
 682 968 682 968 670.5 999 c 128,-1,50
 659 1030 659 1030 626 1043 c 1,51,-1
 623 1043 l 2,52,53
 603 1043 603 1043 586 1029 c 128,-1,54
 569 1015 569 1015 550.5 999 c 128,-1,55
 532 983 532 983 512 969 c 128,-1,56
 492 955 492 955 463 955 c 256,57,58
 436 955 436 955 414 969 c 128,-1,59
 392 983 392 983 373 999 c 128,-1,60
 354 1015 354 1015 335.5 1029 c 128,-1,61
 317 1043 317 1043 299 1043 c 0,62,63
 264 1043 264 1043 244 1013 c 128,-1,64
 224 983 224 983 213 942.5 c 128,-1,65
 202 902 202 902 199 859 c 128,-1,66
 196 816 196 816 196 784 c 0,67,68
 196 712 196 712 213.5 645.5 c 128,-1,69
 231 579 231 579 254 515 c 128,-1,70
 277 451 277 451 299 387.5 c 128,-1,71
 321 324 321 324 330 252 c 1,72,73
 348 305 348 305 359 332 c 128,-1,74
 370 359 370 359 379.5 377 c 128,-1,75
 389 395 389 395 399.5 418.5 c 128,-1,76
 410 442 410 442 430 490 c 1,77,78
 368 504 368 504 310 549 c 128,-1,79
 252 594 252 594 252 675 c 0,80,81
 252 778 252 778 310 828 c 128,-1,82
 368 878 368 878 463 878 c 0,83,84
 641 878 641 878 641 691 c 0,85,86
 641 626 641 626 623.5 565 c 128,-1,87
 606 504 606 504 582 448 c 2,88,-1
 525 333 l 1,44,45
617 193 m 0,89,90
 617 158 617 158 631 119.5 c 128,-1,91
 645 81 645 81 691 78 c 1,92,-1
 691 312 l 1,93,94
 645 289 645 289 631 253 c 128,-1,95
 617 217 617 217 617 193 c 0,89,90
386 689 m 128,-1,97
 386 659 386 659 406.5 639.5 c 128,-1,98
 427 620 427 620 451 620 c 0,99,100
 479 620 479 620 499.5 639.5 c 128,-1,101
 520 659 520 659 520 689 c 128,-1,102
 520 719 520 719 499.5 739 c 128,-1,103
 479 759 479 759 451 759 c 0,104,105
 427 759 427 759 406.5 739 c 128,-1,96
 386 719 386 719 386 689 c 128,-1,97
EndSplineSet
EndChar

StartChar: uni0E13
Encoding: 3603 3603 288
Width: 1131
VWidth: 3111
Flags: W
HStem: -28 137<252.947 342.37> -28 121<903.431 982.615> 261 131<266.956 342.313> 1064 147<277.2 470.926>
VStem: 53 193<195.125 223.43 380 745.465> 495 183<246 964.629> 855 193<390.196 1205> 992 128<117.161 243.376>
LayerCount: 2
Fore
SplineSet
754 308 m 2,0,1
 805 351 805 351 830 389 c 128,-1,2
 855 427 855 427 855 498 c 2,3,-1
 855 1205 l 1,4,-1
 1048 1205 l 1,5,-1
 1048 448 l 2,6,7
 1048 398 1048 398 1015 365 c 1,8,9
 1066 336 1066 336 1093 298.5 c 128,-1,10
 1120 261 1120 261 1120 196 c 0,11,12
 1120 106 1120 106 1078 39 c 128,-1,13
 1036 -28 1036 -28 939 -28 c 0,14,15
 858 -28 858 -28 815 20.5 c 128,-1,16
 772 69 772 69 766 146 c 1,17,18
 740 122 740 122 692.5 81.5 c 128,-1,19
 645 41 645 41 629 0 c 1,20,-1
 495 0 l 1,21,-1
 495 171 l 1,22,23
 479 100 479 100 428 36 c 128,-1,24
 377 -28 377 -28 293 -28 c 0,25,26
 234 -28 234 -28 188.5 -1.5 c 128,-1,27
 143 25 143 25 113 67 c 128,-1,28
 83 109 83 109 68 162 c 128,-1,29
 53 215 53 215 53 268 c 2,30,-1
 53 635 l 2,31,32
 53 698 53 698 87.5 747 c 128,-1,33
 122 796 122 796 146 828 c 1,34,-1
 21 828 l 1,35,-1
 21 989 l 1,36,37
 69 1045 69 1045 100 1087 c 128,-1,38
 131 1129 131 1129 168 1155.5 c 128,-1,39
 205 1182 205 1182 258.5 1196.5 c 128,-1,40
 312 1211 312 1211 398 1211 c 256,41,42
 485 1211 485 1211 539.5 1189 c 128,-1,43
 594 1167 594 1167 625 1125 c 128,-1,44
 656 1083 656 1083 667 1022.5 c 128,-1,45
 678 962 678 962 678 881 c 2,46,-1
 678 246 l 1,47,-1
 754 308 l 2,0,1
312 392 m 0,48,49
 392 392 392 392 436.5 345.5 c 128,-1,50
 481 299 481 299 495 234 c 1,51,-1
 495 881 l 2,52,53
 495 962 495 962 474.5 1013 c 128,-1,54
 454 1064 454 1064 368 1064 c 0,55,56
 299 1064 299 1064 258 1026.5 c 128,-1,57
 217 989 217 989 187 939 c 1,58,-1
 330 939 l 1,59,-1
 330 837 l 1,60,61
 282 828 282 828 264 784 c 128,-1,62
 246 740 246 740 246 701 c 2,63,-1
 246 380 l 1,64,65
 261 386 261 386 275 389 c 128,-1,66
 289 392 289 392 312 392 c 0,48,49
351 196 m 0,67,68
 351 217 351 217 337.5 239 c 128,-1,69
 324 261 324 261 299 261 c 256,70,71
 273 261 273 261 258 238 c 128,-1,72
 243 215 243 215 243 190 c 0,73,74
 243 158 243 158 256.5 133.5 c 128,-1,75
 270 109 270 109 305 109 c 0,76,77
 330 109 330 109 340.5 140 c 128,-1,78
 351 171 351 171 351 196 c 0,67,68
992 187 m 0,79,80
 992 208 992 208 980 236 c 128,-1,81
 968 264 968 264 946 264 c 0,82,83
 921 264 921 264 905.5 236 c 128,-1,84
 890 208 890 208 890 181 c 0,85,86
 890 155 890 155 905.5 124 c 128,-1,87
 921 93 921 93 946 93 c 256,88,89
 971 93 971 93 981.5 127 c 128,-1,90
 992 161 992 161 992 187 c 0,79,80
EndSplineSet
EndChar

StartChar: uni0E14
Encoding: 3604 3604 289
Width: 1131
VWidth: 3111
Flags: W
HStem: 0 21G<222 485.5 846 1039> 734 144<528.118 619.78> 1054 160<399.814 722.825>
VStem: 86 184<564.921 927.923> 342 165<615.502 712.302> 641 155<615.739 712.24> 846 193<0 969.744>
LayerCount: 2
Fore
SplineSet
579 1054 m 0,0,1
 439 1054 439 1054 354.5 976.5 c 128,-1,2
 270 899 270 899 270 754 c 0,3,4
 270 620 270 620 306 490.5 c 128,-1,5
 342 361 342 361 377 237 c 1,6,7
 416 296 416 296 447.5 344 c 128,-1,8
 479 392 479 392 520 454 c 1,9,10
 439 463 439 463 390.5 511.5 c 128,-1,11
 342 560 342 560 342 656 c 0,12,13
 342 756 342 756 407 817 c 128,-1,14
 472 878 472 878 569 878 c 0,15,16
 668 878 668 878 732 825 c 128,-1,17
 796 772 796 772 796 662 c 0,18,19
 796 594 796 594 769.5 536.5 c 128,-1,20
 743 479 743 479 710 427 c 0,21,22
 707 424 707 424 700.5 414 c 128,-1,23
 694 404 694 404 667.5 364 c 128,-1,24
 641 324 641 324 588 239.5 c 128,-1,25
 535 155 535 155 436 0 c 1,26,-1
 224 0 l 1,27,28
 220 106 220 106 197.5 197.5 c 128,-1,29
 175 289 175 289 151 376 c 128,-1,30
 127 463 127 463 106.5 555 c 128,-1,31
 86 647 86 647 86 754 c 0,32,33
 86 867 86 867 123.5 953 c 128,-1,34
 161 1039 161 1039 227 1096.5 c 128,-1,35
 293 1154 293 1154 382.5 1184 c 128,-1,36
 472 1214 472 1214 576 1214 c 256,37,38
 678 1214 678 1214 762 1193.5 c 128,-1,39
 846 1173 846 1173 908.5 1125 c 128,-1,40
 971 1077 971 1077 1005 997.5 c 128,-1,41
 1039 918 1039 918 1039 800 c 2,42,-1
 1039 0 l 1,43,-1
 846 0 l 1,44,-1
 846 802 l 2,45,46
 846 946 846 946 772 1000 c 128,-1,47
 698 1054 698 1054 579 1054 c 0,0,1
507 666 m 0,48,49
 507 635 507 635 527 614.5 c 128,-1,50
 547 594 547 594 576 594 c 0,51,52
 601 594 601 594 621 614.5 c 128,-1,53
 641 635 641 635 641 666 c 0,54,55
 641 694 641 694 621 714 c 128,-1,56
 601 734 601 734 576 734 c 0,57,58
 547 734 547 734 527 714 c 128,-1,59
 507 694 507 694 507 666 c 0,48,49
EndSplineSet
EndChar

StartChar: uni0E15
Encoding: 3605 3605 290
Width: 1131
VWidth: 3111
Flags: W
HStem: 0 21G<231 463.5 831 1024> 747 131<521.278 613.205> 1191 20G<349 428.398 725 810.5>
VStem: 90 934<659 844 766 906 766 813.307> 90 183<581.627 860.429> 339 163<626.803 726.17> 635 143<628.886 724.184> 831 193<0 857.908 857.908 888 888 935.307>
LayerCount: 2
Fore
SplineSet
740 1018 m 1,0,1
 694 1006 694 1006 658.5 972.5 c 128,-1,2
 623 939 623 939 569 939 c 0,3,4
 535 939 535 939 510 953.5 c 128,-1,5
 485 968 485 968 465.5 983.5 c 128,-1,6
 446 999 446 999 423.5 1013 c 128,-1,7
 401 1027 401 1027 374 1027 c 0,8,9
 339 1027 339 1027 319 999 c 128,-1,10
 299 971 299 971 289.5 929.5 c 128,-1,11
 280 888 280 888 276.5 842 c 128,-1,12
 273 796 273 796 273 763 c 0,13,14
 273 629 273 629 316 507.5 c 128,-1,15
 359 386 359 386 386 255 c 1,16,17
 416 308 416 308 446 353 c 128,-1,18
 476 398 476 398 504 451 c 1,19,20
 433 469 433 469 386 525.5 c 128,-1,21
 339 582 339 582 339 659 c 0,22,23
 339 756 339 756 398.5 817 c 128,-1,24
 458 878 458 878 555 878 c 256,25,26
 650 878 650 878 714 831 c 128,-1,27
 778 784 778 784 778 682 c 0,28,29
 778 594 778 594 736 502 c 128,-1,30
 694 410 694 410 639.5 322 c 128,-1,31
 585 234 585 234 530.5 151.5 c 128,-1,32
 476 69 476 69 451 0 c 1,33,-1
 231 0 l 1,34,-1
 231 50 l 2,35,36
 231 149 231 149 209 235 c 128,-1,37
 187 321 187 321 160.5 403 c 128,-1,38
 134 485 134 485 112 572 c 128,-1,39
 90 659 90 659 90 766 c 0,40,41
 90 844 90 844 103 921.5 c 128,-1,42
 116 999 116 999 149.5 1061 c 128,-1,43
 183 1123 183 1123 243 1165.5 c 128,-1,44
 303 1208 303 1208 395 1211 c 1,45,-1
 567 1108 l 1,46,47
 620 1114 620 1114 661.5 1149.5 c 128,-1,48
 703 1185 703 1185 747 1214 c 1,49,50
 874 1179 874 1179 949 1106 c 128,-1,51
 1024 1033 1024 1033 1024 906 c 2,52,-1
 1024 0 l 1,53,-1
 831 0 l 1,54,-1
 831 828 l 2,55,56
 831 855 831 855 829.5 888 c 128,-1,57
 828 921 828 921 818.5 948.5 c 128,-1,58
 809 976 809 976 790.5 997 c 128,-1,59
 772 1018 772 1018 740 1018 c 1,0,1
502 675 m 0,60,61
 502 647 502 647 520 626.5 c 128,-1,62
 538 606 538 606 567 606 c 256,63,64
 594 606 594 606 614.5 626.5 c 128,-1,65
 635 647 635 647 635 675 c 0,66,67
 635 707 635 707 614.5 727 c 128,-1,68
 594 747 594 747 567 747 c 256,69,70
 538 747 538 747 520 727 c 128,-1,71
 502 707 502 707 502 675 c 0,60,61
EndSplineSet
EndChar

StartChar: uni0E16
Encoding: 3606 3606 291
Width: 1131
VWidth: 3111
Flags: W
HStem: -28 159<397.649 485.913> 270 146<417.847 486.629> 1057 166<439.957 603>
VStem: 100 915<936 959 802 862 802 802> 190 193<167.846 233.358 401 712.375> 507 155<152.42 249.657> 822 193<0 986.695>
LayerCount: 2
Fore
SplineSet
609 1057 m 1,0,1
 516 1057 516 1057 437.5 1023 c 128,-1,2
 359 989 359 989 299 936 c 1,3,-1
 479 936 l 1,4,-1
 479 819 l 1,5,6
 433 796 433 796 408 749.5 c 128,-1,7
 383 703 383 703 383 656 c 2,8,-1
 383 401 l 1,9,10
 404 407 404 407 423 411.5 c 128,-1,11
 442 416 442 416 467 416 c 0,12,13
 557 416 557 416 609.5 357.5 c 128,-1,14
 662 299 662 299 662 217 c 0,15,16
 662 106 662 106 603 39 c 128,-1,17
 544 -28 544 -28 427 -28 c 0,18,19
 314 -28 314 -28 252 55.5 c 128,-1,20
 190 139 190 139 190 243 c 2,21,-1
 190 609 l 2,22,23
 190 662 190 662 225.5 714 c 128,-1,24
 261 766 261 766 296 802 c 1,25,-1
 100 802 l 1,26,-1
 100 986 l 1,27,28
 205 1083 205 1083 326.5 1153 c 128,-1,29
 448 1223 448 1223 591 1223 c 0,30,31
 671 1223 671 1223 746.5 1202.5 c 128,-1,32
 822 1182 822 1182 882.5 1139 c 128,-1,33
 943 1096 943 1096 979 1027.5 c 128,-1,34
 1015 959 1015 959 1015 862 c 2,35,-1
 1015 0 l 1,36,-1
 822 0 l 1,37,-1
 822 831 l 2,38,39
 822 946 822 946 764.5 1001.5 c 128,-1,40
 707 1057 707 1057 603 1057 c 1,41,-1
 609 1057 l 1,0,1
377 199 m 0,42,43
 377 171 377 171 395.5 151 c 128,-1,44
 414 131 414 131 442 131 c 256,45,46
 469 131 469 131 488 151 c 128,-1,47
 507 171 507 171 507 199 c 0,48,49
 507 231 507 231 488 250.5 c 128,-1,50
 469 270 469 270 442 270 c 256,51,52
 414 270 414 270 395.5 250.5 c 128,-1,53
 377 231 377 231 377 199 c 0,42,43
EndSplineSet
EndChar

StartChar: uni0E17
Encoding: 3607 3607 292
Width: 1131
VWidth: 3111
Flags: W
HStem: 0 21G<303 495 867 1061> 772 151<212.517 291.32> 1064 144<210.273 303.816 791.827 864.952>
VStem: 38 152<945.398 1041.77> 303 192<0 576.717> 867 194<0 1012>
LayerCount: 2
Fore
SplineSet
535 918 m 2,0,1
 555 946 555 946 583.5 995.5 c 128,-1,2
 612 1045 612 1045 651.5 1095 c 128,-1,3
 691 1145 691 1145 739 1181 c 128,-1,4
 787 1217 787 1217 844 1217 c 0,5,6
 971 1217 971 1217 1016 1153 c 128,-1,7
 1061 1089 1061 1089 1061 965 c 2,8,-1
 1061 0 l 1,9,-1
 867 0 l 1,10,-1
 867 1012 l 1,11,12
 853 1054 853 1054 834 1054 c 256,13,14
 816 1054 816 1054 798.5 1037.5 c 128,-1,15
 781 1021 781 1021 762 996 c 128,-1,16
 743 971 743 971 725 941 c 128,-1,17
 707 911 707 911 691 884 c 0,18,19
 678 862 678 862 645 810.5 c 128,-1,20
 612 759 612 759 579.5 704.5 c 128,-1,21
 547 650 547 650 522.5 609.5 c 128,-1,22
 498 569 498 569 495 567 c 1,23,-1
 495 0 l 1,24,-1
 303 0 l 1,25,-1
 303 778 l 1,26,27
 289 772 289 772 259 772 c 0,28,29
 166 772 166 772 102 828 c 128,-1,30
 38 884 38 884 38 983 c 0,31,32
 38 1105 38 1105 108 1156.5 c 128,-1,33
 178 1208 178 1208 293 1208 c 0,34,35
 368 1208 368 1208 408 1178.5 c 128,-1,36
 448 1149 448 1149 466.5 1101.5 c 128,-1,37
 485 1054 485 1054 488.5 998.5 c 128,-1,38
 492 943 492 943 492 890 c 2,39,-1
 492 849 l 1,40,-1
 535 918 l 2,0,1
190 992 m 0,41,42
 190 965 190 965 210.5 944 c 128,-1,43
 231 923 231 923 259 923 c 0,44,45
 282 923 282 923 303 944 c 128,-1,46
 324 965 324 965 324 992 c 0,47,48
 324 1024 324 1024 303 1044 c 128,-1,49
 282 1064 282 1064 259 1064 c 0,50,51
 231 1064 231 1064 210.5 1044 c 128,-1,52
 190 1024 190 1024 190 992 c 0,41,42
EndSplineSet
EndChar

StartChar: uni0E18
Encoding: 3608 3608 293
Width: 1131
VWidth: 3111
Flags: W
HStem: 0 166<386 778> 772 164<308 399.362 399.362 581.567> 936 231<726.834 986.159> 1048 165<358.382 520.967>
VStem: 74 962<772 1188 1351 1045.57> 193 193<166 724> 778 193<166 700.286>
LayerCount: 2
Fore
SplineSet
550 1203 m 2,0,1
 594 1198 594 1198 697 1182.5 c 128,-1,2
 800 1167 800 1167 893 1167 c 128,-1,3
 986 1167 986 1167 1036 1188 c 1,4,-1
 1036 942 l 1,5,6
 1001 936 1001 936 988 936 c 2,7,-1
 962 936 l 2,8,9
 830 936 830 936 723.5 980 c 128,-1,10
 617 1024 617 1024 583.5 1036 c 128,-1,11
 550 1048 550 1048 490 1048 c 256,12,13
 360 1048 360 1048 308 936 c 1,14,-1
 419 936 l 2,15,16
 639 936 639 936 772 879 c 0,17,18
 855 844 855 844 913 780 c 128,-1,19
 971 716 971 716 971 606 c 2,20,-1
 971 0 l 1,21,-1
 193 0 l 1,22,-1
 193 724 l 1,23,-1
 386 724 l 1,24,-1
 386 166 l 1,25,-1
 778 166 l 1,26,-1
 778 579 l 2,27,28
 778 663 778 663 734.5 701.5 c 128,-1,29
 691 740 691 740 623 754 c 128,-1,30
 555 768 555 768 475 768 c 128,-1,31
 395 768 395 768 324 772 c 2,32,-1
 74 772 l 1,33,34
 78 834 78 834 83 871 c 0,35,36
 102 1052 102 1052 247 1143 c 0,37,38
 357 1213 357 1213 449 1213 c 0,39,40
 463 1213 463 1213 476 1211 c 2,41,-1
 550 1203 l 2,0,1
EndSplineSet
EndChar

StartChar: uni0E19
Encoding: 3609 3609 294
Width: 1131
VWidth: 3111
Flags: W
HStem: -28 146<844.659 942.378> 788 145<218.297 293.635> 1073 138<217.237 308.682>
VStem: 50 146<955.893 1051.17> 303 192<289 797> 837 193<594.473 1205> 942.5 148.5<120.01 140 160 200.219 200.219 205.139 202.679 292.957>
LayerCount: 2
Fore
SplineSet
1105 234 m 0,0,1
 1105 187 1105 187 1091 140 c 128,-1,2
 1077 93 1077 93 1052 55.5 c 128,-1,3
 1027 18 1027 18 988.5 -5 c 128,-1,4
 950 -28 950 -28 899 -28 c 0,5,6
 666 -28 666 -28 666 202 c 2,7,-1
 666 228 l 1,8,9
 612 193 612 193 559.5 129 c 128,-1,10
 507 65 507 65 481 0 c 1,11,-1
 303 0 l 1,12,-1
 303 797 l 1,13,14
 273 788 273 788 240 788 c 0,15,16
 149 788 149 788 99.5 850 c 128,-1,17
 50 912 50 912 50 996 c 0,18,19
 50 1096 50 1096 112.5 1153.5 c 128,-1,20
 175 1211 175 1211 270 1211 c 0,21,22
 351 1211 351 1211 396.5 1189 c 128,-1,23
 442 1167 442 1167 463.5 1127 c 128,-1,24
 485 1087 485 1087 490 1032 c 128,-1,25
 495 977 495 977 495 915 c 2,26,-1
 495 289 l 1,27,28
 529 326 529 326 580.5 356 c 128,-1,29
 632 386 632 386 684.5 418.5 c 128,-1,30
 737 451 737 451 779 493 c 0,31,32
 823 536 823 536 834 594 c 0,33,34
 837 609 837 609 837 640 c 0,35,36
 837 662 837 662 837 682 c 2,37,-1
 837 1205 l 1,38,-1
 1030 1205 l 1,39,-1
 1030 603 l 2,40,41
 1030 560 1030 560 1015.5 522.5 c 128,-1,42
 1001 485 1001 485 980 451 c 1,43,44
 1105 392 1105 392 1105 234 c 0,0,1
955 231 m 256,45,46
 955 259 955 259 941 288 c 128,-1,47
 927 317 927 317 897 317 c 0,48,49
 862 317 862 317 846.5 284.5 c 128,-1,50
 831 252 831 252 831 220 c 256,51,52
 831 190 831 190 844.5 154 c 128,-1,53
 858 118 858 118 897 118 c 0,54,55
 930 118 930 118 942.5 160 c 128,-1,56
 955 202 955 202 955 231 c 256,45,46
196 1005 m 0,57,58
 196 975 196 975 216.5 954 c 128,-1,59
 237 933 237 933 261 933 c 0,60,61
 289 933 289 933 309.5 954 c 128,-1,62
 330 975 330 975 330 1005 c 0,63,64
 330 1033 330 1033 309.5 1053 c 128,-1,65
 289 1073 289 1073 261 1073 c 0,66,67
 237 1073 237 1073 216.5 1053 c 128,-1,68
 196 1033 196 1033 196 1005 c 0,57,58
EndSplineSet
EndChar

StartChar: uni0E1A
Encoding: 3610 3610 295
Width: 1131
VWidth: 3111
Flags: W
HStem: 0 166<504 888> 1064 147<220.822 312.056>
VStem: 44 155<949.047 1042.11> 312 192<166 781> 888 192<166 1205>
LayerCount: 2
Fore
SplineSet
312 0 m 1,0,-1
 312 781 l 1,1,2
 296 775 296 775 282 775 c 128,-1,3
 268 775 268 775 255 775 c 0,4,5
 158 775 158 775 101 836 c 128,-1,6
 44 897 44 897 44 989 c 0,7,8
 44 1089 44 1089 106.5 1150 c 128,-1,9
 169 1211 169 1211 268 1211 c 0,10,11
 398 1211 398 1211 451 1137.5 c 128,-1,12
 504 1064 504 1064 504 945 c 2,13,-1
 504 166 l 1,14,-1
 888 166 l 1,15,-1
 888 1205 l 1,16,-1
 1080 1205 l 1,17,-1
 1080 0 l 1,18,-1
 312 0 l 1,0,-1
199 996 m 256,19,20
 199 968 199 968 219.5 947.5 c 128,-1,21
 240 927 240 927 268 927 c 0,22,23
 293 927 293 927 313 947.5 c 128,-1,24
 333 968 333 968 333 996 c 256,25,26
 333 1024 333 1024 313 1044 c 128,-1,27
 293 1064 293 1064 268 1064 c 0,28,29
 240 1064 240 1064 219.5 1044 c 128,-1,30
 199 1024 199 1024 199 996 c 256,19,20
EndSplineSet
EndChar

StartChar: uni0E1B
Encoding: 3611 3611 296
Width: 1131
VWidth: 3111
Flags: W
HStem: 0 166<504 884> 1064 147<226.459 318.397>
VStem: 44 161<949.047 1042.11> 312 192<166 781> 884 193<166 1627>
LayerCount: 2
Fore
SplineSet
312 0 m 1,0,-1
 312 781 l 1,1,2
 296 775 296 775 282 775 c 128,-1,3
 268 775 268 775 255 775 c 0,4,5
 158 775 158 775 101 836 c 128,-1,6
 44 897 44 897 44 989 c 0,7,8
 44 1089 44 1089 106.5 1150 c 128,-1,9
 169 1211 169 1211 268 1211 c 0,10,11
 398 1211 398 1211 451 1137.5 c 128,-1,12
 504 1064 504 1064 504 945 c 2,13,-1
 504 166 l 1,14,-1
 884 166 l 1,15,-1
 884 1627 l 1,16,-1
 1077 1627 l 1,17,-1
 1077 0 l 1,18,-1
 312 0 l 1,0,-1
205 996 m 256,19,20
 205 968 205 968 225.5 947.5 c 128,-1,21
 246 927 246 927 273 927 c 0,22,23
 299 927 299 927 319 947.5 c 128,-1,24
 339 968 339 968 339 996 c 256,25,26
 339 1024 339 1024 319 1044 c 128,-1,27
 299 1064 299 1064 273 1064 c 0,28,29
 246 1064 246 1064 225.5 1044 c 128,-1,30
 205 1024 205 1024 205 996 c 256,19,20
EndSplineSet
EndChar

StartChar: uni0E1C
Encoding: 3612 3612 297
Width: 1131
VWidth: 3111
Flags: W
HStem: 0 21G<109 364.817 782.712 1039> 757 162<333.921 416.955> 1058 153<325.004 416.777>
VStem: 109 190<252 767 955.846 1021.36> 439 158<941.531 1036.25> 846 193<270 1205>
LayerCount: 2
Fore
SplineSet
354 0 m 1,0,-1
 109 0 l 1,1,-1
 109 987 l 2,2,3
 109 1033 109 1033 130.5 1073.5 c 128,-1,4
 152 1114 152 1114 188 1145 c 128,-1,5
 224 1176 224 1176 268 1193.5 c 128,-1,6
 312 1211 312 1211 359 1211 c 0,7,8
 460 1211 460 1211 528.5 1150.5 c 128,-1,9
 597 1090 597 1090 597 980 c 256,10,11
 597 871 597 871 534.5 814 c 128,-1,12
 472 757 472 757 365 757 c 0,13,14
 336 757 336 757 299 767 c 1,15,-1
 299 252 l 1,16,17
 359 348 359 348 413 447.5 c 128,-1,18
 467 547 467 547 525 645 c 1,19,-1
 650 645 l 1,20,-1
 846 270 l 1,21,-1
 846 1205 l 1,22,-1
 1039 1205 l 1,23,-1
 1039 0 l 1,24,-1
 793 0 l 1,25,-1
 579 416 l 1,26,-1
 354 0 l 1,0,-1
305 987 m 0,27,28
 305 959 305 959 323.5 939 c 128,-1,29
 342 919 342 919 370 919 c 256,30,31
 398 919 398 919 418.5 939 c 128,-1,32
 439 959 439 959 439 987 c 0,33,34
 439 1019 439 1019 418.5 1038.5 c 128,-1,35
 398 1058 398 1058 370 1058 c 256,36,37
 342 1058 342 1058 323.5 1038.5 c 128,-1,38
 305 1019 305 1019 305 987 c 0,27,28
EndSplineSet
EndChar

